M48
; DRILL file {KiCad 8.0.6-8.0.6-0~ubuntu24.04.1} date 2024-11-13T00:59:24+0100
; FORMAT={-:-/ absolute / inch / decimal}
; #@! TF.CreationDate,2024-11-13T00:59:24+01:00
; #@! TF.GenerationSoftware,Kicad,Pcbnew,8.0.6-8.0.6-0~ubuntu24.04.1
; #@! TF.FileFunction,Plated,1,4,PTH
FMAT,2
INCH
; #@! TA.AperFunction,Plated,PTH,ComponentDrill
T1C0.0079
; #@! TA.AperFunction,Plated,PTH,ViaDrill
T2C0.0098
; #@! TA.AperFunction,Plated,PTH,ComponentDrill
T3C0.0236
; #@! TA.AperFunction,Plated,PTH,ComponentDrill
T4C0.0295
; #@! TA.AperFunction,Plated,PTH,ComponentDrill
T5C0.0354
; #@! TA.AperFunction,Plated,PTH,ComponentDrill
T6C0.0374
; #@! TA.AperFunction,Plated,PTH,ComponentDrill
T7C0.0472
; #@! TA.AperFunction,Plated,PTH,ComponentDrill
T8C0.0591
%
G90
G05
T1
X3.1051Y0.5616
X3.1051Y0.5065
X3.1327Y0.5892
X3.1327Y0.5341
X3.1327Y0.4789
X3.1602Y0.5616
X3.1602Y0.5065
X3.1878Y0.5892
X3.1878Y0.5341
X3.1878Y0.4789
X3.2154Y0.5616
X3.2154Y0.5065
T2
X0.04Y1.34
X0.04Y0.35
X0.05Y0.95
X0.05Y0.875
X0.05Y0.8
X0.05Y0.725
X0.05Y0.65
X0.05Y0.575
X0.05Y0.5
X0.05Y0.425
X0.075Y0.375
X0.1Y1.0
X0.1Y0.8
X0.1Y0.6
X0.1Y0.4
X0.11Y0.04
X0.135Y1.08
X0.15Y0.375
X0.175Y1.0
X0.175Y0.05
X0.2Y0.9
X0.2Y0.7
X0.2Y0.5
X0.2Y0.325
X0.2Y0.25
X0.2Y0.175
X0.2Y0.1
X0.25Y1.0
X0.25Y0.05
X0.3Y0.8
X0.3Y0.6
X0.3Y0.4
X0.3Y0.2
X0.325Y1.0
X0.325Y0.05
X0.375Y1.9
X0.375Y1.85
X0.375Y1.8
X0.4Y1.0
X0.4Y0.9
X0.4Y0.7
X0.4Y0.5
X0.4Y0.3
X0.4Y0.1
X0.4Y0.05
X0.425Y1.9
X0.425Y1.85
X0.425Y1.8
X0.445Y1.105
X0.475Y1.0
X0.475Y0.05
X0.5Y0.8
X0.5Y0.6
X0.5Y0.4
X0.5Y0.2
X0.55Y1.0
X0.55Y0.05
X0.6Y0.9
X0.6Y0.7
X0.6Y0.5
X0.6Y0.3
X0.6Y0.1
X0.625Y1.0
X0.625Y0.05
X0.7Y1.0
X0.7Y0.8
X0.7Y0.6
X0.7Y0.4
X0.7Y0.2
X0.7Y0.05
X0.775Y1.0
X0.775Y0.05
X0.8Y0.9
X0.8Y0.7
X0.8Y0.5
X0.8Y0.3
X0.8Y0.1
X0.85Y1.0
X0.85Y0.05
X0.9Y0.8
X0.9Y0.6
X0.9Y0.4
X0.9Y0.2
X0.925Y1.0
X0.925Y0.05
X0.975Y1.125
X1.0Y1.0
X1.0Y0.9
X1.0Y0.7
X1.0Y0.5
X1.0Y0.3
X1.0Y0.1
X1.0Y0.05
X1.075Y1.0
X1.075Y0.05
X1.1Y0.8
X1.1Y0.6
X1.1Y0.4
X1.1Y0.2
X1.12Y1.2
X1.125Y1.125
X1.15Y1.0
X1.15Y0.95
X1.15Y0.875
X1.15Y0.8
X1.15Y0.725
X1.15Y0.65
X1.15Y0.575
X1.15Y0.5
X1.15Y0.425
X1.15Y0.35
X1.15Y0.275
X1.15Y0.2
X1.15Y0.125
X1.15Y0.05
X1.205Y1.0
X1.245Y0.04
X1.25Y0.975
X1.385Y1.08
X1.385Y1.02
X1.435Y0.52
X1.465Y0.52
X1.47Y0.6724
X1.475Y0.6
X1.475Y0.2962
X1.475Y0.1962
X1.475Y0.0962
X1.495Y0.4
X1.5Y0.98
X1.535Y0.815
X1.575Y0.98
X1.61Y0.785
X1.65Y0.325
X1.69Y0.925
X1.705Y1.08
X1.7075Y0.2325
X1.7125Y0.8925
X1.75Y1.24
X1.8Y0.06
X1.85Y1.17
X1.865Y0.445
X1.875Y1.2475
X1.88Y0.06
X1.89Y1.17
X1.9Y0.365
X1.9Y0.225
X1.94Y0.955
X1.94Y0.895
X1.975Y0.365
X1.985Y1.185
X2.005Y0.535
X2.01Y1.185
X2.01Y1.1055
X2.035Y1.15
X2.05Y1.0
X2.05Y0.365
X2.065Y1.15
X2.125Y0.365
X2.13Y1.16
X2.145Y0.6
X2.145Y0.55
X2.155Y0.155
X2.16Y0.87
X2.2Y0.365
X2.245Y1.275
X2.245Y1.245
X2.275Y1.275
X2.275Y1.245
X2.275Y0.365
X2.335Y0.45
X2.34Y0.23
X2.35Y0.35
X2.385Y0.07
X2.4Y1.355
X2.4Y1.33
X2.425Y1.355
X2.425Y1.33
X2.445Y1.005
X2.47Y1.215
X2.47Y1.19
X2.49Y1.12
X2.49Y1.09
X2.495Y1.215
X2.495Y1.19
X2.495Y0.93
X2.495Y0.6
X2.495Y0.35
X2.52Y0.365
X2.53Y0.745
X2.55Y1.32
X2.58Y0.565
X2.59Y0.365
X2.605Y0.685
X2.64Y0.635
X2.655Y1.015
X2.68Y0.695
X2.75Y1.005
X2.845Y1.28
X2.855Y1.125
X2.8992Y0.895
X2.9Y0.08
X2.94Y0.895
X2.975Y0.895
X2.99Y0.9452
X3.02Y0.895
X3.025Y1.09
X3.05Y0.065
X3.0657Y1.4151
X3.0657Y1.2751
X3.0675Y1.05
X3.075Y1.9
X3.075Y1.85
X3.075Y1.8
X3.075Y0.895
X3.1Y0.065
X3.1175Y0.8925
X3.125Y1.9
X3.125Y1.85
X3.125Y1.8
X3.145Y1.25
X3.145Y0.925
X3.18Y1.2801
X3.18Y1.0951
X3.18Y1.0566
X3.2Y0.065
X3.25Y0.065
X3.27Y0.925
X3.3Y0.065
X3.35Y0.88
X3.35Y0.065
X3.45Y0.94
X3.45Y0.065
T4
X0.1083Y0.3
X0.1083Y0.1
X1.25Y0.9
X1.25Y0.8
X1.25Y0.7
X1.25Y0.6
X1.25Y0.5
X1.25Y0.4
X1.25Y0.3
X1.25Y0.2
X1.25Y0.1
T5
X0.775Y1.3234
X0.775Y1.1266
T6
X1.2797Y1.295
X1.3781Y1.295
X1.4766Y1.295
X1.575Y1.295
T7
X1.7Y0.625
X1.7Y0.475
T8
X0.125Y1.525
X3.375Y1.55
T3
G00X3.2551Y1.3549
M15
G01X3.2984Y1.3549
M16
G05
G00X3.2551Y1.0148
M15
G01X3.2984Y1.0148
M16
G05
G00X3.4295Y1.3549
M15
G01X3.4531Y1.3549
M16
G05
G00X3.4295Y1.0148
M15
G01X3.4531Y1.0148
M16
G05
M30
