%TF.GenerationSoftware,KiCad,Pcbnew,8.0.6-8.0.6-0~ubuntu24.04.1*%
%TF.CreationDate,2024-11-13T00:59:24+01:00*%
%TF.ProjectId,TinyTimer_V01,54696e79-5469-46d6-9572-5f5630312e6b,rev?*%
%TF.SameCoordinates,Original*%
%TF.FileFunction,Copper,L4,Bot*%
%TF.FilePolarity,Positive*%
%FSLAX46Y46*%
G04 Gerber Fmt 4.6, Leading zero omitted, Abs format (unit mm)*
G04 Created by KiCad (PCBNEW 8.0.6-8.0.6-0~ubuntu24.04.1) date 2024-11-13 00:59:24*
%MOMM*%
%LPD*%
G01*
G04 APERTURE LIST*
G04 Aperture macros list*
%AMRoundRect*
0 Rectangle with rounded corners*
0 $1 Rounding radius*
0 $2 $3 $4 $5 $6 $7 $8 $9 X,Y pos of 4 corners*
0 Add a 4 corners polygon primitive as box body*
4,1,4,$2,$3,$4,$5,$6,$7,$8,$9,$2,$3,0*
0 Add four circle primitives for the rounded corners*
1,1,$1+$1,$2,$3*
1,1,$1+$1,$4,$5*
1,1,$1+$1,$6,$7*
1,1,$1+$1,$8,$9*
0 Add four rect primitives between the rounded corners*
20,1,$1+$1,$2,$3,$4,$5,0*
20,1,$1+$1,$4,$5,$6,$7,0*
20,1,$1+$1,$6,$7,$8,$9,0*
20,1,$1+$1,$8,$9,$2,$3,0*%
G04 Aperture macros list end*
%TA.AperFunction,NonConductor*%
%ADD10C,0.381000*%
%TD*%
%ADD11C,0.254000*%
%TA.AperFunction,NonConductor*%
%ADD12C,0.254000*%
%TD*%
%ADD13C,0.300000*%
%TA.AperFunction,NonConductor*%
%ADD14C,0.300000*%
%TD*%
%TA.AperFunction,ComponentPad*%
%ADD15C,3.000000*%
%TD*%
%TA.AperFunction,HeatsinkPad*%
%ADD16C,0.600000*%
%TD*%
%TA.AperFunction,ComponentPad*%
%ADD17RoundRect,0.250000X1.550000X-0.650000X1.550000X0.650000X-1.550000X0.650000X-1.550000X-0.650000X0*%
%TD*%
%TA.AperFunction,ComponentPad*%
%ADD18O,3.600000X1.800000*%
%TD*%
%TA.AperFunction,ComponentPad*%
%ADD19RoundRect,0.250000X-0.600000X-0.725000X0.600000X-0.725000X0.600000X0.725000X-0.600000X0.725000X0*%
%TD*%
%TA.AperFunction,ComponentPad*%
%ADD20O,1.700000X1.950000*%
%TD*%
%TA.AperFunction,ComponentPad*%
%ADD21O,2.100000X1.000000*%
%TD*%
%TA.AperFunction,ComponentPad*%
%ADD22O,1.600000X1.000000*%
%TD*%
%TA.AperFunction,ComponentPad*%
%ADD23O,3.000000X1.600000*%
%TD*%
%TA.AperFunction,ComponentPad*%
%ADD24C,1.408000*%
%TD*%
%TA.AperFunction,SMDPad,CuDef*%
%ADD25C,1.000000*%
%TD*%
%TA.AperFunction,ViaPad*%
%ADD26C,0.508000*%
%TD*%
%TA.AperFunction,Conductor*%
%ADD27C,0.254000*%
%TD*%
%TA.AperFunction,Conductor*%
%ADD28C,0.508000*%
%TD*%
G04 APERTURE END LIST*
D10*
X32131000Y40259000D02*
G75*
G02*
X27051000Y40259000I-2540000J0D01*
G01*
X27051000Y40259000D02*
G75*
G02*
X32131000Y40259000I2540000J0D01*
G01*
X28702000Y42545000D02*
X28702000Y37973000D01*
X28829000Y42545000D02*
X30734000Y38100000D01*
D11*
D12*
X2600475Y54576521D02*
X2600475Y53899188D01*
X2842380Y54963568D02*
X3084285Y54237854D01*
X3084285Y54237854D02*
X2455332Y54237854D01*
D13*
D14*
X44109774Y55674172D02*
X43252632Y55674172D01*
X43681203Y54174172D02*
X43681203Y55674172D01*
X42752632Y54174172D02*
X42752632Y55174172D01*
X42752632Y55674172D02*
X42824060Y55602743D01*
X42824060Y55602743D02*
X42752632Y55531315D01*
X42752632Y55531315D02*
X42681203Y55602743D01*
X42681203Y55602743D02*
X42752632Y55674172D01*
X42752632Y55674172D02*
X42752632Y55531315D01*
X42038346Y55174172D02*
X42038346Y54174172D01*
X42038346Y55031315D02*
X41966917Y55102743D01*
X41966917Y55102743D02*
X41824060Y55174172D01*
X41824060Y55174172D02*
X41609774Y55174172D01*
X41609774Y55174172D02*
X41466917Y55102743D01*
X41466917Y55102743D02*
X41395489Y54959886D01*
X41395489Y54959886D02*
X41395489Y54174172D01*
X40824060Y55174172D02*
X40466917Y54174172D01*
X40109774Y55174172D02*
X40466917Y54174172D01*
X40466917Y54174172D02*
X40609774Y53817029D01*
X40609774Y53817029D02*
X40681203Y53745600D01*
X40681203Y53745600D02*
X40824060Y53674172D01*
X39538346Y54174172D02*
X39538346Y55674172D01*
X39538346Y55674172D02*
X39181203Y55674172D01*
X39181203Y55674172D02*
X38966917Y55602743D01*
X38966917Y55602743D02*
X38824060Y55459886D01*
X38824060Y55459886D02*
X38752631Y55317029D01*
X38752631Y55317029D02*
X38681203Y55031315D01*
X38681203Y55031315D02*
X38681203Y54817029D01*
X38681203Y54817029D02*
X38752631Y54531315D01*
X38752631Y54531315D02*
X38824060Y54388458D01*
X38824060Y54388458D02*
X38966917Y54245600D01*
X38966917Y54245600D02*
X39181203Y54174172D01*
X39181203Y54174172D02*
X39538346Y54174172D01*
X38038346Y54174172D02*
X38038346Y55174172D01*
X38038346Y54888458D02*
X37966917Y55031315D01*
X37966917Y55031315D02*
X37895489Y55102743D01*
X37895489Y55102743D02*
X37752631Y55174172D01*
X37752631Y55174172D02*
X37609774Y55174172D01*
X36895489Y54174172D02*
X37038346Y54245600D01*
X37038346Y54245600D02*
X37109775Y54317029D01*
X37109775Y54317029D02*
X37181203Y54459886D01*
X37181203Y54459886D02*
X37181203Y54888458D01*
X37181203Y54888458D02*
X37109775Y55031315D01*
X37109775Y55031315D02*
X37038346Y55102743D01*
X37038346Y55102743D02*
X36895489Y55174172D01*
X36895489Y55174172D02*
X36681203Y55174172D01*
X36681203Y55174172D02*
X36538346Y55102743D01*
X36538346Y55102743D02*
X36466918Y55031315D01*
X36466918Y55031315D02*
X36395489Y54888458D01*
X36395489Y54888458D02*
X36395489Y54459886D01*
X36395489Y54459886D02*
X36466918Y54317029D01*
X36466918Y54317029D02*
X36538346Y54245600D01*
X36538346Y54245600D02*
X36681203Y54174172D01*
X36681203Y54174172D02*
X36895489Y54174172D01*
X35752632Y55174172D02*
X35752632Y54174172D01*
X35752632Y55031315D02*
X35681203Y55102743D01*
X35681203Y55102743D02*
X35538346Y55174172D01*
X35538346Y55174172D02*
X35324060Y55174172D01*
X35324060Y55174172D02*
X35181203Y55102743D01*
X35181203Y55102743D02*
X35109775Y54959886D01*
X35109775Y54959886D02*
X35109775Y54174172D01*
X33824060Y54245600D02*
X33966917Y54174172D01*
X33966917Y54174172D02*
X34252632Y54174172D01*
X34252632Y54174172D02*
X34395489Y54245600D01*
X34395489Y54245600D02*
X34466917Y54388458D01*
X34466917Y54388458D02*
X34466917Y54959886D01*
X34466917Y54959886D02*
X34395489Y55102743D01*
X34395489Y55102743D02*
X34252632Y55174172D01*
X34252632Y55174172D02*
X33966917Y55174172D01*
X33966917Y55174172D02*
X33824060Y55102743D01*
X33824060Y55102743D02*
X33752632Y54959886D01*
X33752632Y54959886D02*
X33752632Y54817029D01*
X33752632Y54817029D02*
X34466917Y54674172D01*
X33181203Y54245600D02*
X33038346Y54174172D01*
X33038346Y54174172D02*
X32752632Y54174172D01*
X32752632Y54174172D02*
X32609775Y54245600D01*
X32609775Y54245600D02*
X32538346Y54388458D01*
X32538346Y54388458D02*
X32538346Y54459886D01*
X32538346Y54459886D02*
X32609775Y54602743D01*
X32609775Y54602743D02*
X32752632Y54674172D01*
X32752632Y54674172D02*
X32966918Y54674172D01*
X32966918Y54674172D02*
X33109775Y54745600D01*
X33109775Y54745600D02*
X33181203Y54888458D01*
X33181203Y54888458D02*
X33181203Y54959886D01*
X33181203Y54959886D02*
X33109775Y55102743D01*
X33109775Y55102743D02*
X32966918Y55174172D01*
X32966918Y55174172D02*
X32752632Y55174172D01*
X32752632Y55174172D02*
X32609775Y55102743D01*
X30966917Y55674172D02*
X30109775Y55674172D01*
X30538346Y54174172D02*
X30538346Y55674172D01*
X29609775Y54174172D02*
X29609775Y55174172D01*
X29609775Y55674172D02*
X29681203Y55602743D01*
X29681203Y55602743D02*
X29609775Y55531315D01*
X29609775Y55531315D02*
X29538346Y55602743D01*
X29538346Y55602743D02*
X29609775Y55674172D01*
X29609775Y55674172D02*
X29609775Y55531315D01*
X28895489Y54174172D02*
X28895489Y55174172D01*
X28895489Y55031315D02*
X28824060Y55102743D01*
X28824060Y55102743D02*
X28681203Y55174172D01*
X28681203Y55174172D02*
X28466917Y55174172D01*
X28466917Y55174172D02*
X28324060Y55102743D01*
X28324060Y55102743D02*
X28252632Y54959886D01*
X28252632Y54959886D02*
X28252632Y54174172D01*
X28252632Y54959886D02*
X28181203Y55102743D01*
X28181203Y55102743D02*
X28038346Y55174172D01*
X28038346Y55174172D02*
X27824060Y55174172D01*
X27824060Y55174172D02*
X27681203Y55102743D01*
X27681203Y55102743D02*
X27609774Y54959886D01*
X27609774Y54959886D02*
X27609774Y54174172D01*
X26324060Y54245600D02*
X26466917Y54174172D01*
X26466917Y54174172D02*
X26752632Y54174172D01*
X26752632Y54174172D02*
X26895489Y54245600D01*
X26895489Y54245600D02*
X26966917Y54388458D01*
X26966917Y54388458D02*
X26966917Y54959886D01*
X26966917Y54959886D02*
X26895489Y55102743D01*
X26895489Y55102743D02*
X26752632Y55174172D01*
X26752632Y55174172D02*
X26466917Y55174172D01*
X26466917Y55174172D02*
X26324060Y55102743D01*
X26324060Y55102743D02*
X26252632Y54959886D01*
X26252632Y54959886D02*
X26252632Y54817029D01*
X26252632Y54817029D02*
X26966917Y54674172D01*
X25609775Y54174172D02*
X25609775Y55174172D01*
X25609775Y54888458D02*
X25538346Y55031315D01*
X25538346Y55031315D02*
X25466918Y55102743D01*
X25466918Y55102743D02*
X25324060Y55174172D01*
X25324060Y55174172D02*
X25181203Y55174172D01*
X23752632Y55674172D02*
X23252632Y54174172D01*
X23252632Y54174172D02*
X22752632Y55674172D01*
X21966918Y55674172D02*
X21824061Y55674172D01*
X21824061Y55674172D02*
X21681204Y55602743D01*
X21681204Y55602743D02*
X21609776Y55531315D01*
X21609776Y55531315D02*
X21538347Y55388458D01*
X21538347Y55388458D02*
X21466918Y55102743D01*
X21466918Y55102743D02*
X21466918Y54745600D01*
X21466918Y54745600D02*
X21538347Y54459886D01*
X21538347Y54459886D02*
X21609776Y54317029D01*
X21609776Y54317029D02*
X21681204Y54245600D01*
X21681204Y54245600D02*
X21824061Y54174172D01*
X21824061Y54174172D02*
X21966918Y54174172D01*
X21966918Y54174172D02*
X22109776Y54245600D01*
X22109776Y54245600D02*
X22181204Y54317029D01*
X22181204Y54317029D02*
X22252633Y54459886D01*
X22252633Y54459886D02*
X22324061Y54745600D01*
X22324061Y54745600D02*
X22324061Y55102743D01*
X22324061Y55102743D02*
X22252633Y55388458D01*
X22252633Y55388458D02*
X22181204Y55531315D01*
X22181204Y55531315D02*
X22109776Y55602743D01*
X22109776Y55602743D02*
X21966918Y55674172D01*
X20038347Y54174172D02*
X20895490Y54174172D01*
X20466919Y54174172D02*
X20466919Y55674172D01*
X20466919Y55674172D02*
X20609776Y55459886D01*
X20609776Y55459886D02*
X20752633Y55317029D01*
X20752633Y55317029D02*
X20895490Y55245600D01*
D13*
D14*
X46570489Y40354886D02*
X46356203Y40283458D01*
X46356203Y40283458D02*
X46284774Y40212029D01*
X46284774Y40212029D02*
X46213346Y40069172D01*
X46213346Y40069172D02*
X46213346Y39854886D01*
X46213346Y39854886D02*
X46284774Y39712029D01*
X46284774Y39712029D02*
X46356203Y39640600D01*
X46356203Y39640600D02*
X46499060Y39569172D01*
X46499060Y39569172D02*
X47070489Y39569172D01*
X47070489Y39569172D02*
X47070489Y41069172D01*
X47070489Y41069172D02*
X46570489Y41069172D01*
X46570489Y41069172D02*
X46427632Y40997743D01*
X46427632Y40997743D02*
X46356203Y40926315D01*
X46356203Y40926315D02*
X46284774Y40783458D01*
X46284774Y40783458D02*
X46284774Y40640600D01*
X46284774Y40640600D02*
X46356203Y40497743D01*
X46356203Y40497743D02*
X46427632Y40426315D01*
X46427632Y40426315D02*
X46570489Y40354886D01*
X46570489Y40354886D02*
X47070489Y40354886D01*
X45284774Y41069172D02*
X44999060Y41069172D01*
X44999060Y41069172D02*
X44856203Y40997743D01*
X44856203Y40997743D02*
X44713346Y40854886D01*
X44713346Y40854886D02*
X44641917Y40569172D01*
X44641917Y40569172D02*
X44641917Y40069172D01*
X44641917Y40069172D02*
X44713346Y39783458D01*
X44713346Y39783458D02*
X44856203Y39640600D01*
X44856203Y39640600D02*
X44999060Y39569172D01*
X44999060Y39569172D02*
X45284774Y39569172D01*
X45284774Y39569172D02*
X45427632Y39640600D01*
X45427632Y39640600D02*
X45570489Y39783458D01*
X45570489Y39783458D02*
X45641917Y40069172D01*
X45641917Y40069172D02*
X45641917Y40569172D01*
X45641917Y40569172D02*
X45570489Y40854886D01*
X45570489Y40854886D02*
X45427632Y40997743D01*
X45427632Y40997743D02*
X45284774Y41069172D01*
X44213345Y41069172D02*
X43356203Y41069172D01*
X43784774Y39569172D02*
X43784774Y41069172D01*
X43070488Y41069172D02*
X42213346Y41069172D01*
X42641917Y39569172D02*
X42641917Y41069172D01*
X41427631Y41069172D02*
X41141917Y41069172D01*
X41141917Y41069172D02*
X40999060Y40997743D01*
X40999060Y40997743D02*
X40856203Y40854886D01*
X40856203Y40854886D02*
X40784774Y40569172D01*
X40784774Y40569172D02*
X40784774Y40069172D01*
X40784774Y40069172D02*
X40856203Y39783458D01*
X40856203Y39783458D02*
X40999060Y39640600D01*
X40999060Y39640600D02*
X41141917Y39569172D01*
X41141917Y39569172D02*
X41427631Y39569172D01*
X41427631Y39569172D02*
X41570489Y39640600D01*
X41570489Y39640600D02*
X41713346Y39783458D01*
X41713346Y39783458D02*
X41784774Y40069172D01*
X41784774Y40069172D02*
X41784774Y40569172D01*
X41784774Y40569172D02*
X41713346Y40854886D01*
X41713346Y40854886D02*
X41570489Y40997743D01*
X41570489Y40997743D02*
X41427631Y41069172D01*
X40141917Y39569172D02*
X40141917Y41069172D01*
X40141917Y41069172D02*
X39641917Y39997743D01*
X39641917Y39997743D02*
X39141917Y41069172D01*
X39141917Y41069172D02*
X39141917Y39569172D01*
D13*
D14*
X43895489Y51634172D02*
X43895489Y53134172D01*
X43895489Y53134172D02*
X43538346Y53134172D01*
X43538346Y53134172D02*
X43324060Y53062743D01*
X43324060Y53062743D02*
X43181203Y52919886D01*
X43181203Y52919886D02*
X43109774Y52777029D01*
X43109774Y52777029D02*
X43038346Y52491315D01*
X43038346Y52491315D02*
X43038346Y52277029D01*
X43038346Y52277029D02*
X43109774Y51991315D01*
X43109774Y51991315D02*
X43181203Y51848458D01*
X43181203Y51848458D02*
X43324060Y51705600D01*
X43324060Y51705600D02*
X43538346Y51634172D01*
X43538346Y51634172D02*
X43895489Y51634172D01*
X41824060Y51705600D02*
X41966917Y51634172D01*
X41966917Y51634172D02*
X42252632Y51634172D01*
X42252632Y51634172D02*
X42395489Y51705600D01*
X42395489Y51705600D02*
X42466917Y51848458D01*
X42466917Y51848458D02*
X42466917Y52419886D01*
X42466917Y52419886D02*
X42395489Y52562743D01*
X42395489Y52562743D02*
X42252632Y52634172D01*
X42252632Y52634172D02*
X41966917Y52634172D01*
X41966917Y52634172D02*
X41824060Y52562743D01*
X41824060Y52562743D02*
X41752632Y52419886D01*
X41752632Y52419886D02*
X41752632Y52277029D01*
X41752632Y52277029D02*
X42466917Y52134172D01*
X41181203Y51705600D02*
X41038346Y51634172D01*
X41038346Y51634172D02*
X40752632Y51634172D01*
X40752632Y51634172D02*
X40609775Y51705600D01*
X40609775Y51705600D02*
X40538346Y51848458D01*
X40538346Y51848458D02*
X40538346Y51919886D01*
X40538346Y51919886D02*
X40609775Y52062743D01*
X40609775Y52062743D02*
X40752632Y52134172D01*
X40752632Y52134172D02*
X40966918Y52134172D01*
X40966918Y52134172D02*
X41109775Y52205600D01*
X41109775Y52205600D02*
X41181203Y52348458D01*
X41181203Y52348458D02*
X41181203Y52419886D01*
X41181203Y52419886D02*
X41109775Y52562743D01*
X41109775Y52562743D02*
X40966918Y52634172D01*
X40966918Y52634172D02*
X40752632Y52634172D01*
X40752632Y52634172D02*
X40609775Y52562743D01*
X39895489Y51634172D02*
X39895489Y52634172D01*
X39895489Y53134172D02*
X39966917Y53062743D01*
X39966917Y53062743D02*
X39895489Y52991315D01*
X39895489Y52991315D02*
X39824060Y53062743D01*
X39824060Y53062743D02*
X39895489Y53134172D01*
X39895489Y53134172D02*
X39895489Y52991315D01*
X38538346Y52634172D02*
X38538346Y51419886D01*
X38538346Y51419886D02*
X38609774Y51277029D01*
X38609774Y51277029D02*
X38681203Y51205600D01*
X38681203Y51205600D02*
X38824060Y51134172D01*
X38824060Y51134172D02*
X39038346Y51134172D01*
X39038346Y51134172D02*
X39181203Y51205600D01*
X38538346Y51705600D02*
X38681203Y51634172D01*
X38681203Y51634172D02*
X38966917Y51634172D01*
X38966917Y51634172D02*
X39109774Y51705600D01*
X39109774Y51705600D02*
X39181203Y51777029D01*
X39181203Y51777029D02*
X39252631Y51919886D01*
X39252631Y51919886D02*
X39252631Y52348458D01*
X39252631Y52348458D02*
X39181203Y52491315D01*
X39181203Y52491315D02*
X39109774Y52562743D01*
X39109774Y52562743D02*
X38966917Y52634172D01*
X38966917Y52634172D02*
X38681203Y52634172D01*
X38681203Y52634172D02*
X38538346Y52562743D01*
X37824060Y52634172D02*
X37824060Y51634172D01*
X37824060Y52491315D02*
X37752631Y52562743D01*
X37752631Y52562743D02*
X37609774Y52634172D01*
X37609774Y52634172D02*
X37395488Y52634172D01*
X37395488Y52634172D02*
X37252631Y52562743D01*
X37252631Y52562743D02*
X37181203Y52419886D01*
X37181203Y52419886D02*
X37181203Y51634172D01*
X35324060Y51634172D02*
X35324060Y53134172D01*
X35324060Y52562743D02*
X35181203Y52634172D01*
X35181203Y52634172D02*
X34895488Y52634172D01*
X34895488Y52634172D02*
X34752631Y52562743D01*
X34752631Y52562743D02*
X34681203Y52491315D01*
X34681203Y52491315D02*
X34609774Y52348458D01*
X34609774Y52348458D02*
X34609774Y51919886D01*
X34609774Y51919886D02*
X34681203Y51777029D01*
X34681203Y51777029D02*
X34752631Y51705600D01*
X34752631Y51705600D02*
X34895488Y51634172D01*
X34895488Y51634172D02*
X35181203Y51634172D01*
X35181203Y51634172D02*
X35324060Y51705600D01*
X34109774Y52634172D02*
X33752631Y51634172D01*
X33395488Y52634172D02*
X33752631Y51634172D01*
X33752631Y51634172D02*
X33895488Y51277029D01*
X33895488Y51277029D02*
X33966917Y51205600D01*
X33966917Y51205600D02*
X34109774Y51134172D01*
X30824060Y51777029D02*
X30895488Y51705600D01*
X30895488Y51705600D02*
X31109774Y51634172D01*
X31109774Y51634172D02*
X31252631Y51634172D01*
X31252631Y51634172D02*
X31466917Y51705600D01*
X31466917Y51705600D02*
X31609774Y51848458D01*
X31609774Y51848458D02*
X31681203Y51991315D01*
X31681203Y51991315D02*
X31752631Y52277029D01*
X31752631Y52277029D02*
X31752631Y52491315D01*
X31752631Y52491315D02*
X31681203Y52777029D01*
X31681203Y52777029D02*
X31609774Y52919886D01*
X31609774Y52919886D02*
X31466917Y53062743D01*
X31466917Y53062743D02*
X31252631Y53134172D01*
X31252631Y53134172D02*
X31109774Y53134172D01*
X31109774Y53134172D02*
X30895488Y53062743D01*
X30895488Y53062743D02*
X30824060Y52991315D01*
X30324060Y52634172D02*
X29538346Y52634172D01*
X29538346Y52634172D02*
X30324060Y51634172D01*
X30324060Y51634172D02*
X29538346Y51634172D01*
X28966917Y51634172D02*
X28966917Y53134172D01*
X28966917Y53134172D02*
X28609774Y53134172D01*
X28609774Y53134172D02*
X28395488Y53062743D01*
X28395488Y53062743D02*
X28252631Y52919886D01*
X28252631Y52919886D02*
X28181202Y52777029D01*
X28181202Y52777029D02*
X28109774Y52491315D01*
X28109774Y52491315D02*
X28109774Y52277029D01*
X28109774Y52277029D02*
X28181202Y51991315D01*
X28181202Y51991315D02*
X28252631Y51848458D01*
X28252631Y51848458D02*
X28395488Y51705600D01*
X28395488Y51705600D02*
X28609774Y51634172D01*
X28609774Y51634172D02*
X28966917Y51634172D01*
D15*
%TO.P,TP20,1,1*%
%TO.N,GND*%
X85725000Y39370000D03*
%TD*%
D16*
%TO.P,U1,39,GND*%
%TO.N,GND*%
X80970000Y14965000D03*
X79570000Y14965000D03*
X81670000Y14265000D03*
X80270000Y14265000D03*
X78870000Y14265000D03*
X80970000Y13565000D03*
X79570000Y13565000D03*
X81670000Y12865000D03*
X80270000Y12865000D03*
X78870000Y12865000D03*
X80970000Y12165000D03*
X79570000Y12165000D03*
%TD*%
D17*
%TO.P,SW4,1,A*%
%TO.N,Net-(D4-K)*%
X43180000Y12065000D03*
D18*
%TO.P,SW4,2,B*%
%TO.N,VDD*%
X43180000Y15875000D03*
%TD*%
D19*
%TO.P,J3,1,Pin_1*%
%TO.N,GND*%
X32505000Y32893000D03*
D20*
%TO.P,J3,2,Pin_2*%
%TO.N,+3V3*%
X35005000Y32893000D03*
%TO.P,J3,3,Pin_3*%
%TO.N,SCL*%
X37505000Y32893000D03*
%TO.P,J3,4,Pin_4*%
%TO.N,SDA*%
X40005000Y32893000D03*
%TD*%
D15*
%TO.P,TP19,1,1*%
%TO.N,GND*%
X3175000Y38735000D03*
%TD*%
D21*
%TO.P,J1,S1,SHIELD*%
%TO.N,GND*%
X83230000Y25775000D03*
D22*
X87410000Y25775000D03*
D21*
X83230000Y34415000D03*
D22*
X87410000Y34415000D03*
%TD*%
D23*
%TO.P,U4,1,GND*%
%TO.N,GND*%
X31750000Y22860000D03*
%TO.P,U4,2,Video*%
%TO.N,unconnected-(U4-Video-Pad2)*%
X31750000Y20320000D03*
%TO.P,U4,3,A6.5m*%
%TO.N,unconnected-(U4-A6.5m-Pad3)*%
X31750000Y17780000D03*
%TO.P,U4,4,RSSI*%
%TO.N,Net-(U4-RSSI)*%
X31750000Y15240000D03*
%TO.P,U4,5,5V*%
%TO.N,+3V3*%
X31750000Y12700000D03*
%TO.P,U4,6,GND*%
%TO.N,GND*%
X31750000Y10160000D03*
%TO.P,U4,7,SCLK*%
%TO.N,Net-(U4-SCLK)*%
X31750000Y7620000D03*
%TO.P,U4,8,/SS*%
%TO.N,Net-(U4-{slash}SS)*%
X31750000Y5080000D03*
%TO.P,U4,9,MOSI*%
%TO.N,Net-(U4-MOSI)*%
X31750000Y2540000D03*
%TO.P,U4,10,GND*%
%TO.N,GND*%
X2750000Y7620000D03*
%TO.P,U4,12,GND*%
X2750000Y2540000D03*
%TD*%
D24*
%TO.P,LS1,N*%
%TO.N,Net-(Q3-D)*%
X19685000Y33615000D03*
%TO.P,LS1,P*%
%TO.N,+3V3*%
X19685000Y28615000D03*
%TD*%
D25*
%TO.P,TP1,1,1*%
%TO.N,{slash}RESET*%
X49530000Y4445000D03*
%TD*%
%TO.P,TP17,1,1*%
%TO.N,+BATT*%
X62865000Y32385000D03*
%TD*%
%TO.P,TP8,1,1*%
%TO.N,GND*%
X77870000Y34290000D03*
%TD*%
%TO.P,TP10,1,1*%
%TO.N,+3V3*%
X64135000Y26670000D03*
%TD*%
%TO.P,TP4,1,1*%
%TO.N,BOOT0*%
X53340000Y4445000D03*
%TD*%
%TO.P,TP16,1,1*%
%TO.N,Net-(Q3-G)*%
X26035000Y28575000D03*
%TD*%
%TO.P,TP5,1,1*%
%TO.N,RXD0*%
X80772000Y5334000D03*
%TD*%
%TO.P,TP13,1,1*%
%TO.N,SCL*%
X37465000Y30480000D03*
%TD*%
%TO.P,TP2,1,1*%
%TO.N,DTR*%
X55626000Y15240000D03*
%TD*%
%TO.P,TP3,1,1*%
%TO.N,RTS*%
X55626000Y13208000D03*
%TD*%
%TO.P,TP12,1,1*%
%TO.N,LED_CTRL*%
X5080000Y27431000D03*
%TD*%
%TO.P,TP18,1,1*%
%TO.N,Net-(Q4-D)*%
X58801000Y30607000D03*
%TD*%
%TO.P,TP9,1,1*%
%TO.N,VDD*%
X47625000Y24765000D03*
%TD*%
%TO.P,TP14,1,1*%
%TO.N,SDA*%
X40005000Y30480000D03*
%TD*%
%TO.P,TP15,1,1*%
%TO.N,{slash}EN_3V3*%
X48006000Y28448000D03*
%TD*%
%TO.P,TP6,1,1*%
%TO.N,TXD0*%
X82931000Y5334000D03*
%TD*%
%TO.P,TP7,1,1*%
%TO.N,VBUS*%
X81915000Y32385000D03*
%TD*%
%TO.P,TP11,1,1*%
%TO.N,BATT_ADC*%
X69850000Y24130000D03*
%TD*%
D26*
%TO.N,+3V3*%
X43371000Y5905000D03*
X57785000Y9271000D03*
X53975000Y9271000D03*
X35179000Y27432000D03*
X63246000Y27686000D03*
X65532000Y14351000D03*
X38100000Y24892000D03*
X36449000Y13208000D03*
X40005000Y24892000D03*
X59690000Y8890000D03*
X50165000Y9271000D03*
X63246000Y28448000D03*
X83058000Y23495000D03*
X37211000Y13208000D03*
X11303000Y28067000D03*
X47371000Y11303000D03*
%TO.N,GND*%
X47625000Y31687000D03*
X1905000Y9525000D03*
X12700000Y20320000D03*
X29210000Y20320000D03*
X5080000Y2540000D03*
X21590000Y1270000D03*
X27305000Y1270000D03*
X72263000Y32512000D03*
X10160000Y1270000D03*
X46990000Y29718000D03*
X29210000Y16510000D03*
X6350000Y25400000D03*
X43307000Y27432000D03*
X59309000Y11430000D03*
X4445000Y1270000D03*
X5080000Y6350000D03*
X3810000Y9525000D03*
X2540000Y25400000D03*
X17780000Y1270000D03*
X7620000Y10160000D03*
X54864000Y22098000D03*
X27940000Y20320000D03*
X17780000Y20320000D03*
X15240000Y7620000D03*
X61595000Y33782000D03*
X37338000Y17078000D03*
X10160000Y2540000D03*
X29210000Y22225000D03*
X25400000Y25400000D03*
X15875000Y1270000D03*
X1270000Y22225000D03*
X12700000Y5080000D03*
X37973000Y10160000D03*
X8255000Y1270000D03*
X25400000Y2540000D03*
X23495000Y25400000D03*
X10160000Y25400000D03*
X87630000Y23876000D03*
X1270000Y16510000D03*
X12700000Y10160000D03*
X25400000Y1270000D03*
X1270000Y12700000D03*
X15240000Y12700000D03*
X15240000Y17780000D03*
X25400000Y22860000D03*
X27305000Y25400000D03*
X62103000Y25527000D03*
X15240000Y2540000D03*
X20320000Y22860000D03*
X54102000Y29464000D03*
X20320000Y12700000D03*
X25400000Y12700000D03*
X13970000Y1270000D03*
X60960000Y34417000D03*
X61595000Y34417000D03*
X52070000Y9271000D03*
X7620000Y5080000D03*
X22860000Y10160000D03*
X17780000Y25400000D03*
X21590000Y25400000D03*
X2540000Y20320000D03*
X10160000Y22860000D03*
X29210000Y6985000D03*
X76835000Y27686000D03*
X23495000Y1270000D03*
X1016000Y8890000D03*
X13970000Y25400000D03*
X29210000Y25400000D03*
X48260000Y9271000D03*
X43497000Y22670000D03*
X49276000Y22733000D03*
X47752000Y1524000D03*
X19685000Y25400000D03*
X12700000Y15240000D03*
X22860000Y15240000D03*
X29210000Y24130000D03*
X60960000Y33782000D03*
X45720000Y1524000D03*
X20320000Y7620000D03*
X63373000Y23622000D03*
X2794000Y1016000D03*
X8255000Y25400000D03*
X31750000Y24765000D03*
X15875000Y25400000D03*
X29210000Y10795000D03*
X17780000Y15240000D03*
X22860000Y20320000D03*
X64262000Y18923000D03*
X72517000Y28575000D03*
X29210000Y3175000D03*
X20320000Y17780000D03*
X50927000Y13589000D03*
X27940000Y15240000D03*
X77870000Y35943000D03*
X5080000Y17780000D03*
X5080000Y8255000D03*
X87630000Y1651000D03*
X12065000Y25400000D03*
X64770000Y33528000D03*
X10160000Y7620000D03*
X19685000Y1270000D03*
X10160000Y12700000D03*
X4445000Y25400000D03*
X79883000Y23495000D03*
X20320000Y2540000D03*
X1270000Y20320000D03*
X63373000Y15240000D03*
X31623000Y1016000D03*
X25400000Y7620000D03*
X22860000Y5080000D03*
X6350000Y1270000D03*
X52070000Y25400000D03*
X68072000Y17653000D03*
X1016000Y34035000D03*
X27940000Y10160000D03*
X2540000Y10160000D03*
X5080000Y12700000D03*
X29210000Y5080000D03*
X2540000Y15240000D03*
X29210000Y1270000D03*
X1270000Y14605000D03*
X77870000Y32387000D03*
X35179000Y25908000D03*
X29210000Y8890000D03*
X7620000Y15240000D03*
X10160000Y17780000D03*
X15240000Y22860000D03*
X7620000Y20320000D03*
X1270000Y10795000D03*
X80772000Y26837000D03*
X5080000Y22860000D03*
X55880000Y9271000D03*
X75946000Y24009000D03*
X29210000Y14605000D03*
X12065000Y1270000D03*
X17780000Y5080000D03*
X29210000Y18415000D03*
X44450000Y31496000D03*
X25400000Y17780000D03*
X28448000Y30480000D03*
X29210000Y12700000D03*
X1270000Y24130000D03*
X1270000Y18415000D03*
X5080000Y4445000D03*
X27940000Y5080000D03*
X17780000Y10160000D03*
X30607000Y25400000D03*
%TO.N,{slash}RESET*%
X85090000Y22352000D03*
X67056000Y16129000D03*
X59436000Y5842000D03*
X48260000Y5715000D03*
%TO.N,BOOT0*%
X54737000Y3937000D03*
%TO.N,USER_BUTTON*%
X78105000Y22733000D03*
X66167000Y17399000D03*
%TO.N,VBUS*%
X80772000Y32514000D03*
X80772000Y27815000D03*
%TO.N,VDD*%
X51054000Y28080000D03*
X49276000Y24257000D03*
X52451000Y29210000D03*
X51689000Y29210000D03*
%TO.N,+BATT*%
X78105000Y46990000D03*
X79375000Y46990000D03*
X78105000Y48260000D03*
X63373000Y30861000D03*
X62738000Y30861000D03*
X78105000Y45720000D03*
X79375000Y45720000D03*
X62738000Y30226000D03*
X63373000Y30226000D03*
X79375000Y48260000D03*
%TO.N,Net-(Q4-D)*%
X57785000Y32385000D03*
X9525000Y46990000D03*
X57785000Y31623000D03*
X10795000Y48260000D03*
X9525000Y45720000D03*
X9525000Y48260000D03*
X10795000Y45720000D03*
X10795000Y46990000D03*
X57023000Y32385000D03*
X57023000Y31623000D03*
%TO.N,Net-(D8-K)*%
X42926000Y23495000D03*
X67437000Y25781000D03*
%TO.N,Net-(J1-CC2)*%
X79883000Y31750000D03*
X77915000Y26670000D03*
%TO.N,RTS*%
X54483000Y13970000D03*
%TO.N,DTR*%
X54483000Y15240000D03*
%TO.N,RXD0*%
X64008000Y9271000D03*
X82550000Y1651000D03*
%TO.N,TXD0*%
X65786000Y9271000D03*
X83820000Y1651000D03*
%TO.N,USER_LED*%
X81280000Y1651000D03*
X41910000Y8255000D03*
%TO.N,SCLK*%
X60579000Y1778000D03*
X37465000Y7523000D03*
%TO.N,{slash}SS*%
X37465000Y4983000D03*
X85090000Y1651000D03*
%TO.N,MOSI*%
X37465000Y2443000D03*
X78740000Y1651000D03*
%TO.N,RSSI*%
X37465000Y15240000D03*
X76708000Y22733000D03*
%TO.N,BATT_ADC*%
X79184500Y22669500D03*
X69850000Y25527000D03*
%TO.N,Net-(Q3-G)*%
X24765000Y28575000D03*
%TO.N,BUZZ_CTRL*%
X73640000Y22733000D03*
X28575000Y28575000D03*
%TO.N,LED_CTRL*%
X3429000Y27431000D03*
X77470000Y1651000D03*
%TO.N,SCL*%
X74676000Y22733000D03*
X38989000Y20701000D03*
%TO.N,SDA*%
X75565000Y22733000D03*
X40894000Y19939000D03*
%TO.N,Net-(U1-IO16)*%
X63373000Y8890000D03*
X73660000Y2032000D03*
%TO.N,{slash}EN_3V3*%
X48006000Y29718000D03*
%TO.N,Net-(D4-K)*%
X51054000Y30099000D03*
X50419000Y30099000D03*
%TD*%
D27*
%TO.N,+3V3*%
X64135000Y26670000D02*
X64135000Y26797000D01*
X64135000Y26797000D02*
X63246000Y27686000D01*
%TO.N,GND*%
X77870000Y34290000D02*
X77870000Y35943000D01*
%TO.N,{slash}RESET*%
X50927000Y5842000D02*
X59436000Y5842000D01*
X83566000Y22352000D02*
X85090000Y22352000D01*
X77343000Y16129000D02*
X83566000Y22352000D01*
X49530000Y4445000D02*
X48260000Y5715000D01*
X49530000Y4445000D02*
X50927000Y5842000D01*
X67056000Y16129000D02*
X77343000Y16129000D01*
%TO.N,BOOT0*%
X53340000Y4445000D02*
X54229000Y4445000D01*
X54229000Y4445000D02*
X54737000Y3937000D01*
%TO.N,USER_BUTTON*%
X78105000Y19812000D02*
X76581000Y18288000D01*
X76581000Y18288000D02*
X67056000Y18288000D01*
X67056000Y18288000D02*
X66167000Y17399000D01*
X78105000Y22733000D02*
X78105000Y19812000D01*
%TO.N,VBUS*%
X80774000Y32512000D02*
X80772000Y32514000D01*
X81915000Y32385000D02*
X81788000Y32512000D01*
X81788000Y32512000D02*
X80774000Y32512000D01*
D28*
%TO.N,VDD*%
X49276000Y26289000D02*
X51054000Y28067000D01*
X51054000Y28067000D02*
X51054000Y28080000D01*
X49276000Y24257000D02*
X49276000Y26289000D01*
D27*
X48133000Y24257000D02*
X47625000Y24765000D01*
X49276000Y24257000D02*
X48133000Y24257000D01*
%TO.N,+BATT*%
X62865000Y32385000D02*
X62865000Y32131000D01*
X62738000Y32004000D02*
X62738000Y30861000D01*
X62865000Y32131000D02*
X62738000Y32004000D01*
%TO.N,Net-(Q4-D)*%
X58801000Y30734000D02*
X58674000Y30734000D01*
X58674000Y30734000D02*
X57785000Y31623000D01*
%TO.N,Net-(D8-K)*%
X51435000Y24638000D02*
X66294000Y24638000D01*
X50292000Y23495000D02*
X51435000Y24638000D01*
X66294000Y24638000D02*
X67437000Y25781000D01*
X42926000Y23495000D02*
X50292000Y23495000D01*
%TO.N,Net-(J1-CC2)*%
X77915000Y26670000D02*
X78740000Y26670000D01*
X79883000Y27813000D02*
X79883000Y31750000D01*
X78740000Y26670000D02*
X79883000Y27813000D01*
%TO.N,RTS*%
X55626000Y13208000D02*
X54864000Y13970000D01*
X54864000Y13970000D02*
X54483000Y13970000D01*
%TO.N,DTR*%
X55626000Y15240000D02*
X54483000Y15240000D01*
%TO.N,RXD0*%
X82550000Y1651000D02*
X82550000Y3556000D01*
X64008000Y9271000D02*
X64897000Y8382000D01*
X64897000Y8382000D02*
X77724000Y8382000D01*
X77724000Y8382000D02*
X80772000Y5334000D01*
X82550000Y3556000D02*
X80772000Y5334000D01*
%TO.N,TXD0*%
X83820000Y4445000D02*
X82931000Y5334000D01*
X66040000Y9017000D02*
X79248000Y9017000D01*
X79248000Y9017000D02*
X82931000Y5334000D01*
X83820000Y1651000D02*
X83820000Y4445000D01*
X65786000Y9271000D02*
X66040000Y9017000D01*
%TO.N,USER_LED*%
X79279081Y10160000D02*
X84505800Y4933281D01*
X41910000Y8255000D02*
X45085000Y8255000D01*
X84505800Y1510616D02*
X84011184Y1016000D01*
X45085000Y8255000D02*
X46990000Y10160000D01*
X84505800Y4933281D02*
X84505800Y1510616D01*
X81915000Y1016000D02*
X81280000Y1651000D01*
X46990000Y10160000D02*
X79279081Y10160000D01*
X84011184Y1016000D02*
X81915000Y1016000D01*
%TO.N,SCLK*%
X37728026Y5618000D02*
X37719000Y5618000D01*
X59944000Y2413000D02*
X40933026Y2413000D01*
X37719000Y5618000D02*
X37465000Y5872000D01*
X60579000Y1778000D02*
X59944000Y2413000D01*
X40933026Y2413000D02*
X37728026Y5618000D01*
X37465000Y5872000D02*
X37465000Y7523000D01*
%TO.N,{slash}SS*%
X85090000Y889000D02*
X84582000Y381000D01*
X36880800Y1757200D02*
X36880800Y4398800D01*
X85090000Y1651000D02*
X85090000Y889000D01*
X36880800Y4398800D02*
X37465000Y4983000D01*
X84582000Y381000D02*
X38257000Y381000D01*
X38257000Y381000D02*
X36880800Y1757200D01*
%TO.N,MOSI*%
X78740000Y1651000D02*
X77978000Y889000D01*
X39019000Y889000D02*
X37465000Y2443000D01*
X77978000Y889000D02*
X39019000Y889000D01*
D28*
%TO.N,RSSI*%
X65913000Y18923000D02*
X65201800Y18211800D01*
X41148000Y18923000D02*
X37465000Y15240000D01*
X76708000Y21758836D02*
X73872164Y18923000D01*
X65201800Y18211800D02*
X63068200Y18211800D01*
X62357000Y18923000D02*
X41148000Y18923000D01*
X76708000Y22733000D02*
X76708000Y21758836D01*
X63068200Y18211800D02*
X62357000Y18923000D01*
X73872164Y18923000D02*
X65913000Y18923000D01*
D27*
%TO.N,BATT_ADC*%
X71056500Y25527000D02*
X69850000Y25527000D01*
X79184500Y22669500D02*
X78486000Y23368000D01*
X69850000Y24130000D02*
X69850000Y25527000D01*
X78486000Y23368000D02*
X73215500Y23368000D01*
X73215500Y23368000D02*
X71056500Y25527000D01*
%TO.N,Net-(Q3-G)*%
X26035000Y28575000D02*
X24765000Y28575000D01*
%TO.N,BUZZ_CTRL*%
X31126578Y28575000D02*
X28575000Y28575000D01*
X73640000Y22733000D02*
X72370000Y21463000D01*
X72370000Y21463000D02*
X38238578Y21463000D01*
X38238578Y21463000D02*
X31126578Y28575000D01*
%TO.N,LED_CTRL*%
X32004000Y26670000D02*
X5841000Y26670000D01*
X35560000Y10795000D02*
X35560000Y23114000D01*
X35560000Y23114000D02*
X32004000Y26670000D01*
X67818000Y4699000D02*
X65532000Y6985000D01*
X3429000Y27431000D02*
X5207000Y27431000D01*
X39370000Y6985000D02*
X35560000Y10795000D01*
X65532000Y6985000D02*
X39370000Y6985000D01*
X68707000Y1397000D02*
X67818000Y2286000D01*
X77470000Y1651000D02*
X77216000Y1397000D01*
X77216000Y1397000D02*
X68707000Y1397000D01*
X5841000Y26670000D02*
X5080000Y27431000D01*
X67818000Y2286000D02*
X67818000Y4699000D01*
%TO.N,SCL*%
X42418000Y20447000D02*
X42164000Y20701000D01*
X37465000Y32853000D02*
X37505000Y32893000D01*
X74676000Y22733000D02*
X72390000Y20447000D01*
X42164000Y20701000D02*
X38989000Y20701000D01*
X37465000Y30480000D02*
X37465000Y32853000D01*
X72390000Y20447000D02*
X42418000Y20447000D01*
%TO.N,SDA*%
X73152000Y19939000D02*
X40894000Y19939000D01*
X75565000Y22352000D02*
X73152000Y19939000D01*
X40005000Y30480000D02*
X40005000Y32893000D01*
X75565000Y22733000D02*
X75565000Y22352000D01*
%TO.N,Net-(U1-IO16)*%
X69088000Y2032000D02*
X73660000Y2032000D01*
X63373000Y8890000D02*
X64643000Y7620000D01*
X64643000Y7620000D02*
X65659000Y7620000D01*
X68326000Y4953000D02*
X68326000Y2794000D01*
X68326000Y2794000D02*
X69088000Y2032000D01*
X65659000Y7620000D02*
X68326000Y4953000D01*
%TO.N,{slash}EN_3V3*%
X48006000Y28194000D02*
X48006000Y29718000D01*
%TD*%
%TA.AperFunction,Conductor*%
%TO.N,GND*%
G36*
X31742023Y26015742D02*
G01*
X31824102Y25960898D01*
X33368709Y24416291D01*
X33423553Y24334212D01*
X33442811Y24237393D01*
X33423553Y24140574D01*
X33368709Y24058495D01*
X33286630Y24003651D01*
X33189811Y23984393D01*
X33092992Y24003651D01*
X33082889Y24008097D01*
X32899068Y24093814D01*
X32899070Y24093814D01*
X32677996Y24153050D01*
X32677992Y24153051D01*
X32507113Y24168000D01*
X32004000Y24168000D01*
X32004000Y23137504D01*
X31930948Y23194363D01*
X31812576Y23235000D01*
X31718927Y23235000D01*
X31626554Y23219586D01*
X31516486Y23160019D01*
X31496000Y23137766D01*
X31496000Y24168000D01*
X30992886Y24168000D01*
X30822007Y24153051D01*
X30822003Y24153050D01*
X30600932Y24093814D01*
X30393500Y23997087D01*
X30206025Y23865816D01*
X30206019Y23865811D01*
X30044189Y23703981D01*
X30044184Y23703975D01*
X29912913Y23516500D01*
X29816186Y23309068D01*
X29763917Y23114001D01*
X29763918Y23114000D01*
X31474122Y23114000D01*
X31431722Y23067941D01*
X31381449Y22953330D01*
X31371114Y22828605D01*
X31401837Y22707281D01*
X31468008Y22606000D01*
X29763918Y22606000D01*
X29816186Y22410933D01*
X29912913Y22203501D01*
X30044184Y22016026D01*
X30044189Y22016020D01*
X30206019Y21854190D01*
X30206025Y21854185D01*
X30395862Y21721260D01*
X30464126Y21649951D01*
X30499904Y21557947D01*
X30497751Y21459255D01*
X30457994Y21368900D01*
X30403215Y21312116D01*
X30250617Y21196880D01*
X30103107Y21035070D01*
X29987832Y20848895D01*
X29987829Y20848888D01*
X29908735Y20644723D01*
X29908733Y20644717D01*
X29868500Y20429486D01*
X29868500Y20210515D01*
X29908733Y19995284D01*
X29908735Y19995278D01*
X29987829Y19791113D01*
X29987832Y19791106D01*
X30103107Y19604931D01*
X30235721Y19459461D01*
X30250618Y19443120D01*
X30425356Y19311165D01*
X30495021Y19276476D01*
X30573105Y19216080D01*
X30622133Y19130400D01*
X30634641Y19032480D01*
X30608724Y18937227D01*
X30548328Y18859143D01*
X30495022Y18823526D01*
X30425356Y18788835D01*
X30425352Y18788833D01*
X30250616Y18656879D01*
X30103107Y18495070D01*
X29987832Y18308895D01*
X29987829Y18308888D01*
X29908735Y18104723D01*
X29908733Y18104717D01*
X29868500Y17889486D01*
X29868500Y17670515D01*
X29908733Y17455284D01*
X29908735Y17455278D01*
X29987829Y17251113D01*
X29987832Y17251106D01*
X30103107Y17064931D01*
X30235721Y16919461D01*
X30250618Y16903120D01*
X30425356Y16771165D01*
X30495021Y16736476D01*
X30573105Y16676080D01*
X30622133Y16590400D01*
X30634641Y16492480D01*
X30608724Y16397227D01*
X30548328Y16319143D01*
X30495022Y16283526D01*
X30425356Y16248835D01*
X30425352Y16248833D01*
X30250616Y16116879D01*
X30103107Y15955070D01*
X29987832Y15768895D01*
X29987829Y15768888D01*
X29908735Y15564723D01*
X29908733Y15564717D01*
X29868500Y15349486D01*
X29868500Y15130515D01*
X29908733Y14915284D01*
X29908735Y14915278D01*
X29987829Y14711113D01*
X29987832Y14711106D01*
X30103107Y14524931D01*
X30235721Y14379461D01*
X30250618Y14363120D01*
X30425356Y14231165D01*
X30495021Y14196476D01*
X30573105Y14136080D01*
X30622133Y14050400D01*
X30634641Y13952480D01*
X30608724Y13857227D01*
X30548328Y13779143D01*
X30495022Y13743526D01*
X30425356Y13708835D01*
X30425352Y13708833D01*
X30250616Y13576879D01*
X30103107Y13415070D01*
X29987832Y13228895D01*
X29987829Y13228888D01*
X29908735Y13024723D01*
X29908733Y13024717D01*
X29868500Y12809486D01*
X29868500Y12590515D01*
X29908733Y12375284D01*
X29908735Y12375278D01*
X29987829Y12171113D01*
X29987832Y12171106D01*
X30103107Y11984931D01*
X30250616Y11823122D01*
X30250618Y11823120D01*
X30403214Y11707886D01*
X30468871Y11634171D01*
X30501322Y11540941D01*
X30495624Y11442390D01*
X30452647Y11353521D01*
X30395863Y11298742D01*
X30206028Y11165818D01*
X30206019Y11165811D01*
X30044189Y11003981D01*
X30044184Y11003975D01*
X29912913Y10816500D01*
X29816186Y10609068D01*
X29763917Y10414001D01*
X29763918Y10414000D01*
X31474122Y10414000D01*
X31431722Y10367941D01*
X31381449Y10253330D01*
X31371114Y10128605D01*
X31401837Y10007281D01*
X31468008Y9906000D01*
X29763918Y9906000D01*
X29816186Y9710933D01*
X29912913Y9503501D01*
X30044184Y9316026D01*
X30044189Y9316020D01*
X30206019Y9154190D01*
X30206025Y9154185D01*
X30395862Y9021260D01*
X30464126Y8949951D01*
X30499904Y8857947D01*
X30497751Y8759255D01*
X30457994Y8668900D01*
X30403215Y8612116D01*
X30250617Y8496880D01*
X30103107Y8335070D01*
X29987832Y8148895D01*
X29987829Y8148888D01*
X29908735Y7944723D01*
X29908733Y7944717D01*
X29868500Y7729486D01*
X29868500Y7510515D01*
X29908733Y7295284D01*
X29908735Y7295278D01*
X29987829Y7091113D01*
X29987832Y7091106D01*
X30103107Y6904931D01*
X30250513Y6743235D01*
X30250618Y6743120D01*
X30425356Y6611165D01*
X30495021Y6576476D01*
X30573105Y6516080D01*
X30622133Y6430400D01*
X30634641Y6332480D01*
X30608724Y6237227D01*
X30548328Y6159143D01*
X30495022Y6123526D01*
X30425356Y6088835D01*
X30425352Y6088833D01*
X30250616Y5956879D01*
X30103107Y5795070D01*
X29987832Y5608895D01*
X29987829Y5608888D01*
X29908735Y5404723D01*
X29908733Y5404717D01*
X29868500Y5189486D01*
X29868500Y4970515D01*
X29908733Y4755284D01*
X29908735Y4755278D01*
X29987829Y4551113D01*
X29987832Y4551106D01*
X30103107Y4364931D01*
X30235721Y4219461D01*
X30250618Y4203120D01*
X30425356Y4071165D01*
X30495021Y4036476D01*
X30573105Y3976080D01*
X30622133Y3890400D01*
X30634641Y3792480D01*
X30608724Y3697227D01*
X30548328Y3619143D01*
X30495022Y3583526D01*
X30425356Y3548835D01*
X30425352Y3548833D01*
X30250616Y3416879D01*
X30103107Y3255070D01*
X29987832Y3068895D01*
X29987829Y3068888D01*
X29908735Y2864723D01*
X29908733Y2864717D01*
X29868500Y2649486D01*
X29868500Y2430515D01*
X29908733Y2215284D01*
X29908735Y2215278D01*
X29987829Y2011113D01*
X29987832Y2011106D01*
X30103107Y1824931D01*
X30250616Y1663122D01*
X30250618Y1663120D01*
X30425356Y1531165D01*
X30621364Y1433564D01*
X30831970Y1373641D01*
X30995371Y1358500D01*
X30995374Y1358500D01*
X31862704Y1358500D01*
X31959523Y1339242D01*
X32041602Y1284398D01*
X32096446Y1202319D01*
X32115704Y1105500D01*
X32096446Y1008681D01*
X32041602Y926602D01*
X31824102Y709102D01*
X31742023Y654258D01*
X31645204Y635000D01*
X2644796Y635000D01*
X2547977Y654258D01*
X2465898Y709102D01*
X2374898Y800102D01*
X2320054Y882181D01*
X2300796Y979000D01*
X2320054Y1075819D01*
X2374898Y1157898D01*
X2456977Y1212742D01*
X2481649Y1217650D01*
X2496000Y1232000D01*
X2496000Y2262497D01*
X2569052Y2205637D01*
X2687424Y2165000D01*
X2781073Y2165000D01*
X2873446Y2180414D01*
X2983514Y2239981D01*
X3004000Y2262235D01*
X3004000Y1232000D01*
X3507097Y1232000D01*
X3507113Y1232001D01*
X3677992Y1246950D01*
X3677996Y1246951D01*
X3899067Y1306187D01*
X4106499Y1402914D01*
X4293974Y1534185D01*
X4293980Y1534190D01*
X4455810Y1696020D01*
X4455815Y1696026D01*
X4587086Y1883501D01*
X4683813Y2090933D01*
X4736082Y2286000D01*
X3025878Y2286000D01*
X3068278Y2332059D01*
X3118551Y2446670D01*
X3128886Y2571395D01*
X3098163Y2692719D01*
X3031992Y2794000D01*
X4736082Y2794000D01*
X4736082Y2794001D01*
X4683813Y2989068D01*
X4587086Y3196500D01*
X4455815Y3383975D01*
X4455810Y3383981D01*
X4293980Y3545811D01*
X4293974Y3545816D01*
X4106499Y3677087D01*
X3899067Y3773814D01*
X3677996Y3833050D01*
X3677992Y3833051D01*
X3507113Y3848000D01*
X3004000Y3848000D01*
X3004000Y2817504D01*
X2930948Y2874363D01*
X2812576Y2915000D01*
X2718927Y2915000D01*
X2626554Y2899586D01*
X2516486Y2840019D01*
X2496000Y2817766D01*
X2496000Y3848000D01*
X1992886Y3848000D01*
X1822007Y3833051D01*
X1822003Y3833050D01*
X1600932Y3773814D01*
X1393500Y3677087D01*
X1206025Y3545816D01*
X1206019Y3545811D01*
X1066898Y3406689D01*
X984819Y3351845D01*
X888000Y3332587D01*
X791181Y3351845D01*
X709102Y3406689D01*
X654258Y3488768D01*
X635000Y3585587D01*
X635000Y6574413D01*
X654258Y6671232D01*
X709102Y6753311D01*
X791181Y6808155D01*
X888000Y6827413D01*
X984819Y6808155D01*
X1066898Y6753311D01*
X1206019Y6614190D01*
X1206025Y6614185D01*
X1393500Y6482914D01*
X1600932Y6386187D01*
X1822003Y6326951D01*
X1822007Y6326950D01*
X1992886Y6312001D01*
X1992903Y6312000D01*
X2496000Y6312000D01*
X2496000Y7342497D01*
X2569052Y7285637D01*
X2687424Y7245000D01*
X2781073Y7245000D01*
X2873446Y7260414D01*
X2983514Y7319981D01*
X3004000Y7342235D01*
X3004000Y6312000D01*
X3507097Y6312000D01*
X3507113Y6312001D01*
X3677992Y6326950D01*
X3677996Y6326951D01*
X3899067Y6386187D01*
X4106499Y6482914D01*
X4293974Y6614185D01*
X4293980Y6614190D01*
X4455810Y6776020D01*
X4455815Y6776026D01*
X4587086Y6963501D01*
X4683813Y7170933D01*
X4736082Y7366000D01*
X3025878Y7366000D01*
X3068278Y7412059D01*
X3118551Y7526670D01*
X3128886Y7651395D01*
X3098163Y7772719D01*
X3031992Y7874000D01*
X4736082Y7874000D01*
X4736082Y7874001D01*
X4683813Y8069068D01*
X4587086Y8276500D01*
X4455815Y8463975D01*
X4455810Y8463981D01*
X4293980Y8625811D01*
X4293974Y8625816D01*
X4106499Y8757087D01*
X3899067Y8853814D01*
X3677996Y8913050D01*
X3677992Y8913051D01*
X3507113Y8928000D01*
X3004000Y8928000D01*
X3004000Y7897504D01*
X2930948Y7954363D01*
X2812576Y7995000D01*
X2718927Y7995000D01*
X2626554Y7979586D01*
X2516486Y7920019D01*
X2496000Y7897766D01*
X2496000Y8928000D01*
X1992886Y8928000D01*
X1822007Y8913051D01*
X1822003Y8913050D01*
X1600932Y8853814D01*
X1393500Y8757087D01*
X1206025Y8625816D01*
X1206019Y8625811D01*
X1066898Y8486689D01*
X984819Y8431845D01*
X888000Y8412587D01*
X791181Y8431845D01*
X709102Y8486689D01*
X654258Y8568768D01*
X635000Y8665587D01*
X635000Y24025204D01*
X654258Y24122023D01*
X709102Y24204102D01*
X2465898Y25960898D01*
X2547977Y26015742D01*
X2644796Y26035000D01*
X31645204Y26035000D01*
X31742023Y26015742D01*
G37*
%TD.AperFunction*%
%TD*%
%TA.AperFunction,Conductor*%
%TO.N,Net-(Q4-D)*%
G36*
X51450931Y48874998D02*
G01*
X51471905Y48858095D01*
X58383095Y41946905D01*
X58417121Y41884593D01*
X58420000Y41857810D01*
X58420000Y31802190D01*
X58399998Y31734069D01*
X58383095Y31713095D01*
X57821905Y31151905D01*
X57759593Y31117879D01*
X57732810Y31115000D01*
X56567190Y31115000D01*
X56499069Y31135002D01*
X56478095Y31151905D01*
X55916905Y31713095D01*
X55882879Y31775407D01*
X55880000Y31802190D01*
X55880000Y40005000D01*
X55879999Y40005002D01*
X50800001Y45085000D01*
X50800000Y45085000D01*
X9577190Y45085000D01*
X9509069Y45105002D01*
X9488095Y45121905D01*
X8926905Y45683095D01*
X8892879Y45745407D01*
X8890000Y45772190D01*
X8890000Y48207810D01*
X8910002Y48275931D01*
X8926905Y48296905D01*
X9488095Y48858095D01*
X9550407Y48892121D01*
X9577190Y48895000D01*
X51382810Y48895000D01*
X51450931Y48874998D01*
G37*
%TD.AperFunction*%
%TD*%
%TA.AperFunction,Conductor*%
%TO.N,+BATT*%
G36*
X79390931Y48874998D02*
G01*
X79411905Y48858095D01*
X79973095Y48296905D01*
X80007121Y48234593D01*
X80010000Y48207810D01*
X80010000Y45772190D01*
X79989998Y45704069D01*
X79973095Y45683095D01*
X79411905Y45121905D01*
X79349593Y45087879D01*
X79322810Y45085000D01*
X69214998Y45085000D01*
X64135000Y40005002D01*
X64135000Y30278190D01*
X64114998Y30210069D01*
X64098095Y30189095D01*
X63790905Y29881905D01*
X63728593Y29847879D01*
X63701810Y29845000D01*
X62663190Y29845000D01*
X62595069Y29865002D01*
X62574095Y29881905D01*
X62266905Y30189095D01*
X62232879Y30251407D01*
X62230000Y30278190D01*
X62230000Y32385000D01*
X62230001Y32385356D01*
X62251534Y40005002D01*
X62256771Y41858163D01*
X62276965Y41926225D01*
X62293496Y41946721D01*
X69178066Y48857923D01*
X69240312Y48892069D01*
X69267333Y48895000D01*
X79322810Y48895000D01*
X79390931Y48874998D01*
G37*
%TD.AperFunction*%
%TD*%
M02*
