%TF.GenerationSoftware,KiCad,Pcbnew,8.0.6-8.0.6-0~ubuntu24.04.1*%
%TF.CreationDate,2024-11-13T00:59:24+01:00*%
%TF.ProjectId,TinyTimer_V01,54696e79-5469-46d6-9572-5f5630312e6b,rev?*%
%TF.SameCoordinates,Original*%
%TF.FileFunction,Copper,L2,Inr*%
%TF.FilePolarity,Positive*%
%FSLAX46Y46*%
G04 Gerber Fmt 4.6, Leading zero omitted, Abs format (unit mm)*
G04 Created by KiCad (PCBNEW 8.0.6-8.0.6-0~ubuntu24.04.1) date 2024-11-13 00:59:24*
%MOMM*%
%LPD*%
G01*
G04 APERTURE LIST*
G04 Aperture macros list*
%AMRoundRect*
0 Rectangle with rounded corners*
0 $1 Rounding radius*
0 $2 $3 $4 $5 $6 $7 $8 $9 X,Y pos of 4 corners*
0 Add a 4 corners polygon primitive as box body*
4,1,4,$2,$3,$4,$5,$6,$7,$8,$9,$2,$3,0*
0 Add four circle primitives for the rounded corners*
1,1,$1+$1,$2,$3*
1,1,$1+$1,$4,$5*
1,1,$1+$1,$6,$7*
1,1,$1+$1,$8,$9*
0 Add four rect primitives between the rounded corners*
20,1,$1+$1,$2,$3,$4,$5,0*
20,1,$1+$1,$4,$5,$6,$7,0*
20,1,$1+$1,$6,$7,$8,$9,0*
20,1,$1+$1,$8,$9,$2,$3,0*%
G04 Aperture macros list end*
%ADD10C,0.254000*%
%TA.AperFunction,NonConductor*%
%ADD11C,0.254000*%
%TD*%
%TA.AperFunction,ComponentPad*%
%ADD12C,3.000000*%
%TD*%
%TA.AperFunction,HeatsinkPad*%
%ADD13C,0.600000*%
%TD*%
%TA.AperFunction,ComponentPad*%
%ADD14RoundRect,0.250000X1.550000X-0.650000X1.550000X0.650000X-1.550000X0.650000X-1.550000X-0.650000X0*%
%TD*%
%TA.AperFunction,ComponentPad*%
%ADD15O,3.600000X1.800000*%
%TD*%
%TA.AperFunction,ComponentPad*%
%ADD16RoundRect,0.250000X-0.600000X-0.725000X0.600000X-0.725000X0.600000X0.725000X-0.600000X0.725000X0*%
%TD*%
%TA.AperFunction,ComponentPad*%
%ADD17O,1.700000X1.950000*%
%TD*%
%TA.AperFunction,ComponentPad*%
%ADD18O,2.100000X1.000000*%
%TD*%
%TA.AperFunction,ComponentPad*%
%ADD19O,1.600000X1.000000*%
%TD*%
%TA.AperFunction,ComponentPad*%
%ADD20O,3.000000X1.600000*%
%TD*%
%TA.AperFunction,ComponentPad*%
%ADD21C,1.408000*%
%TD*%
%TA.AperFunction,ViaPad*%
%ADD22C,0.508000*%
%TD*%
G04 APERTURE END LIST*
D10*
D11*
X2503714Y56723426D02*
X2552095Y56771807D01*
X2552095Y56771807D02*
X2648857Y56820188D01*
X2648857Y56820188D02*
X2890762Y56820188D01*
X2890762Y56820188D02*
X2987524Y56771807D01*
X2987524Y56771807D02*
X3035905Y56723426D01*
X3035905Y56723426D02*
X3084286Y56626664D01*
X3084286Y56626664D02*
X3084286Y56529902D01*
X3084286Y56529902D02*
X3035905Y56384759D01*
X3035905Y56384759D02*
X2455333Y55804188D01*
X2455333Y55804188D02*
X3084286Y55804188D01*
D12*
%TO.N,GND*%
%TO.C,TP20*%
X85725000Y39370000D03*
%TD*%
D13*
%TO.N,GND*%
%TO.C,U1*%
X80970000Y14965000D03*
X79570000Y14965000D03*
X81670000Y14265000D03*
X80270000Y14265000D03*
X78870000Y14265000D03*
X80970000Y13565000D03*
X79570000Y13565000D03*
X81670000Y12865000D03*
X80270000Y12865000D03*
X78870000Y12865000D03*
X80970000Y12165000D03*
X79570000Y12165000D03*
%TD*%
D14*
%TO.N,Net-(D4-K)*%
%TO.C,SW4*%
X43180000Y12065000D03*
D15*
%TO.N,VDD*%
X43180000Y15875000D03*
%TD*%
D16*
%TO.N,GND*%
%TO.C,J3*%
X32505000Y32893000D03*
D17*
%TO.N,+3V3*%
X35005000Y32893000D03*
%TO.N,SCL*%
X37505000Y32893000D03*
%TO.N,SDA*%
X40005000Y32893000D03*
%TD*%
D12*
%TO.N,GND*%
%TO.C,TP19*%
X3175000Y38735000D03*
%TD*%
D18*
%TO.N,GND*%
%TO.C,J1*%
X83230000Y25775000D03*
D19*
X87410000Y25775000D03*
D18*
X83230000Y34415000D03*
D19*
X87410000Y34415000D03*
%TD*%
D20*
%TO.N,GND*%
%TO.C,U4*%
X31750000Y22860000D03*
%TO.N,unconnected-(U4-Video-Pad2)*%
X31750000Y20320000D03*
%TO.N,unconnected-(U4-A6.5m-Pad3)*%
X31750000Y17780000D03*
%TO.N,Net-(U4-RSSI)*%
X31750000Y15240000D03*
%TO.N,+3V3*%
X31750000Y12700000D03*
%TO.N,GND*%
X31750000Y10160000D03*
%TO.N,Net-(U4-SCLK)*%
X31750000Y7620000D03*
%TO.N,Net-(U4-{slash}SS)*%
X31750000Y5080000D03*
%TO.N,Net-(U4-MOSI)*%
X31750000Y2540000D03*
%TO.N,GND*%
X2750000Y7620000D03*
X2750000Y2540000D03*
%TD*%
D21*
%TO.N,Net-(Q3-D)*%
%TO.C,LS1*%
X19685000Y33615000D03*
%TO.N,+3V3*%
X19685000Y28615000D03*
%TD*%
D22*
%TO.N,+3V3*%
X43371000Y5905000D03*
X57785000Y9271000D03*
X53975000Y9271000D03*
X35179000Y27432000D03*
X63246000Y27686000D03*
X65532000Y14351000D03*
X38100000Y24892000D03*
X36449000Y13208000D03*
X40005000Y24892000D03*
X59690000Y8890000D03*
X50165000Y9271000D03*
X63246000Y28448000D03*
X83058000Y23495000D03*
X37211000Y13208000D03*
X11303000Y28067000D03*
X47371000Y11303000D03*
%TO.N,GND*%
X47625000Y31687000D03*
X1905000Y9525000D03*
X12700000Y20320000D03*
X29210000Y20320000D03*
X5080000Y2540000D03*
X21590000Y1270000D03*
X27305000Y1270000D03*
X72263000Y32512000D03*
X10160000Y1270000D03*
X46990000Y29718000D03*
X29210000Y16510000D03*
X6350000Y25400000D03*
X43307000Y27432000D03*
X59309000Y11430000D03*
X4445000Y1270000D03*
X5080000Y6350000D03*
X3810000Y9525000D03*
X2540000Y25400000D03*
X17780000Y1270000D03*
X7620000Y10160000D03*
X54864000Y22098000D03*
X27940000Y20320000D03*
X17780000Y20320000D03*
X15240000Y7620000D03*
X61595000Y33782000D03*
X37338000Y17078000D03*
X10160000Y2540000D03*
X29210000Y22225000D03*
X25400000Y25400000D03*
X15875000Y1270000D03*
X1270000Y22225000D03*
X12700000Y5080000D03*
X37973000Y10160000D03*
X8255000Y1270000D03*
X25400000Y2540000D03*
X23495000Y25400000D03*
X10160000Y25400000D03*
X87630000Y23876000D03*
X1270000Y16510000D03*
X12700000Y10160000D03*
X25400000Y1270000D03*
X1270000Y12700000D03*
X15240000Y12700000D03*
X15240000Y17780000D03*
X25400000Y22860000D03*
X27305000Y25400000D03*
X62103000Y25527000D03*
X15240000Y2540000D03*
X20320000Y22860000D03*
X54102000Y29464000D03*
X20320000Y12700000D03*
X25400000Y12700000D03*
X13970000Y1270000D03*
X60960000Y34417000D03*
X61595000Y34417000D03*
X52070000Y9271000D03*
X7620000Y5080000D03*
X22860000Y10160000D03*
X17780000Y25400000D03*
X21590000Y25400000D03*
X2540000Y20320000D03*
X10160000Y22860000D03*
X29210000Y6985000D03*
X76835000Y27686000D03*
X23495000Y1270000D03*
X1016000Y8890000D03*
X13970000Y25400000D03*
X29210000Y25400000D03*
X48260000Y9271000D03*
X43497000Y22670000D03*
X49276000Y22733000D03*
X47752000Y1524000D03*
X19685000Y25400000D03*
X12700000Y15240000D03*
X22860000Y15240000D03*
X29210000Y24130000D03*
X60960000Y33782000D03*
X45720000Y1524000D03*
X20320000Y7620000D03*
X63373000Y23622000D03*
X2794000Y1016000D03*
X8255000Y25400000D03*
X31750000Y24765000D03*
X15875000Y25400000D03*
X29210000Y10795000D03*
X17780000Y15240000D03*
X22860000Y20320000D03*
X64262000Y18923000D03*
X72517000Y28575000D03*
X29210000Y3175000D03*
X20320000Y17780000D03*
X50927000Y13589000D03*
X27940000Y15240000D03*
X77870000Y35943000D03*
X5080000Y17780000D03*
X5080000Y8255000D03*
X87630000Y1651000D03*
X12065000Y25400000D03*
X64770000Y33528000D03*
X10160000Y7620000D03*
X19685000Y1270000D03*
X10160000Y12700000D03*
X4445000Y25400000D03*
X79883000Y23495000D03*
X20320000Y2540000D03*
X1270000Y20320000D03*
X63373000Y15240000D03*
X31623000Y1016000D03*
X25400000Y7620000D03*
X22860000Y5080000D03*
X6350000Y1270000D03*
X52070000Y25400000D03*
X68072000Y17653000D03*
X1016000Y34035000D03*
X27940000Y10160000D03*
X2540000Y10160000D03*
X5080000Y12700000D03*
X29210000Y5080000D03*
X2540000Y15240000D03*
X29210000Y1270000D03*
X1270000Y14605000D03*
X77870000Y32387000D03*
X35179000Y25908000D03*
X29210000Y8890000D03*
X7620000Y15240000D03*
X10160000Y17780000D03*
X15240000Y22860000D03*
X7620000Y20320000D03*
X1270000Y10795000D03*
X80772000Y26837000D03*
X5080000Y22860000D03*
X55880000Y9271000D03*
X75946000Y24009000D03*
X29210000Y14605000D03*
X12065000Y1270000D03*
X17780000Y5080000D03*
X29210000Y18415000D03*
X44450000Y31496000D03*
X25400000Y17780000D03*
X28448000Y30480000D03*
X29210000Y12700000D03*
X1270000Y24130000D03*
X1270000Y18415000D03*
X5080000Y4445000D03*
X27940000Y5080000D03*
X17780000Y10160000D03*
X30607000Y25400000D03*
%TO.N,{slash}RESET*%
X85090000Y22352000D03*
X67056000Y16129000D03*
X59436000Y5842000D03*
X48260000Y5715000D03*
%TO.N,BOOT0*%
X54737000Y3937000D03*
%TO.N,USER_BUTTON*%
X78105000Y22733000D03*
X66167000Y17399000D03*
%TO.N,VBUS*%
X80772000Y32514000D03*
X80772000Y27815000D03*
%TO.N,VDD*%
X51054000Y28080000D03*
X49276000Y24257000D03*
X52451000Y29210000D03*
X51689000Y29210000D03*
%TO.N,+BATT*%
X78105000Y46990000D03*
X79375000Y46990000D03*
X78105000Y48260000D03*
X63373000Y30861000D03*
X62738000Y30861000D03*
X78105000Y45720000D03*
X79375000Y45720000D03*
X62738000Y30226000D03*
X63373000Y30226000D03*
X79375000Y48260000D03*
%TO.N,Net-(Q4-D)*%
X57785000Y32385000D03*
X9525000Y46990000D03*
X57785000Y31623000D03*
X10795000Y48260000D03*
X9525000Y45720000D03*
X9525000Y48260000D03*
X10795000Y45720000D03*
X10795000Y46990000D03*
X57023000Y32385000D03*
X57023000Y31623000D03*
%TO.N,Net-(D8-K)*%
X42926000Y23495000D03*
X67437000Y25781000D03*
%TO.N,Net-(J1-CC2)*%
X79883000Y31750000D03*
X77915000Y26670000D03*
%TO.N,RTS*%
X54483000Y13970000D03*
%TO.N,DTR*%
X54483000Y15240000D03*
%TO.N,RXD0*%
X64008000Y9271000D03*
X82550000Y1651000D03*
%TO.N,TXD0*%
X65786000Y9271000D03*
X83820000Y1651000D03*
%TO.N,USER_LED*%
X81280000Y1651000D03*
X41910000Y8255000D03*
%TO.N,SCLK*%
X60579000Y1778000D03*
X37465000Y7523000D03*
%TO.N,{slash}SS*%
X37465000Y4983000D03*
X85090000Y1651000D03*
%TO.N,MOSI*%
X37465000Y2443000D03*
X78740000Y1651000D03*
%TO.N,RSSI*%
X37465000Y15240000D03*
X76708000Y22733000D03*
%TO.N,BATT_ADC*%
X79184500Y22669500D03*
X69850000Y25527000D03*
%TO.N,Net-(Q3-G)*%
X24765000Y28575000D03*
%TO.N,BUZZ_CTRL*%
X73640000Y22733000D03*
X28575000Y28575000D03*
%TO.N,LED_CTRL*%
X3429000Y27431000D03*
X77470000Y1651000D03*
%TO.N,SCL*%
X74676000Y22733000D03*
X38989000Y20701000D03*
%TO.N,SDA*%
X75565000Y22733000D03*
X40894000Y19939000D03*
%TO.N,Net-(U1-IO16)*%
X63373000Y8890000D03*
X73660000Y2032000D03*
%TO.N,{slash}EN_3V3*%
X48006000Y29718000D03*
%TO.N,Net-(D4-K)*%
X51054000Y30099000D03*
X50419000Y30099000D03*
%TD*%
%TA.AperFunction,Conductor*%
%TO.N,GND*%
G36*
X71599414Y57130315D02*
G01*
X71645169Y57077511D01*
X71655113Y57008353D01*
X71626088Y56944797D01*
X71567310Y56907023D01*
X71558733Y56904834D01*
X71492022Y56890322D01*
X71492017Y56890321D01*
X71492016Y56890320D01*
X71428003Y56866445D01*
X71227249Y56791568D01*
X71227245Y56791566D01*
X70979241Y56656145D01*
X70979233Y56656140D01*
X70753025Y56486804D01*
X70753007Y56486788D01*
X70553212Y56286993D01*
X70553196Y56286975D01*
X70383860Y56060767D01*
X70383855Y56060759D01*
X70248434Y55812755D01*
X70248432Y55812751D01*
X70149678Y55547978D01*
X70089613Y55271867D01*
X70069454Y54990002D01*
X70069454Y54989999D01*
X70089613Y54708134D01*
X70149678Y54432023D01*
X70149680Y54432016D01*
X70210993Y54267628D01*
X70248432Y54167250D01*
X70248434Y54167246D01*
X70383855Y53919242D01*
X70383860Y53919234D01*
X70553196Y53693026D01*
X70553212Y53693008D01*
X70753007Y53493213D01*
X70753025Y53493197D01*
X70979233Y53323861D01*
X70979241Y53323856D01*
X71227245Y53188435D01*
X71227249Y53188433D01*
X71227251Y53188432D01*
X71492016Y53089680D01*
X71630077Y53059647D01*
X71768133Y53029614D01*
X71768135Y53029614D01*
X71768139Y53029613D01*
X71979447Y53014500D01*
X72120553Y53014500D01*
X72331861Y53029613D01*
X72607984Y53089680D01*
X72872749Y53188432D01*
X73120764Y53323859D01*
X73346982Y53493203D01*
X73546797Y53693018D01*
X73716141Y53919236D01*
X73851568Y54167251D01*
X73950320Y54432016D01*
X74010387Y54708139D01*
X74030546Y54990000D01*
X74010387Y55271861D01*
X73950320Y55547984D01*
X73851568Y55812749D01*
X73791154Y55923388D01*
X73716144Y56060759D01*
X73716139Y56060767D01*
X73546803Y56286975D01*
X73546787Y56286993D01*
X73346992Y56486788D01*
X73346974Y56486804D01*
X73120766Y56656140D01*
X73120758Y56656145D01*
X72872754Y56791566D01*
X72872750Y56791568D01*
X72772372Y56829007D01*
X72607984Y56890320D01*
X72607980Y56890321D01*
X72607977Y56890322D01*
X72541267Y56904834D01*
X72479944Y56938319D01*
X72446459Y56999642D01*
X72451443Y57069334D01*
X72493315Y57125267D01*
X72558779Y57149684D01*
X72567625Y57150000D01*
X88141000Y57150000D01*
X88208039Y57130315D01*
X88253794Y57077511D01*
X88265000Y57026000D01*
X88265000Y55775964D01*
X88245315Y55708925D01*
X88192511Y55663170D01*
X88123353Y55653226D01*
X88059797Y55682251D01*
X88041733Y55701653D01*
X87958563Y55812755D01*
X87875739Y55923395D01*
X87875734Y55923400D01*
X87875729Y55923406D01*
X87673405Y56125730D01*
X87673387Y56125746D01*
X87444317Y56297225D01*
X87444309Y56297230D01*
X87193166Y56434365D01*
X87193167Y56434365D01*
X87052572Y56486804D01*
X86925046Y56534369D01*
X86925043Y56534370D01*
X86925037Y56534372D01*
X86645433Y56595196D01*
X86431450Y56610500D01*
X86431448Y56610500D01*
X86288552Y56610500D01*
X86288549Y56610500D01*
X86074566Y56595196D01*
X85794962Y56534372D01*
X85526833Y56434365D01*
X85275690Y56297230D01*
X85275682Y56297225D01*
X85046612Y56125746D01*
X85046594Y56125730D01*
X84844270Y55923406D01*
X84844254Y55923388D01*
X84672775Y55694318D01*
X84672770Y55694310D01*
X84535635Y55443167D01*
X84435628Y55175038D01*
X84374804Y54895434D01*
X84354390Y54610002D01*
X84354390Y54609999D01*
X84374804Y54324567D01*
X84435628Y54044963D01*
X84435630Y54044957D01*
X84435631Y54044954D01*
X84535633Y53776839D01*
X84535635Y53776834D01*
X84672770Y53525691D01*
X84672775Y53525683D01*
X84844254Y53296613D01*
X84844270Y53296595D01*
X85046594Y53094271D01*
X85046612Y53094255D01*
X85275682Y52922776D01*
X85275690Y52922771D01*
X85526833Y52785636D01*
X85526832Y52785636D01*
X85526836Y52785635D01*
X85526839Y52785633D01*
X85794954Y52685631D01*
X85794960Y52685630D01*
X85794962Y52685629D01*
X86074566Y52624805D01*
X86074568Y52624805D01*
X86074572Y52624804D01*
X86288552Y52609500D01*
X86431448Y52609500D01*
X86645428Y52624804D01*
X86925046Y52685631D01*
X87193161Y52785633D01*
X87444315Y52922774D01*
X87673395Y53094261D01*
X87875739Y53296605D01*
X87986105Y53444037D01*
X88041733Y53518347D01*
X88097666Y53560219D01*
X88167358Y53565203D01*
X88228681Y53531718D01*
X88262166Y53470395D01*
X88265000Y53444037D01*
X88265000Y35733641D01*
X88245315Y35666602D01*
X88192511Y35620847D01*
X88123353Y35610903D01*
X88097430Y35617548D01*
X88047095Y35636439D01*
X87823586Y35677000D01*
X87791000Y35677000D01*
X87791000Y34705347D01*
X87766080Y34715000D01*
X87082198Y34715000D01*
X86999750Y34699588D01*
X86904390Y34640543D01*
X86836799Y34551038D01*
X86806105Y34443160D01*
X86816454Y34331479D01*
X86866448Y34231078D01*
X86949334Y34155516D01*
X87053920Y34115000D01*
X87737802Y34115000D01*
X87791000Y34124945D01*
X87791000Y33155190D01*
X87936247Y33168262D01*
X87936254Y33168263D01*
X88108011Y33215665D01*
X88177872Y33214525D01*
X88236026Y33175797D01*
X88264009Y33111776D01*
X88265000Y33096134D01*
X88265000Y27093641D01*
X88245315Y27026602D01*
X88192511Y26980847D01*
X88123353Y26970903D01*
X88097430Y26977548D01*
X88047095Y26996439D01*
X87823586Y27037000D01*
X87791000Y27037000D01*
X87791000Y26065347D01*
X87766080Y26075000D01*
X87082198Y26075000D01*
X86999750Y26059588D01*
X86904390Y26000543D01*
X86836799Y25911038D01*
X86806105Y25803160D01*
X86816454Y25691479D01*
X86866448Y25591078D01*
X86949334Y25515516D01*
X87053920Y25475000D01*
X87737802Y25475000D01*
X87791000Y25484945D01*
X87791000Y24515190D01*
X87936247Y24528262D01*
X87936254Y24528263D01*
X88108011Y24575665D01*
X88177872Y24574525D01*
X88236026Y24535797D01*
X88264009Y24471776D01*
X88265000Y24456134D01*
X88265000Y759000D01*
X88245315Y691961D01*
X88192511Y646206D01*
X88141000Y635000D01*
X759000Y635000D01*
X691961Y654685D01*
X646206Y707489D01*
X635000Y759000D01*
X635000Y1450204D01*
X654685Y1517243D01*
X707489Y1562998D01*
X776647Y1572942D01*
X840203Y1543917D01*
X848429Y1536101D01*
X1010824Y1367029D01*
X1010828Y1367025D01*
X1212442Y1215522D01*
X1212453Y1215516D01*
X1435750Y1098320D01*
X1674978Y1018454D01*
X1923899Y978000D01*
X2369000Y978000D01*
X2369000Y2159000D01*
X3131000Y2159000D01*
X3131000Y978000D01*
X3512943Y978000D01*
X3512962Y978001D01*
X3701377Y993211D01*
X3946248Y1053568D01*
X4178250Y1152414D01*
X4391416Y1287212D01*
X4580181Y1454443D01*
X4580185Y1454447D01*
X4739682Y1649796D01*
X4739686Y1649802D01*
X4865780Y1868202D01*
X4955212Y2104013D01*
X4955212Y2104014D01*
X4966437Y2159000D01*
X3131000Y2159000D01*
X2369000Y2159000D01*
X2369000Y2508605D01*
X2371114Y2508605D01*
X2401837Y2387281D01*
X2470289Y2282508D01*
X2569052Y2205637D01*
X2687424Y2165000D01*
X2781073Y2165000D01*
X2873446Y2180414D01*
X2983514Y2239981D01*
X3068278Y2332059D01*
X3118551Y2446670D01*
X3128886Y2571395D01*
X3123457Y2592832D01*
X29940930Y2592832D01*
X29950974Y2381984D01*
X30000458Y2178007D01*
X30000740Y2176844D01*
X30066888Y2032002D01*
X30088428Y1984836D01*
X30202386Y1824804D01*
X30210871Y1812889D01*
X30363644Y1667220D01*
X30525818Y1562998D01*
X30541218Y1553101D01*
X30737184Y1474648D01*
X30840820Y1454674D01*
X30944456Y1434700D01*
X30944457Y1434700D01*
X32502650Y1434700D01*
X32502656Y1434700D01*
X32660131Y1449737D01*
X32862667Y1509207D01*
X33050289Y1605933D01*
X33083430Y1631995D01*
X33216211Y1736416D01*
X33216214Y1736418D01*
X33252244Y1777999D01*
X60014874Y1777999D01*
X60034095Y1631995D01*
X60034096Y1631993D01*
X60088631Y1500334D01*
X60090453Y1495937D01*
X60180103Y1379103D01*
X60296937Y1289453D01*
X60432993Y1233096D01*
X60505996Y1223485D01*
X60578999Y1213874D01*
X60579000Y1213874D01*
X60579001Y1213874D01*
X60627669Y1220282D01*
X60725007Y1233096D01*
X60861063Y1289453D01*
X60977897Y1379103D01*
X61067547Y1495937D01*
X61123904Y1631993D01*
X61137652Y1736424D01*
X61143126Y1777999D01*
X61143126Y1778002D01*
X61129846Y1878874D01*
X61123904Y1924007D01*
X61067547Y2060063D01*
X60977897Y2176897D01*
X60861063Y2266547D01*
X60861059Y2266549D01*
X60725007Y2322904D01*
X60725005Y2322905D01*
X60579001Y2342126D01*
X60578999Y2342126D01*
X60432994Y2322905D01*
X60432992Y2322904D01*
X60296940Y2266549D01*
X60296937Y2266548D01*
X60296937Y2266547D01*
X60180103Y2176897D01*
X60104795Y2078753D01*
X60090451Y2060060D01*
X60034096Y1924008D01*
X60034095Y1924006D01*
X60014874Y1778002D01*
X60014874Y1777999D01*
X33252244Y1777999D01*
X33354446Y1895947D01*
X33459990Y2078753D01*
X33529030Y2278230D01*
X33552720Y2442999D01*
X36900874Y2442999D01*
X36920095Y2296995D01*
X36920096Y2296993D01*
X36969862Y2176847D01*
X36976453Y2160937D01*
X37066103Y2044103D01*
X37182937Y1954453D01*
X37318993Y1898096D01*
X37391996Y1888485D01*
X37464999Y1878874D01*
X37465000Y1878874D01*
X37465001Y1878874D01*
X37519090Y1885995D01*
X37611007Y1898096D01*
X37747063Y1954453D01*
X37863897Y2044103D01*
X37953547Y2160937D01*
X38009904Y2296993D01*
X38029126Y2443000D01*
X38009904Y2589007D01*
X37953547Y2725063D01*
X37863897Y2841897D01*
X37747063Y2931547D01*
X37747059Y2931549D01*
X37611007Y2987904D01*
X37611005Y2987905D01*
X37465001Y3007126D01*
X37464999Y3007126D01*
X37318994Y2987905D01*
X37318992Y2987904D01*
X37182940Y2931549D01*
X37182937Y2931548D01*
X37182937Y2931547D01*
X37066103Y2841897D01*
X36976931Y2725685D01*
X36976451Y2725060D01*
X36920096Y2589008D01*
X36920095Y2589006D01*
X36900874Y2443002D01*
X36900874Y2442999D01*
X33552720Y2442999D01*
X33559070Y2487168D01*
X33549026Y2698016D01*
X33499261Y2903153D01*
X33411572Y3095164D01*
X33289130Y3267110D01*
X33208929Y3343582D01*
X33136355Y3412781D01*
X32958786Y3526897D01*
X32958783Y3526898D01*
X32958782Y3526899D01*
X32762816Y3605352D01*
X32762814Y3605353D01*
X32555544Y3645300D01*
X32555543Y3645300D01*
X30997344Y3645300D01*
X30839869Y3630263D01*
X30839865Y3630262D01*
X30637335Y3570794D01*
X30449706Y3474065D01*
X30283788Y3343585D01*
X30283780Y3343577D01*
X30145553Y3184054D01*
X30145553Y3184053D01*
X30040013Y3001253D01*
X30040006Y3001237D01*
X29970970Y2801773D01*
X29941404Y2596126D01*
X29940930Y2592832D01*
X3123457Y2592832D01*
X3098163Y2692719D01*
X3029711Y2797492D01*
X2930948Y2874363D01*
X2812576Y2915000D01*
X2718927Y2915000D01*
X2626554Y2899586D01*
X2516486Y2840019D01*
X2431722Y2747941D01*
X2381449Y2633330D01*
X2371114Y2508605D01*
X2369000Y2508605D01*
X2369000Y4102000D01*
X3131000Y4102000D01*
X3131000Y2921000D01*
X4965848Y2921000D01*
X4965848Y2921001D01*
X4915248Y3095690D01*
X4915247Y3095693D01*
X4807131Y3323545D01*
X4663868Y3531095D01*
X4663861Y3531103D01*
X4489175Y3712972D01*
X4489171Y3712976D01*
X4287557Y3864479D01*
X4287546Y3864485D01*
X4149383Y3936999D01*
X54172874Y3936999D01*
X54192095Y3790995D01*
X54192096Y3790993D01*
X54248453Y3654937D01*
X54338103Y3538103D01*
X54454937Y3448453D01*
X54590993Y3392096D01*
X54663996Y3382485D01*
X54736999Y3372874D01*
X54737000Y3372874D01*
X54737001Y3372874D01*
X54785669Y3379282D01*
X54883007Y3392096D01*
X55019063Y3448453D01*
X55135897Y3538103D01*
X55225547Y3654937D01*
X55281904Y3790993D01*
X55284406Y3809999D01*
X62129390Y3809999D01*
X62149804Y3524567D01*
X62210628Y3244963D01*
X62210630Y3244957D01*
X62210631Y3244954D01*
X62299337Y3007126D01*
X62310635Y2976834D01*
X62447770Y2725691D01*
X62447775Y2725683D01*
X62619254Y2496613D01*
X62619270Y2496595D01*
X62821594Y2294271D01*
X62821612Y2294255D01*
X63050682Y2122776D01*
X63050690Y2122771D01*
X63301833Y1985636D01*
X63301832Y1985636D01*
X63301836Y1985635D01*
X63301839Y1985633D01*
X63569954Y1885631D01*
X63569960Y1885630D01*
X63569962Y1885629D01*
X63849566Y1824805D01*
X63849568Y1824805D01*
X63849572Y1824804D01*
X64063552Y1809500D01*
X64206448Y1809500D01*
X64420428Y1824804D01*
X64668985Y1878874D01*
X64700037Y1885629D01*
X64700037Y1885630D01*
X64700046Y1885631D01*
X64968161Y1985633D01*
X65053074Y2031999D01*
X73095874Y2031999D01*
X73115095Y1885995D01*
X73115096Y1885993D01*
X73159828Y1778000D01*
X73171453Y1749937D01*
X73261103Y1633103D01*
X73377937Y1543453D01*
X73513993Y1487096D01*
X73586996Y1477485D01*
X73659999Y1467874D01*
X73660000Y1467874D01*
X73660001Y1467874D01*
X73711454Y1474648D01*
X73806007Y1487096D01*
X73942063Y1543453D01*
X74058897Y1633103D01*
X74072629Y1650999D01*
X76905874Y1650999D01*
X76925095Y1504995D01*
X76925096Y1504993D01*
X76977241Y1379104D01*
X76981453Y1368937D01*
X77071103Y1252103D01*
X77187937Y1162453D01*
X77323993Y1106096D01*
X77383058Y1098320D01*
X77469999Y1086874D01*
X77470000Y1086874D01*
X77470001Y1086874D01*
X77518669Y1093282D01*
X77616007Y1106096D01*
X77752063Y1162453D01*
X77868897Y1252103D01*
X77958547Y1368937D01*
X77990439Y1445930D01*
X78034280Y1500334D01*
X78100574Y1522399D01*
X78168273Y1505120D01*
X78215884Y1453983D01*
X78219561Y1445930D01*
X78251450Y1368942D01*
X78251450Y1368941D01*
X78251452Y1368938D01*
X78251453Y1368937D01*
X78341103Y1252103D01*
X78457937Y1162453D01*
X78593993Y1106096D01*
X78653058Y1098320D01*
X78739999Y1086874D01*
X78740000Y1086874D01*
X78740001Y1086874D01*
X78788669Y1093282D01*
X78886007Y1106096D01*
X79022063Y1162453D01*
X79138897Y1252103D01*
X79228547Y1368937D01*
X79284904Y1504993D01*
X79301770Y1633104D01*
X79304126Y1650999D01*
X80715874Y1650999D01*
X80735095Y1504995D01*
X80735096Y1504993D01*
X80787241Y1379104D01*
X80791453Y1368937D01*
X80881103Y1252103D01*
X80997937Y1162453D01*
X81133993Y1106096D01*
X81193058Y1098320D01*
X81279999Y1086874D01*
X81280000Y1086874D01*
X81280001Y1086874D01*
X81328669Y1093282D01*
X81426007Y1106096D01*
X81562063Y1162453D01*
X81678897Y1252103D01*
X81768547Y1368937D01*
X81800439Y1445930D01*
X81844280Y1500334D01*
X81910574Y1522399D01*
X81978273Y1505120D01*
X82025884Y1453983D01*
X82029561Y1445930D01*
X82061450Y1368942D01*
X82061450Y1368941D01*
X82061452Y1368938D01*
X82061453Y1368937D01*
X82151103Y1252103D01*
X82267937Y1162453D01*
X82403993Y1106096D01*
X82463058Y1098320D01*
X82549999Y1086874D01*
X82550000Y1086874D01*
X82550001Y1086874D01*
X82598669Y1093282D01*
X82696007Y1106096D01*
X82832063Y1162453D01*
X82948897Y1252103D01*
X83038547Y1368937D01*
X83070439Y1445930D01*
X83114280Y1500334D01*
X83180574Y1522399D01*
X83248273Y1505120D01*
X83295884Y1453983D01*
X83299561Y1445930D01*
X83331450Y1368942D01*
X83331450Y1368941D01*
X83331452Y1368938D01*
X83331453Y1368937D01*
X83421103Y1252103D01*
X83537937Y1162453D01*
X83673993Y1106096D01*
X83733058Y1098320D01*
X83819999Y1086874D01*
X83820000Y1086874D01*
X83820001Y1086874D01*
X83868669Y1093282D01*
X83966007Y1106096D01*
X84102063Y1162453D01*
X84218897Y1252103D01*
X84308547Y1368937D01*
X84340439Y1445930D01*
X84384280Y1500334D01*
X84450574Y1522399D01*
X84518273Y1505120D01*
X84565884Y1453983D01*
X84569561Y1445930D01*
X84601450Y1368942D01*
X84601450Y1368941D01*
X84601452Y1368938D01*
X84601453Y1368937D01*
X84691103Y1252103D01*
X84807937Y1162453D01*
X84943993Y1106096D01*
X85003058Y1098320D01*
X85089999Y1086874D01*
X85090000Y1086874D01*
X85090001Y1086874D01*
X85138669Y1093282D01*
X85236007Y1106096D01*
X85372063Y1162453D01*
X85488897Y1252103D01*
X85578547Y1368937D01*
X85634904Y1504993D01*
X85651770Y1633104D01*
X85654126Y1650999D01*
X85654126Y1651002D01*
X85637195Y1779602D01*
X85634904Y1797007D01*
X85578547Y1933063D01*
X85488897Y2049897D01*
X85372063Y2139547D01*
X85372059Y2139549D01*
X85236007Y2195904D01*
X85236005Y2195905D01*
X85090001Y2215126D01*
X85089999Y2215126D01*
X84943994Y2195905D01*
X84943992Y2195904D01*
X84807940Y2139549D01*
X84807937Y2139548D01*
X84807937Y2139547D01*
X84691103Y2049897D01*
X84617866Y1954452D01*
X84601451Y1933060D01*
X84569561Y1856070D01*
X84525720Y1801667D01*
X84459426Y1779602D01*
X84391726Y1796881D01*
X84344116Y1848019D01*
X84340439Y1856070D01*
X84323031Y1898096D01*
X84308547Y1933063D01*
X84218897Y2049897D01*
X84102063Y2139547D01*
X84102059Y2139549D01*
X83966007Y2195904D01*
X83966005Y2195905D01*
X83820001Y2215126D01*
X83819999Y2215126D01*
X83673994Y2195905D01*
X83673992Y2195904D01*
X83537940Y2139549D01*
X83537937Y2139548D01*
X83537937Y2139547D01*
X83421103Y2049897D01*
X83347866Y1954452D01*
X83331451Y1933060D01*
X83299561Y1856070D01*
X83255720Y1801667D01*
X83189426Y1779602D01*
X83121726Y1796881D01*
X83074116Y1848019D01*
X83070439Y1856070D01*
X83053031Y1898096D01*
X83038547Y1933063D01*
X82948897Y2049897D01*
X82832063Y2139547D01*
X82832059Y2139549D01*
X82696007Y2195904D01*
X82696005Y2195905D01*
X82550001Y2215126D01*
X82549999Y2215126D01*
X82403994Y2195905D01*
X82403992Y2195904D01*
X82267940Y2139549D01*
X82267937Y2139548D01*
X82267937Y2139547D01*
X82151103Y2049897D01*
X82077866Y1954452D01*
X82061451Y1933060D01*
X82029561Y1856070D01*
X81985720Y1801667D01*
X81919426Y1779602D01*
X81851726Y1796881D01*
X81804116Y1848019D01*
X81800439Y1856070D01*
X81783031Y1898096D01*
X81768547Y1933063D01*
X81678897Y2049897D01*
X81562063Y2139547D01*
X81562059Y2139549D01*
X81426007Y2195904D01*
X81426005Y2195905D01*
X81280001Y2215126D01*
X81279999Y2215126D01*
X81133994Y2195905D01*
X81133992Y2195904D01*
X80997940Y2139549D01*
X80997937Y2139548D01*
X80997937Y2139547D01*
X80881103Y2049897D01*
X80807866Y1954452D01*
X80791451Y1933060D01*
X80735096Y1797008D01*
X80735095Y1797006D01*
X80715874Y1651002D01*
X80715874Y1650999D01*
X79304126Y1650999D01*
X79304126Y1651002D01*
X79287195Y1779602D01*
X79284904Y1797007D01*
X79228547Y1933063D01*
X79138897Y2049897D01*
X79022063Y2139547D01*
X79022059Y2139549D01*
X78886007Y2195904D01*
X78886005Y2195905D01*
X78740001Y2215126D01*
X78739999Y2215126D01*
X78593994Y2195905D01*
X78593992Y2195904D01*
X78457940Y2139549D01*
X78457937Y2139548D01*
X78457937Y2139547D01*
X78341103Y2049897D01*
X78267866Y1954452D01*
X78251451Y1933060D01*
X78219561Y1856070D01*
X78175720Y1801667D01*
X78109426Y1779602D01*
X78041726Y1796881D01*
X77994116Y1848019D01*
X77990439Y1856070D01*
X77973031Y1898096D01*
X77958547Y1933063D01*
X77868897Y2049897D01*
X77752063Y2139547D01*
X77752059Y2139549D01*
X77616007Y2195904D01*
X77616005Y2195905D01*
X77470001Y2215126D01*
X77469999Y2215126D01*
X77323994Y2195905D01*
X77323992Y2195904D01*
X77187940Y2139549D01*
X77187937Y2139548D01*
X77187937Y2139547D01*
X77071103Y2049897D01*
X76997866Y1954452D01*
X76981451Y1933060D01*
X76925096Y1797008D01*
X76925095Y1797006D01*
X76905874Y1651002D01*
X76905874Y1650999D01*
X74072629Y1650999D01*
X74148547Y1749937D01*
X74204904Y1885993D01*
X74224126Y2032000D01*
X74222532Y2044104D01*
X74204904Y2178006D01*
X74204904Y2178007D01*
X74148547Y2314063D01*
X74058897Y2430897D01*
X73942063Y2520547D01*
X73942059Y2520549D01*
X73806007Y2576904D01*
X73806005Y2576905D01*
X73660001Y2596126D01*
X73659999Y2596126D01*
X73513994Y2576905D01*
X73513992Y2576904D01*
X73377940Y2520549D01*
X73377937Y2520548D01*
X73377937Y2520547D01*
X73346722Y2496595D01*
X73261103Y2430897D01*
X73171451Y2314060D01*
X73115096Y2178008D01*
X73115095Y2178006D01*
X73095874Y2032002D01*
X73095874Y2031999D01*
X65053074Y2031999D01*
X65219315Y2122774D01*
X65448395Y2294261D01*
X65650739Y2496605D01*
X65822226Y2725685D01*
X65959367Y2976839D01*
X66059369Y3244954D01*
X66120196Y3524572D01*
X66140610Y3810000D01*
X66120196Y4095428D01*
X66118766Y4102000D01*
X66059371Y4375038D01*
X66059370Y4375040D01*
X66059369Y4375046D01*
X65959367Y4643161D01*
X65919131Y4716847D01*
X65822229Y4894310D01*
X65822224Y4894318D01*
X65650745Y5123388D01*
X65650729Y5123406D01*
X65448405Y5325730D01*
X65448387Y5325746D01*
X65219317Y5497225D01*
X65219309Y5497230D01*
X64968166Y5634365D01*
X64968167Y5634365D01*
X64860915Y5674368D01*
X64700046Y5734369D01*
X64700043Y5734370D01*
X64700037Y5734372D01*
X64420433Y5795196D01*
X64206450Y5810500D01*
X64206448Y5810500D01*
X64063552Y5810500D01*
X64063549Y5810500D01*
X63849566Y5795196D01*
X63569962Y5734372D01*
X63301833Y5634365D01*
X63050690Y5497230D01*
X63050682Y5497225D01*
X62821612Y5325746D01*
X62821594Y5325730D01*
X62619270Y5123406D01*
X62619254Y5123388D01*
X62447775Y4894318D01*
X62447770Y4894310D01*
X62310635Y4643167D01*
X62210628Y4375038D01*
X62149804Y4095434D01*
X62129390Y3810002D01*
X62129390Y3809999D01*
X55284406Y3809999D01*
X55301126Y3937000D01*
X55281904Y4083007D01*
X55225547Y4219063D01*
X55135897Y4335897D01*
X55019063Y4425547D01*
X55019059Y4425549D01*
X54883007Y4481904D01*
X54883005Y4481905D01*
X54737001Y4501126D01*
X54736999Y4501126D01*
X54590994Y4481905D01*
X54590992Y4481904D01*
X54454940Y4425549D01*
X54454937Y4425548D01*
X54454937Y4425547D01*
X54360249Y4352890D01*
X54338103Y4335897D01*
X54248451Y4219060D01*
X54192096Y4083008D01*
X54192095Y4083006D01*
X54172874Y3937002D01*
X54172874Y3936999D01*
X4149383Y3936999D01*
X4064249Y3981681D01*
X3825021Y4061547D01*
X3576101Y4102000D01*
X3131000Y4102000D01*
X2369000Y4102000D01*
X1987037Y4102000D01*
X1798622Y4086790D01*
X1553751Y4026433D01*
X1321749Y3927587D01*
X1108583Y3792789D01*
X919818Y3625558D01*
X919814Y3625554D01*
X855051Y3546233D01*
X797404Y3506753D01*
X727565Y3504707D01*
X667705Y3540744D01*
X636832Y3603422D01*
X635000Y3624656D01*
X635000Y5132832D01*
X29940930Y5132832D01*
X29950974Y4921984D01*
X29976145Y4818228D01*
X30000740Y4716844D01*
X30088427Y4524838D01*
X30088428Y4524836D01*
X30163883Y4418874D01*
X30210871Y4352889D01*
X30363644Y4207220D01*
X30537597Y4095428D01*
X30541218Y4093101D01*
X30737184Y4014648D01*
X30840820Y3994674D01*
X30944456Y3974700D01*
X30944457Y3974700D01*
X32502650Y3974700D01*
X32502656Y3974700D01*
X32660131Y3989737D01*
X32862667Y4049207D01*
X33050289Y4145933D01*
X33216214Y4276418D01*
X33354446Y4435947D01*
X33459990Y4618753D01*
X33529030Y4818230D01*
X33552720Y4982999D01*
X36900874Y4982999D01*
X36920095Y4836995D01*
X36920096Y4836993D01*
X36969862Y4716847D01*
X36976453Y4700937D01*
X37066103Y4584103D01*
X37182937Y4494453D01*
X37318993Y4438096D01*
X37391996Y4428485D01*
X37464999Y4418874D01*
X37465000Y4418874D01*
X37465001Y4418874D01*
X37515702Y4425549D01*
X37611007Y4438096D01*
X37747063Y4494453D01*
X37863897Y4584103D01*
X37953547Y4700937D01*
X38009904Y4836993D01*
X38029126Y4983000D01*
X38009904Y5129007D01*
X37953547Y5265063D01*
X37863897Y5381897D01*
X37747063Y5471547D01*
X37747059Y5471549D01*
X37611007Y5527904D01*
X37611005Y5527905D01*
X37465001Y5547126D01*
X37464999Y5547126D01*
X37318994Y5527905D01*
X37318992Y5527904D01*
X37182940Y5471549D01*
X37182937Y5471548D01*
X37182937Y5471547D01*
X37066103Y5381897D01*
X36986284Y5277874D01*
X36976451Y5265060D01*
X36920096Y5129008D01*
X36920095Y5129006D01*
X36900874Y4983002D01*
X36900874Y4982999D01*
X33552720Y4982999D01*
X33559070Y5027168D01*
X33549026Y5238016D01*
X33499261Y5443153D01*
X33411572Y5635164D01*
X33289130Y5807110D01*
X33252540Y5841999D01*
X33186467Y5904999D01*
X42806874Y5904999D01*
X42826095Y5758995D01*
X42826096Y5758993D01*
X42877388Y5635163D01*
X42882453Y5622937D01*
X42972103Y5506103D01*
X43088937Y5416453D01*
X43224993Y5360096D01*
X43275452Y5353453D01*
X43370999Y5340874D01*
X43371000Y5340874D01*
X43371001Y5340874D01*
X43419669Y5347282D01*
X43517007Y5360096D01*
X43653063Y5416453D01*
X43769897Y5506103D01*
X43859547Y5622937D01*
X43897681Y5714999D01*
X47695874Y5714999D01*
X47715095Y5568995D01*
X47715096Y5568993D01*
X47767241Y5443104D01*
X47771453Y5432937D01*
X47861103Y5316103D01*
X47977937Y5226453D01*
X48113993Y5170096D01*
X48186996Y5160485D01*
X48259999Y5150874D01*
X48260000Y5150874D01*
X48260001Y5150874D01*
X48308669Y5157282D01*
X48406007Y5170096D01*
X48542063Y5226453D01*
X48658897Y5316103D01*
X48748547Y5432937D01*
X48804904Y5568993D01*
X48824126Y5715000D01*
X48807406Y5841999D01*
X58871874Y5841999D01*
X58891095Y5695995D01*
X58891096Y5695993D01*
X58921355Y5622941D01*
X58947453Y5559937D01*
X59037103Y5443103D01*
X59153937Y5353453D01*
X59289993Y5297096D01*
X59362996Y5287485D01*
X59435999Y5277874D01*
X59436000Y5277874D01*
X59436001Y5277874D01*
X59484669Y5284282D01*
X59582007Y5297096D01*
X59718063Y5353453D01*
X59834897Y5443103D01*
X59924547Y5559937D01*
X59980904Y5695993D01*
X60000126Y5842000D01*
X59980904Y5988007D01*
X59924547Y6124063D01*
X59834897Y6240897D01*
X59718063Y6330547D01*
X59718059Y6330549D01*
X59582007Y6386904D01*
X59582005Y6386905D01*
X59436001Y6406126D01*
X59435999Y6406126D01*
X59289994Y6386905D01*
X59289992Y6386904D01*
X59153940Y6330549D01*
X59153937Y6330548D01*
X59153937Y6330547D01*
X59037103Y6240897D01*
X58954747Y6133568D01*
X58947451Y6124060D01*
X58891096Y5988008D01*
X58891095Y5988006D01*
X58871874Y5842002D01*
X58871874Y5841999D01*
X48807406Y5841999D01*
X48804904Y5861007D01*
X48748547Y5997063D01*
X48658897Y6113897D01*
X48542063Y6203547D01*
X48542059Y6203549D01*
X48406007Y6259904D01*
X48406005Y6259905D01*
X48260001Y6279126D01*
X48259999Y6279126D01*
X48113994Y6259905D01*
X48113992Y6259904D01*
X47977940Y6203549D01*
X47977937Y6203548D01*
X47977937Y6203547D01*
X47861103Y6113897D01*
X47818213Y6058001D01*
X47771451Y5997060D01*
X47715096Y5861008D01*
X47715095Y5861006D01*
X47695874Y5715002D01*
X47695874Y5714999D01*
X43897681Y5714999D01*
X43915904Y5758993D01*
X43935126Y5905000D01*
X43915904Y6051007D01*
X43859547Y6187063D01*
X43769897Y6303897D01*
X43653063Y6393547D01*
X43653059Y6393549D01*
X43517007Y6449904D01*
X43517005Y6449905D01*
X43371001Y6469126D01*
X43370999Y6469126D01*
X43224994Y6449905D01*
X43224992Y6449904D01*
X43088940Y6393549D01*
X42972103Y6303897D01*
X42882451Y6187060D01*
X42826096Y6051008D01*
X42826095Y6051006D01*
X42806874Y5905002D01*
X42806874Y5904999D01*
X33186467Y5904999D01*
X33136355Y5952781D01*
X32958786Y6066897D01*
X32958783Y6066898D01*
X32958782Y6066899D01*
X32762816Y6145352D01*
X32762814Y6145353D01*
X32555544Y6185300D01*
X32555543Y6185300D01*
X30997344Y6185300D01*
X30839869Y6170263D01*
X30839865Y6170262D01*
X30637335Y6110794D01*
X30449706Y6014065D01*
X30283788Y5883585D01*
X30283780Y5883577D01*
X30145553Y5724054D01*
X30145553Y5724053D01*
X30040013Y5541253D01*
X30040006Y5541237D01*
X29970970Y5341773D01*
X29946288Y5170096D01*
X29940930Y5132832D01*
X635000Y5132832D01*
X635000Y6530204D01*
X654685Y6597243D01*
X707489Y6642998D01*
X776647Y6652942D01*
X840203Y6623917D01*
X848429Y6616101D01*
X1010824Y6447029D01*
X1010828Y6447025D01*
X1212442Y6295522D01*
X1212453Y6295516D01*
X1435750Y6178320D01*
X1674978Y6098454D01*
X1923899Y6058000D01*
X2369000Y6058000D01*
X2369000Y7239000D01*
X3131000Y7239000D01*
X3131000Y6058000D01*
X3512943Y6058000D01*
X3512962Y6058001D01*
X3701377Y6073211D01*
X3946248Y6133568D01*
X4178250Y6232414D01*
X4391416Y6367212D01*
X4580181Y6534443D01*
X4580185Y6534447D01*
X4739682Y6729796D01*
X4739686Y6729802D01*
X4865780Y6948202D01*
X4955212Y7184013D01*
X4955212Y7184014D01*
X4966437Y7239000D01*
X3131000Y7239000D01*
X2369000Y7239000D01*
X2369000Y7588605D01*
X2371114Y7588605D01*
X2401837Y7467281D01*
X2470289Y7362508D01*
X2569052Y7285637D01*
X2687424Y7245000D01*
X2781073Y7245000D01*
X2873446Y7260414D01*
X2983514Y7319981D01*
X3068278Y7412059D01*
X3118551Y7526670D01*
X3128886Y7651395D01*
X3098163Y7772719D01*
X3029711Y7877492D01*
X2930948Y7954363D01*
X2812576Y7995000D01*
X2718927Y7995000D01*
X2626554Y7979586D01*
X2516486Y7920019D01*
X2431722Y7827941D01*
X2381449Y7713330D01*
X2371114Y7588605D01*
X2369000Y7588605D01*
X2369000Y9182000D01*
X3131000Y9182000D01*
X3131000Y8001000D01*
X4965848Y8001000D01*
X4965848Y8001001D01*
X4915248Y8175690D01*
X4915247Y8175693D01*
X4807131Y8403545D01*
X4663868Y8611095D01*
X4663861Y8611103D01*
X4489175Y8792972D01*
X4489171Y8792976D01*
X4287557Y8944479D01*
X4287546Y8944485D01*
X4064249Y9061681D01*
X3825021Y9141547D01*
X3576101Y9182000D01*
X3131000Y9182000D01*
X2369000Y9182000D01*
X1987037Y9182000D01*
X1798622Y9166790D01*
X1553751Y9106433D01*
X1321749Y9007587D01*
X1108583Y8872789D01*
X919818Y8705558D01*
X919814Y8705554D01*
X855051Y8626233D01*
X797404Y8586753D01*
X727565Y8584707D01*
X667705Y8620744D01*
X636832Y8683422D01*
X635000Y8704656D01*
X635000Y9779000D01*
X29534152Y9779000D01*
X29584751Y9604311D01*
X29584752Y9604308D01*
X29692868Y9376456D01*
X29836131Y9168906D01*
X29836138Y9168898D01*
X30010824Y8987029D01*
X30010828Y8987025D01*
X30212442Y8835522D01*
X30212453Y8835516D01*
X30399908Y8737131D01*
X30450120Y8688547D01*
X30466095Y8620528D01*
X30442760Y8554670D01*
X30418934Y8529865D01*
X30283788Y8423585D01*
X30283780Y8423577D01*
X30145553Y8264054D01*
X30145553Y8264053D01*
X30040013Y8081253D01*
X30040006Y8081237D01*
X29970970Y7881773D01*
X29946288Y7710096D01*
X29940930Y7672832D01*
X29950974Y7461984D01*
X29976145Y7358228D01*
X30000740Y7256844D01*
X30088427Y7064838D01*
X30088428Y7064836D01*
X30163883Y6958874D01*
X30210871Y6892889D01*
X30363644Y6747220D01*
X30525818Y6642998D01*
X30541218Y6633101D01*
X30737184Y6554648D01*
X30840820Y6534674D01*
X30944456Y6514700D01*
X30944457Y6514700D01*
X32502650Y6514700D01*
X32502656Y6514700D01*
X32660131Y6529737D01*
X32862667Y6589207D01*
X33050289Y6685933D01*
X33216214Y6816418D01*
X33354446Y6975947D01*
X33459990Y7158753D01*
X33529030Y7358230D01*
X33552720Y7522999D01*
X36900874Y7522999D01*
X36920095Y7376995D01*
X36920096Y7376993D01*
X36969862Y7256847D01*
X36976453Y7240937D01*
X37066103Y7124103D01*
X37182937Y7034453D01*
X37318993Y6978096D01*
X37391996Y6968485D01*
X37464999Y6958874D01*
X37465000Y6958874D01*
X37465001Y6958874D01*
X37513669Y6965282D01*
X37611007Y6978096D01*
X37747063Y7034453D01*
X37863897Y7124103D01*
X37953547Y7240937D01*
X38009904Y7376993D01*
X38029126Y7523000D01*
X38009904Y7669007D01*
X37953547Y7805063D01*
X37863897Y7921897D01*
X37747063Y8011547D01*
X37747059Y8011549D01*
X37611007Y8067904D01*
X37611005Y8067905D01*
X37465001Y8087126D01*
X37464999Y8087126D01*
X37318994Y8067905D01*
X37318992Y8067904D01*
X37182940Y8011549D01*
X37182937Y8011548D01*
X37182937Y8011547D01*
X37066103Y7921897D01*
X37015618Y7856103D01*
X36976451Y7805060D01*
X36920096Y7669008D01*
X36920095Y7669006D01*
X36900874Y7523002D01*
X36900874Y7522999D01*
X33552720Y7522999D01*
X33559070Y7567168D01*
X33549026Y7778016D01*
X33499261Y7983153D01*
X33411572Y8175164D01*
X33354722Y8254999D01*
X41345874Y8254999D01*
X41365095Y8108995D01*
X41365096Y8108993D01*
X41417219Y7983157D01*
X41421453Y7972937D01*
X41511103Y7856103D01*
X41627937Y7766453D01*
X41763993Y7710096D01*
X41836996Y7700485D01*
X41909999Y7690874D01*
X41910000Y7690874D01*
X41910001Y7690874D01*
X41958669Y7697282D01*
X42056007Y7710096D01*
X42192063Y7766453D01*
X42308897Y7856103D01*
X42398547Y7972937D01*
X42454904Y8108993D01*
X42474126Y8255000D01*
X42454904Y8401007D01*
X42398547Y8537063D01*
X42308897Y8653897D01*
X42192063Y8743547D01*
X42192059Y8743549D01*
X42056007Y8799904D01*
X42056005Y8799905D01*
X41910001Y8819126D01*
X41909999Y8819126D01*
X41763994Y8799905D01*
X41763992Y8799904D01*
X41627940Y8743549D01*
X41627937Y8743548D01*
X41627937Y8743547D01*
X41511103Y8653897D01*
X41434964Y8554670D01*
X41421451Y8537060D01*
X41365096Y8401008D01*
X41365095Y8401006D01*
X41345874Y8255002D01*
X41345874Y8254999D01*
X33354722Y8254999D01*
X33289130Y8347110D01*
X33232604Y8401008D01*
X33136357Y8492779D01*
X33088403Y8523597D01*
X33042649Y8576401D01*
X33032705Y8645559D01*
X33061730Y8709115D01*
X33106840Y8741990D01*
X33178253Y8772416D01*
X33391416Y8907212D01*
X33580181Y9074443D01*
X33580185Y9074447D01*
X33739682Y9269796D01*
X33739686Y9269802D01*
X33740377Y9270999D01*
X49600874Y9270999D01*
X49620095Y9124995D01*
X49620096Y9124993D01*
X49656955Y9036007D01*
X49676453Y8988937D01*
X49766103Y8872103D01*
X49882937Y8782453D01*
X50018993Y8726096D01*
X50091996Y8716485D01*
X50164999Y8706874D01*
X50165000Y8706874D01*
X50165001Y8706874D01*
X50213669Y8713282D01*
X50311007Y8726096D01*
X50447063Y8782453D01*
X50563897Y8872103D01*
X50653547Y8988937D01*
X50709904Y9124993D01*
X50722718Y9222331D01*
X50729126Y9270999D01*
X53410874Y9270999D01*
X53430095Y9124995D01*
X53430096Y9124993D01*
X53466955Y9036007D01*
X53486453Y8988937D01*
X53576103Y8872103D01*
X53692937Y8782453D01*
X53828993Y8726096D01*
X53901996Y8716485D01*
X53974999Y8706874D01*
X53975000Y8706874D01*
X53975001Y8706874D01*
X54023669Y8713282D01*
X54121007Y8726096D01*
X54257063Y8782453D01*
X54373897Y8872103D01*
X54463547Y8988937D01*
X54519904Y9124993D01*
X54532718Y9222331D01*
X54539126Y9270999D01*
X57220874Y9270999D01*
X57240095Y9124995D01*
X57240096Y9124993D01*
X57276955Y9036007D01*
X57296453Y8988937D01*
X57386103Y8872103D01*
X57502937Y8782453D01*
X57638993Y8726096D01*
X57711996Y8716485D01*
X57784999Y8706874D01*
X57785000Y8706874D01*
X57785001Y8706874D01*
X57833669Y8713282D01*
X57931007Y8726096D01*
X58067063Y8782453D01*
X58183897Y8872103D01*
X58197629Y8889999D01*
X59125874Y8889999D01*
X59145095Y8743995D01*
X59145096Y8743993D01*
X59200141Y8611103D01*
X59201453Y8607937D01*
X59291103Y8491103D01*
X59407937Y8401453D01*
X59543993Y8345096D01*
X59616996Y8335485D01*
X59689999Y8325874D01*
X59690000Y8325874D01*
X59690001Y8325874D01*
X59738669Y8332282D01*
X59836007Y8345096D01*
X59972063Y8401453D01*
X60088897Y8491103D01*
X60178547Y8607937D01*
X60234904Y8743993D01*
X60254126Y8889999D01*
X62808874Y8889999D01*
X62828095Y8743995D01*
X62828096Y8743993D01*
X62883141Y8611103D01*
X62884453Y8607937D01*
X62974103Y8491103D01*
X63090937Y8401453D01*
X63226993Y8345096D01*
X63299996Y8335485D01*
X63372999Y8325874D01*
X63373000Y8325874D01*
X63373001Y8325874D01*
X63421669Y8332282D01*
X63519007Y8345096D01*
X63655063Y8401453D01*
X63771897Y8491103D01*
X63861547Y8607937D01*
X63871570Y8632136D01*
X63915409Y8686538D01*
X63981702Y8708605D01*
X64002314Y8707623D01*
X64008000Y8706874D01*
X64154007Y8726096D01*
X64290063Y8782453D01*
X64406897Y8872103D01*
X64496547Y8988937D01*
X64552904Y9124993D01*
X64565718Y9222331D01*
X64572126Y9270999D01*
X65221874Y9270999D01*
X65241095Y9124995D01*
X65241096Y9124993D01*
X65277955Y9036007D01*
X65297453Y8988937D01*
X65387103Y8872103D01*
X65503937Y8782453D01*
X65639993Y8726096D01*
X65712996Y8716485D01*
X65785999Y8706874D01*
X65786000Y8706874D01*
X65786001Y8706874D01*
X65834669Y8713282D01*
X65932007Y8726096D01*
X66068063Y8782453D01*
X66184897Y8872103D01*
X66274547Y8988937D01*
X66330904Y9124993D01*
X66343718Y9222331D01*
X66350126Y9270999D01*
X66350126Y9271002D01*
X66330904Y9417006D01*
X66330904Y9417007D01*
X66274547Y9553063D01*
X66184897Y9669897D01*
X66068063Y9759547D01*
X66068059Y9759549D01*
X65932007Y9815904D01*
X65932005Y9815905D01*
X65786001Y9835126D01*
X65785999Y9835126D01*
X65639994Y9815905D01*
X65639992Y9815904D01*
X65503940Y9759549D01*
X65387103Y9669897D01*
X65297451Y9553060D01*
X65241096Y9417008D01*
X65241095Y9417006D01*
X65221874Y9271002D01*
X65221874Y9270999D01*
X64572126Y9270999D01*
X64572126Y9271002D01*
X64552904Y9417006D01*
X64552904Y9417007D01*
X64496547Y9553063D01*
X64406897Y9669897D01*
X64290063Y9759547D01*
X64290059Y9759549D01*
X64154007Y9815904D01*
X64154005Y9815905D01*
X64008001Y9835126D01*
X64007999Y9835126D01*
X63861994Y9815905D01*
X63861992Y9815904D01*
X63725940Y9759549D01*
X63609103Y9669897D01*
X63519450Y9553060D01*
X63519449Y9553057D01*
X63509426Y9528861D01*
X63465583Y9474459D01*
X63399288Y9452397D01*
X63378690Y9453378D01*
X63373006Y9454126D01*
X63372999Y9454126D01*
X63226994Y9434905D01*
X63226992Y9434904D01*
X63090940Y9378549D01*
X62974103Y9288897D01*
X62884451Y9172060D01*
X62828096Y9036008D01*
X62828095Y9036006D01*
X62808874Y8890002D01*
X62808874Y8889999D01*
X60254126Y8889999D01*
X60254126Y8890000D01*
X60234904Y9036007D01*
X60178547Y9172063D01*
X60088897Y9288897D01*
X59972063Y9378547D01*
X59972059Y9378549D01*
X59836007Y9434904D01*
X59836005Y9434905D01*
X59690001Y9454126D01*
X59689999Y9454126D01*
X59543994Y9434905D01*
X59543992Y9434904D01*
X59407940Y9378549D01*
X59291103Y9288897D01*
X59201451Y9172060D01*
X59145096Y9036008D01*
X59145095Y9036006D01*
X59125874Y8890002D01*
X59125874Y8889999D01*
X58197629Y8889999D01*
X58273547Y8988937D01*
X58329904Y9124993D01*
X58342718Y9222331D01*
X58349126Y9270999D01*
X58349126Y9271002D01*
X58329904Y9417006D01*
X58329904Y9417007D01*
X58273547Y9553063D01*
X58183897Y9669897D01*
X58067063Y9759547D01*
X58067059Y9759549D01*
X57931007Y9815904D01*
X57931005Y9815905D01*
X57785001Y9835126D01*
X57784999Y9835126D01*
X57638994Y9815905D01*
X57638992Y9815904D01*
X57502940Y9759549D01*
X57386103Y9669897D01*
X57296451Y9553060D01*
X57240096Y9417008D01*
X57240095Y9417006D01*
X57220874Y9271002D01*
X57220874Y9270999D01*
X54539126Y9270999D01*
X54539126Y9271002D01*
X54519904Y9417006D01*
X54519904Y9417007D01*
X54463547Y9553063D01*
X54373897Y9669897D01*
X54257063Y9759547D01*
X54257059Y9759549D01*
X54121007Y9815904D01*
X54121005Y9815905D01*
X53975001Y9835126D01*
X53974999Y9835126D01*
X53828994Y9815905D01*
X53828992Y9815904D01*
X53692940Y9759549D01*
X53576103Y9669897D01*
X53486451Y9553060D01*
X53430096Y9417008D01*
X53430095Y9417006D01*
X53410874Y9271002D01*
X53410874Y9270999D01*
X50729126Y9270999D01*
X50729126Y9271002D01*
X50709904Y9417006D01*
X50709904Y9417007D01*
X50653547Y9553063D01*
X50563897Y9669897D01*
X50447063Y9759547D01*
X50447059Y9759549D01*
X50311007Y9815904D01*
X50311005Y9815905D01*
X50165001Y9835126D01*
X50164999Y9835126D01*
X50018994Y9815905D01*
X50018992Y9815904D01*
X49882940Y9759549D01*
X49766103Y9669897D01*
X49676451Y9553060D01*
X49620096Y9417008D01*
X49620095Y9417006D01*
X49600874Y9271002D01*
X49600874Y9270999D01*
X33740377Y9270999D01*
X33865780Y9488202D01*
X33955212Y9724013D01*
X33955212Y9724014D01*
X33966437Y9779000D01*
X29534152Y9779000D01*
X635000Y9779000D01*
X635000Y10128605D01*
X31371114Y10128605D01*
X31401837Y10007281D01*
X31470289Y9902508D01*
X31569052Y9825637D01*
X31687424Y9785000D01*
X31781073Y9785000D01*
X31873446Y9800414D01*
X31983514Y9859981D01*
X32068278Y9952059D01*
X32118551Y10066670D01*
X32128886Y10191395D01*
X32098163Y10312719D01*
X32029711Y10417492D01*
X31930948Y10494363D01*
X31812576Y10535000D01*
X31718927Y10535000D01*
X31626554Y10519586D01*
X31516486Y10460019D01*
X31431722Y10367941D01*
X31381449Y10253330D01*
X31371114Y10128605D01*
X635000Y10128605D01*
X635000Y10541001D01*
X29533562Y10541001D01*
X29533563Y10541000D01*
X33965848Y10541000D01*
X33965848Y10541001D01*
X33915248Y10715690D01*
X33915247Y10715693D01*
X33807131Y10943545D01*
X33663868Y11151095D01*
X33663861Y11151103D01*
X33489175Y11332972D01*
X33489171Y11332976D01*
X33437873Y11371524D01*
X41074700Y11371524D01*
X41079329Y11332976D01*
X41085415Y11282291D01*
X41085416Y11282289D01*
X41134826Y11156993D01*
X41141417Y11140281D01*
X41233651Y11018652D01*
X41332695Y10943545D01*
X41355283Y10926416D01*
X41497289Y10870416D01*
X41586524Y10859700D01*
X41586530Y10859700D01*
X44773470Y10859700D01*
X44773476Y10859700D01*
X44862711Y10870416D01*
X45004717Y10926416D01*
X45126348Y11018652D01*
X45218584Y11140283D01*
X45274584Y11282289D01*
X45277071Y11302999D01*
X46806874Y11302999D01*
X46826095Y11156995D01*
X46826096Y11156993D01*
X46870329Y11050205D01*
X46882453Y11020937D01*
X46972103Y10904103D01*
X47088937Y10814453D01*
X47224993Y10758096D01*
X47297996Y10748485D01*
X47370999Y10738874D01*
X47371000Y10738874D01*
X47371001Y10738874D01*
X47419669Y10745282D01*
X47517007Y10758096D01*
X47653063Y10814453D01*
X47769897Y10904103D01*
X47859547Y11020937D01*
X47915904Y11156993D01*
X47925842Y11232480D01*
X79061743Y11232480D01*
X79161621Y11179094D01*
X79361815Y11118366D01*
X79361811Y11118366D01*
X79570000Y11097862D01*
X79778186Y11118366D01*
X79978378Y11179094D01*
X80078256Y11232480D01*
X80461743Y11232480D01*
X80561621Y11179094D01*
X80761815Y11118366D01*
X80761811Y11118366D01*
X80970000Y11097862D01*
X81178186Y11118366D01*
X81378378Y11179094D01*
X81478256Y11232480D01*
X81478256Y11232481D01*
X80970001Y11740736D01*
X80970000Y11740736D01*
X80461743Y11232480D01*
X80078256Y11232480D01*
X80078256Y11232481D01*
X79570001Y11740736D01*
X79570000Y11740736D01*
X79061743Y11232480D01*
X47925842Y11232480D01*
X47935126Y11303000D01*
X47915904Y11449007D01*
X47859547Y11585063D01*
X47769897Y11701897D01*
X47653063Y11791547D01*
X47653059Y11791549D01*
X47517007Y11847904D01*
X47517005Y11847905D01*
X47371001Y11867126D01*
X47370999Y11867126D01*
X47224994Y11847905D01*
X47224992Y11847904D01*
X47088940Y11791549D01*
X47088937Y11791548D01*
X47088937Y11791547D01*
X46972103Y11701897D01*
X46902269Y11610887D01*
X46882451Y11585060D01*
X46826096Y11449008D01*
X46826095Y11449006D01*
X46806874Y11303002D01*
X46806874Y11302999D01*
X45277071Y11302999D01*
X45285300Y11371524D01*
X45285300Y11932480D01*
X78361743Y11932480D01*
X78461621Y11879094D01*
X78461623Y11879093D01*
X78492160Y11869830D01*
X78550599Y11831534D01*
X78574827Y11787165D01*
X78584091Y11756625D01*
X78637479Y11656745D01*
X79113244Y12132508D01*
X79470000Y12132508D01*
X79508197Y12079935D01*
X79554162Y12065000D01*
X79585838Y12065000D01*
X79631803Y12079935D01*
X79670000Y12132508D01*
X79670000Y12165000D01*
X79994264Y12165000D01*
X80270000Y11889264D01*
X80513244Y12132508D01*
X80870000Y12132508D01*
X80908197Y12079935D01*
X80954162Y12065000D01*
X80985838Y12065000D01*
X81031803Y12079935D01*
X81070000Y12132508D01*
X81070000Y12165000D01*
X81394264Y12165000D01*
X81902520Y11656744D01*
X81955907Y11756624D01*
X81965170Y11787160D01*
X82003466Y11845600D01*
X82047840Y11869830D01*
X82078376Y11879093D01*
X82178256Y11932480D01*
X81670000Y12440736D01*
X81394264Y12165000D01*
X81070000Y12165000D01*
X81070000Y12197492D01*
X81031803Y12250065D01*
X80985838Y12265000D01*
X80954162Y12265000D01*
X80908197Y12250065D01*
X80870000Y12197492D01*
X80870000Y12132508D01*
X80513244Y12132508D01*
X80545736Y12165000D01*
X80270000Y12440736D01*
X79994264Y12165000D01*
X79670000Y12165000D01*
X79670000Y12197492D01*
X79631803Y12250065D01*
X79585838Y12265000D01*
X79554162Y12265000D01*
X79508197Y12250065D01*
X79470000Y12197492D01*
X79470000Y12132508D01*
X79113244Y12132508D01*
X79145736Y12165000D01*
X79145736Y12165001D01*
X78870001Y12440736D01*
X78870000Y12440736D01*
X78361743Y11932480D01*
X45285300Y11932480D01*
X45285300Y12758476D01*
X45274584Y12847711D01*
X45267766Y12865000D01*
X77802861Y12865000D01*
X77823365Y12656814D01*
X77884093Y12456622D01*
X77937479Y12356745D01*
X78413244Y12832508D01*
X78770000Y12832508D01*
X78808197Y12779935D01*
X78854162Y12765000D01*
X78885838Y12765000D01*
X78931803Y12779935D01*
X78970000Y12832508D01*
X78970000Y12865000D01*
X79294264Y12865000D01*
X79570000Y12589264D01*
X79813244Y12832508D01*
X80170000Y12832508D01*
X80208197Y12779935D01*
X80254162Y12765000D01*
X80285838Y12765000D01*
X80331803Y12779935D01*
X80370000Y12832508D01*
X80370000Y12865000D01*
X80694264Y12865000D01*
X80970000Y12589264D01*
X81213244Y12832508D01*
X81570000Y12832508D01*
X81608197Y12779935D01*
X81654162Y12765000D01*
X81685838Y12765000D01*
X81731803Y12779935D01*
X81770000Y12832508D01*
X81770000Y12865000D01*
X82094264Y12865000D01*
X82602520Y12356744D01*
X82655906Y12456622D01*
X82716634Y12656814D01*
X82737138Y12865000D01*
X82716634Y13073187D01*
X82655906Y13273379D01*
X82602520Y13373257D01*
X82094264Y12865001D01*
X82094264Y12865000D01*
X81770000Y12865000D01*
X81770000Y12897492D01*
X81731803Y12950065D01*
X81685838Y12965000D01*
X81654162Y12965000D01*
X81608197Y12950065D01*
X81570000Y12897492D01*
X81570000Y12832508D01*
X81213244Y12832508D01*
X81245736Y12865000D01*
X80970000Y13140736D01*
X80694264Y12865000D01*
X80370000Y12865000D01*
X80370000Y12897492D01*
X80331803Y12950065D01*
X80285838Y12965000D01*
X80254162Y12965000D01*
X80208197Y12950065D01*
X80170000Y12897492D01*
X80170000Y12832508D01*
X79813244Y12832508D01*
X79845736Y12865000D01*
X79570000Y13140736D01*
X79294264Y12865000D01*
X78970000Y12865000D01*
X78970000Y12897492D01*
X78931803Y12950065D01*
X78885838Y12965000D01*
X78854162Y12965000D01*
X78808197Y12950065D01*
X78770000Y12897492D01*
X78770000Y12832508D01*
X78413244Y12832508D01*
X78445736Y12865000D01*
X78445736Y12865001D01*
X77937479Y13373257D01*
X77884092Y13273376D01*
X77823365Y13073187D01*
X77802861Y12865000D01*
X45267766Y12865000D01*
X45218584Y12989717D01*
X45218582Y12989720D01*
X45126348Y13111349D01*
X45004719Y13203583D01*
X45004717Y13203584D01*
X44873922Y13255163D01*
X44862709Y13259585D01*
X44816904Y13265085D01*
X44773476Y13270300D01*
X41586524Y13270300D01*
X41546353Y13265477D01*
X41497290Y13259585D01*
X41355280Y13203583D01*
X41233651Y13111349D01*
X41141417Y12989720D01*
X41085415Y12847710D01*
X41079523Y12798647D01*
X41074700Y12758476D01*
X41074700Y11371524D01*
X33437873Y11371524D01*
X33287557Y11484479D01*
X33287546Y11484485D01*
X33100091Y11582870D01*
X33049878Y11631454D01*
X33033904Y11699474D01*
X33057239Y11765331D01*
X33081063Y11790135D01*
X33216214Y11896418D01*
X33354446Y12055947D01*
X33459990Y12238753D01*
X33529030Y12438230D01*
X33559070Y12647168D01*
X33549026Y12858016D01*
X33499261Y13063153D01*
X33433112Y13207999D01*
X35884874Y13207999D01*
X35904095Y13061995D01*
X35904096Y13061993D01*
X35950458Y12950065D01*
X35960453Y12925937D01*
X36050103Y12809103D01*
X36166937Y12719453D01*
X36302993Y12663096D01*
X36350710Y12656814D01*
X36448999Y12643874D01*
X36449000Y12643874D01*
X36449001Y12643874D01*
X36497669Y12650282D01*
X36595007Y12663096D01*
X36731063Y12719453D01*
X36754513Y12737447D01*
X36819682Y12762642D01*
X36888127Y12748604D01*
X36905487Y12737447D01*
X36928935Y12719454D01*
X36928937Y12719453D01*
X37064993Y12663096D01*
X37112710Y12656814D01*
X37210999Y12643874D01*
X37211000Y12643874D01*
X37211001Y12643874D01*
X37259669Y12650282D01*
X37357007Y12663096D01*
X37493063Y12719453D01*
X37609897Y12809103D01*
X37699547Y12925937D01*
X37755904Y13061993D01*
X37768972Y13161253D01*
X37775126Y13207999D01*
X37775126Y13208002D01*
X37755904Y13354006D01*
X37755904Y13354007D01*
X37699547Y13490063D01*
X37609897Y13606897D01*
X37493063Y13696547D01*
X37493059Y13696549D01*
X37357007Y13752904D01*
X37357005Y13752905D01*
X37211001Y13772126D01*
X37210999Y13772126D01*
X37064994Y13752905D01*
X37064992Y13752904D01*
X36928939Y13696549D01*
X36928937Y13696548D01*
X36905485Y13678552D01*
X36840316Y13653359D01*
X36771871Y13667398D01*
X36754515Y13678552D01*
X36731062Y13696548D01*
X36731060Y13696549D01*
X36595007Y13752904D01*
X36595005Y13752905D01*
X36449001Y13772126D01*
X36448999Y13772126D01*
X36302994Y13752905D01*
X36302992Y13752904D01*
X36166940Y13696549D01*
X36166937Y13696548D01*
X36166937Y13696547D01*
X36106361Y13650065D01*
X36050103Y13606897D01*
X35960451Y13490060D01*
X35904096Y13354008D01*
X35904095Y13354006D01*
X35884874Y13208002D01*
X35884874Y13207999D01*
X33433112Y13207999D01*
X33411572Y13255164D01*
X33289130Y13427110D01*
X33208929Y13503582D01*
X33136355Y13572781D01*
X32958786Y13686897D01*
X32958783Y13686898D01*
X32958782Y13686899D01*
X32784318Y13756744D01*
X32762814Y13765353D01*
X32555544Y13805300D01*
X32555543Y13805300D01*
X30997344Y13805300D01*
X30839869Y13790263D01*
X30839865Y13790262D01*
X30637335Y13730794D01*
X30449706Y13634065D01*
X30283788Y13503585D01*
X30283780Y13503577D01*
X30145553Y13344054D01*
X30145553Y13344053D01*
X30040013Y13161253D01*
X30040006Y13161237D01*
X29970970Y12961773D01*
X29941741Y12758470D01*
X29940930Y12752832D01*
X29950974Y12541984D01*
X29976145Y12438228D01*
X30000740Y12336844D01*
X30064381Y12197492D01*
X30088428Y12144836D01*
X30210870Y11972890D01*
X30210871Y11972889D01*
X30363641Y11827223D01*
X30411595Y11796405D01*
X30457350Y11743601D01*
X30467294Y11674442D01*
X30438269Y11610887D01*
X30393161Y11578012D01*
X30321747Y11547585D01*
X30108583Y11412789D01*
X29919818Y11245558D01*
X29919814Y11245554D01*
X29760317Y11050205D01*
X29760313Y11050199D01*
X29634219Y10831799D01*
X29544787Y10595988D01*
X29544787Y10595987D01*
X29533562Y10541001D01*
X635000Y10541001D01*
X635000Y13969999D01*
X53918874Y13969999D01*
X53938095Y13823995D01*
X53938096Y13823993D01*
X53990886Y13696547D01*
X53994453Y13687937D01*
X54084103Y13571103D01*
X54200937Y13481453D01*
X54336993Y13425096D01*
X54409996Y13415485D01*
X54482999Y13405874D01*
X54483000Y13405874D01*
X54483001Y13405874D01*
X54531669Y13412282D01*
X54629007Y13425096D01*
X54765063Y13481453D01*
X54873943Y13565000D01*
X78594264Y13565000D01*
X78870000Y13289264D01*
X79113244Y13532508D01*
X79470000Y13532508D01*
X79508197Y13479935D01*
X79554162Y13465000D01*
X79585838Y13465000D01*
X79631803Y13479935D01*
X79670000Y13532508D01*
X79670000Y13565000D01*
X79994264Y13565000D01*
X80270000Y13289264D01*
X80513244Y13532508D01*
X80870000Y13532508D01*
X80908197Y13479935D01*
X80954162Y13465000D01*
X80985838Y13465000D01*
X81031803Y13479935D01*
X81070000Y13532508D01*
X81070000Y13565000D01*
X81394264Y13565000D01*
X81670000Y13289264D01*
X81945736Y13565000D01*
X81670000Y13840736D01*
X81394264Y13565000D01*
X81070000Y13565000D01*
X81070000Y13597492D01*
X81031803Y13650065D01*
X80985838Y13665000D01*
X80954162Y13665000D01*
X80908197Y13650065D01*
X80870000Y13597492D01*
X80870000Y13532508D01*
X80513244Y13532508D01*
X80545736Y13565000D01*
X80270000Y13840736D01*
X79994264Y13565000D01*
X79670000Y13565000D01*
X79670000Y13597492D01*
X79631803Y13650065D01*
X79585838Y13665000D01*
X79554162Y13665000D01*
X79508197Y13650065D01*
X79470000Y13597492D01*
X79470000Y13532508D01*
X79113244Y13532508D01*
X79145736Y13565000D01*
X78870000Y13840736D01*
X78594264Y13565000D01*
X54873943Y13565000D01*
X54881897Y13571103D01*
X54971547Y13687937D01*
X55027904Y13823993D01*
X55047126Y13970000D01*
X55027904Y14116007D01*
X54971547Y14252063D01*
X54895631Y14350999D01*
X64967874Y14350999D01*
X64987095Y14204995D01*
X64987096Y14204993D01*
X65023955Y14116007D01*
X65043453Y14068937D01*
X65133103Y13952103D01*
X65249937Y13862453D01*
X65385993Y13806096D01*
X65458996Y13796485D01*
X65531999Y13786874D01*
X65532000Y13786874D01*
X65532001Y13786874D01*
X65580669Y13793282D01*
X65678007Y13806096D01*
X65814063Y13862453D01*
X65930897Y13952103D01*
X66020547Y14068937D01*
X66076904Y14204993D01*
X66084804Y14265000D01*
X77802861Y14265000D01*
X77823365Y14056814D01*
X77884093Y13856622D01*
X77937479Y13756745D01*
X78413244Y14232508D01*
X78770000Y14232508D01*
X78808197Y14179935D01*
X78854162Y14165000D01*
X78885838Y14165000D01*
X78931803Y14179935D01*
X78970000Y14232508D01*
X78970000Y14265000D01*
X79294264Y14265000D01*
X79570000Y13989264D01*
X79813244Y14232508D01*
X80170000Y14232508D01*
X80208197Y14179935D01*
X80254162Y14165000D01*
X80285838Y14165000D01*
X80331803Y14179935D01*
X80370000Y14232508D01*
X80370000Y14265000D01*
X80694264Y14265000D01*
X80970000Y13989264D01*
X81213244Y14232508D01*
X81570000Y14232508D01*
X81608197Y14179935D01*
X81654162Y14165000D01*
X81685838Y14165000D01*
X81731803Y14179935D01*
X81770000Y14232508D01*
X81770000Y14265000D01*
X82094264Y14265000D01*
X82602520Y13756744D01*
X82655906Y13856622D01*
X82716634Y14056814D01*
X82737138Y14265000D01*
X82716634Y14473187D01*
X82655906Y14673379D01*
X82602520Y14773257D01*
X82094264Y14265001D01*
X82094264Y14265000D01*
X81770000Y14265000D01*
X81770000Y14297492D01*
X81731803Y14350065D01*
X81685838Y14365000D01*
X81654162Y14365000D01*
X81608197Y14350065D01*
X81570000Y14297492D01*
X81570000Y14232508D01*
X81213244Y14232508D01*
X81245736Y14265000D01*
X80970000Y14540736D01*
X80694264Y14265000D01*
X80370000Y14265000D01*
X80370000Y14297492D01*
X80331803Y14350065D01*
X80285838Y14365000D01*
X80254162Y14365000D01*
X80208197Y14350065D01*
X80170000Y14297492D01*
X80170000Y14232508D01*
X79813244Y14232508D01*
X79845736Y14265000D01*
X79570000Y14540736D01*
X79294264Y14265000D01*
X78970000Y14265000D01*
X78970000Y14297492D01*
X78931803Y14350065D01*
X78885838Y14365000D01*
X78854162Y14365000D01*
X78808197Y14350065D01*
X78770000Y14297492D01*
X78770000Y14232508D01*
X78413244Y14232508D01*
X78445736Y14265000D01*
X78445736Y14265001D01*
X77937479Y14773257D01*
X77884092Y14673376D01*
X77823365Y14473187D01*
X77802861Y14265000D01*
X66084804Y14265000D01*
X66096126Y14351000D01*
X66076904Y14497007D01*
X66020547Y14633063D01*
X65930897Y14749897D01*
X65814063Y14839547D01*
X65814059Y14839549D01*
X65678007Y14895904D01*
X65678005Y14895905D01*
X65532001Y14915126D01*
X65531999Y14915126D01*
X65385994Y14895905D01*
X65385992Y14895904D01*
X65249940Y14839549D01*
X65249937Y14839548D01*
X65249937Y14839547D01*
X65133103Y14749897D01*
X65083182Y14684838D01*
X65043451Y14633060D01*
X64987096Y14497008D01*
X64987095Y14497006D01*
X64967874Y14351002D01*
X64967874Y14350999D01*
X54895631Y14350999D01*
X54881897Y14368897D01*
X54765063Y14458547D01*
X54765060Y14458548D01*
X54765058Y14458550D01*
X54688070Y14490439D01*
X54633666Y14534280D01*
X54611601Y14600574D01*
X54628880Y14668273D01*
X54680017Y14715884D01*
X54688070Y14719561D01*
X54752577Y14746281D01*
X54765058Y14751451D01*
X54765059Y14751451D01*
X54765059Y14751452D01*
X54765063Y14751453D01*
X54881897Y14841103D01*
X54971547Y14957937D01*
X55027904Y15093993D01*
X55041534Y15197521D01*
X78361743Y15197521D01*
X78870000Y14689264D01*
X79113244Y14932508D01*
X79470000Y14932508D01*
X79508197Y14879935D01*
X79554162Y14865000D01*
X79585838Y14865000D01*
X79631803Y14879935D01*
X79670000Y14932508D01*
X79670000Y14965000D01*
X79994264Y14965000D01*
X80270000Y14689264D01*
X80513244Y14932508D01*
X80870000Y14932508D01*
X80908197Y14879935D01*
X80954162Y14865000D01*
X80985838Y14865000D01*
X81031803Y14879935D01*
X81070000Y14932508D01*
X81070000Y14965000D01*
X81394264Y14965000D01*
X81670000Y14689264D01*
X81670001Y14689264D01*
X82178255Y15197521D01*
X82078375Y15250909D01*
X82047835Y15260173D01*
X81989396Y15298471D01*
X81965170Y15342840D01*
X81955907Y15373377D01*
X81955906Y15373379D01*
X81902520Y15473257D01*
X81394264Y14965001D01*
X81394264Y14965000D01*
X81070000Y14965000D01*
X81070000Y14997492D01*
X81031803Y15050065D01*
X80985838Y15065000D01*
X80954162Y15065000D01*
X80908197Y15050065D01*
X80870000Y14997492D01*
X80870000Y14932508D01*
X80513244Y14932508D01*
X80545736Y14965000D01*
X80270000Y15240736D01*
X79994264Y14965000D01*
X79670000Y14965000D01*
X79670000Y14997492D01*
X79631803Y15050065D01*
X79585838Y15065000D01*
X79554162Y15065000D01*
X79508197Y15050065D01*
X79470000Y14997492D01*
X79470000Y14932508D01*
X79113244Y14932508D01*
X79145736Y14965000D01*
X78637479Y15473257D01*
X78637478Y15473257D01*
X78584093Y15373380D01*
X78574827Y15342835D01*
X78536528Y15284397D01*
X78492165Y15260173D01*
X78461620Y15250907D01*
X78361743Y15197522D01*
X78361743Y15197521D01*
X55041534Y15197521D01*
X55047126Y15240000D01*
X55034559Y15335453D01*
X55027904Y15386006D01*
X55027904Y15386007D01*
X54971547Y15522063D01*
X54881897Y15638897D01*
X54765063Y15728547D01*
X54765059Y15728549D01*
X54629007Y15784904D01*
X54629005Y15784905D01*
X54483001Y15804126D01*
X54482999Y15804126D01*
X54336994Y15784905D01*
X54336992Y15784904D01*
X54200940Y15728549D01*
X54200937Y15728548D01*
X54200937Y15728547D01*
X54084103Y15638897D01*
X54042054Y15584097D01*
X53994451Y15522060D01*
X53938096Y15386008D01*
X53938095Y15386006D01*
X53918874Y15240002D01*
X53918874Y15239999D01*
X53938095Y15093995D01*
X53938096Y15093993D01*
X53978068Y14997492D01*
X53994453Y14957937D01*
X54084103Y14841103D01*
X54200937Y14751453D01*
X54270643Y14722580D01*
X54277930Y14719561D01*
X54332333Y14675720D01*
X54354398Y14609426D01*
X54337119Y14541726D01*
X54285981Y14494116D01*
X54277930Y14490439D01*
X54200940Y14458549D01*
X54200937Y14458548D01*
X54200937Y14458547D01*
X54084103Y14368897D01*
X53995250Y14253101D01*
X53994451Y14252060D01*
X53938096Y14116008D01*
X53938095Y14116006D01*
X53918874Y13970002D01*
X53918874Y13969999D01*
X635000Y13969999D01*
X635000Y15292832D01*
X29940930Y15292832D01*
X29950974Y15081984D01*
X29987236Y14932508D01*
X30000740Y14876844D01*
X30074249Y14715884D01*
X30088428Y14684836D01*
X30195748Y14534126D01*
X30210871Y14512889D01*
X30363644Y14367220D01*
X30541213Y14253104D01*
X30541218Y14253101D01*
X30737184Y14174648D01*
X30840820Y14154674D01*
X30944456Y14134700D01*
X30944457Y14134700D01*
X32502650Y14134700D01*
X32502656Y14134700D01*
X32660131Y14149737D01*
X32862667Y14209207D01*
X33050289Y14305933D01*
X33216214Y14436418D01*
X33354446Y14595947D01*
X33459990Y14778753D01*
X33529030Y14978230D01*
X33559070Y15187168D01*
X33556553Y15239999D01*
X36900874Y15239999D01*
X36920095Y15093995D01*
X36920096Y15093993D01*
X36960068Y14997492D01*
X36976453Y14957937D01*
X37066103Y14841103D01*
X37182937Y14751453D01*
X37318993Y14695096D01*
X37363292Y14689264D01*
X37464999Y14675874D01*
X37465000Y14675874D01*
X37465001Y14675874D01*
X37513669Y14682282D01*
X37611007Y14695096D01*
X37747063Y14751453D01*
X37863897Y14841103D01*
X37953547Y14957937D01*
X38009904Y15093993D01*
X38029126Y15240000D01*
X38016559Y15335453D01*
X38009904Y15386006D01*
X38009904Y15386007D01*
X37953547Y15522063D01*
X37863897Y15638897D01*
X37747063Y15728547D01*
X37747059Y15728549D01*
X37663134Y15763312D01*
X41074700Y15763312D01*
X41115745Y15543741D01*
X41115746Y15543739D01*
X41196435Y15335453D01*
X41196438Y15335447D01*
X41314027Y15145534D01*
X41314029Y15145532D01*
X41464509Y14980463D01*
X41464513Y14980459D01*
X41464516Y14980456D01*
X41642773Y14845843D01*
X41745266Y14794808D01*
X41842719Y14746281D01*
X41842723Y14746280D01*
X41842730Y14746276D01*
X42057578Y14685146D01*
X42224270Y14669700D01*
X42224274Y14669700D01*
X44135726Y14669700D01*
X44135730Y14669700D01*
X44302422Y14685146D01*
X44517270Y14746276D01*
X44717227Y14845843D01*
X44895484Y14980456D01*
X45045971Y15145532D01*
X45163563Y15335450D01*
X45244255Y15543741D01*
X45285300Y15763312D01*
X45285300Y15986688D01*
X45258697Y16128999D01*
X66491874Y16128999D01*
X66511095Y15982995D01*
X66511096Y15982993D01*
X66567453Y15846937D01*
X66657103Y15730103D01*
X66773937Y15640453D01*
X66909993Y15584096D01*
X66982996Y15574485D01*
X67055999Y15564874D01*
X67056000Y15564874D01*
X67056001Y15564874D01*
X67104669Y15571282D01*
X67202007Y15584096D01*
X67338063Y15640453D01*
X67454897Y15730103D01*
X67544547Y15846937D01*
X67565500Y15897521D01*
X79061743Y15897521D01*
X79570000Y15389264D01*
X79570001Y15389264D01*
X80078255Y15897521D01*
X80461743Y15897521D01*
X80970000Y15389264D01*
X80970001Y15389264D01*
X81478255Y15897521D01*
X81378378Y15950907D01*
X81178184Y16011635D01*
X81178188Y16011635D01*
X80970000Y16032139D01*
X80761813Y16011635D01*
X80561624Y15950908D01*
X80461743Y15897521D01*
X80078255Y15897521D01*
X79978378Y15950907D01*
X79778184Y16011635D01*
X79778188Y16011635D01*
X79570000Y16032139D01*
X79361813Y16011635D01*
X79161624Y15950908D01*
X79061743Y15897521D01*
X67565500Y15897521D01*
X67600904Y15982993D01*
X67620126Y16129000D01*
X67600904Y16275007D01*
X67544547Y16411063D01*
X67454897Y16527897D01*
X67338063Y16617547D01*
X67338059Y16617549D01*
X67202007Y16673904D01*
X67202005Y16673905D01*
X67056001Y16693126D01*
X67055999Y16693126D01*
X66909994Y16673905D01*
X66909992Y16673904D01*
X66773940Y16617549D01*
X66773937Y16617548D01*
X66773937Y16617547D01*
X66756892Y16604468D01*
X66657103Y16527897D01*
X66567451Y16411060D01*
X66511096Y16275008D01*
X66511095Y16275006D01*
X66491874Y16129002D01*
X66491874Y16128999D01*
X45258697Y16128999D01*
X45244255Y16206259D01*
X45163563Y16414550D01*
X45045971Y16604468D01*
X44968236Y16689739D01*
X44895490Y16769538D01*
X44895486Y16769542D01*
X44895485Y16769543D01*
X44895484Y16769544D01*
X44717227Y16904157D01*
X44704583Y16910453D01*
X44517280Y17003720D01*
X44517267Y17003725D01*
X44302420Y17064855D01*
X44302421Y17064855D01*
X44184071Y17075821D01*
X44135730Y17080300D01*
X42224270Y17080300D01*
X42179196Y17076124D01*
X42057578Y17064855D01*
X41842732Y17003725D01*
X41842719Y17003720D01*
X41642772Y16904157D01*
X41464513Y16769542D01*
X41464509Y16769538D01*
X41314029Y16604469D01*
X41314027Y16604467D01*
X41196438Y16414554D01*
X41196435Y16414548D01*
X41140745Y16270793D01*
X41115745Y16206259D01*
X41074700Y15986688D01*
X41074700Y15763312D01*
X37663134Y15763312D01*
X37611007Y15784904D01*
X37611005Y15784905D01*
X37465001Y15804126D01*
X37464999Y15804126D01*
X37318994Y15784905D01*
X37318992Y15784904D01*
X37182940Y15728549D01*
X37182937Y15728548D01*
X37182937Y15728547D01*
X37066103Y15638897D01*
X37024054Y15584097D01*
X36976451Y15522060D01*
X36920096Y15386008D01*
X36920095Y15386006D01*
X36900874Y15240002D01*
X36900874Y15239999D01*
X33556553Y15239999D01*
X33549026Y15398016D01*
X33499261Y15603153D01*
X33411572Y15795164D01*
X33289130Y15967110D01*
X33289128Y15967112D01*
X33136355Y16112781D01*
X32958786Y16226897D01*
X32958783Y16226898D01*
X32958782Y16226899D01*
X32762816Y16305352D01*
X32762814Y16305353D01*
X32555544Y16345300D01*
X32555543Y16345300D01*
X30997344Y16345300D01*
X30839869Y16330263D01*
X30839865Y16330262D01*
X30637335Y16270794D01*
X30449706Y16174065D01*
X30283788Y16043585D01*
X30283780Y16043577D01*
X30145553Y15884054D01*
X30145553Y15884053D01*
X30040013Y15701253D01*
X30040006Y15701237D01*
X29970970Y15501773D01*
X29941741Y15298471D01*
X29940930Y15292832D01*
X635000Y15292832D01*
X635000Y17832832D01*
X29940930Y17832832D01*
X29950974Y17621984D01*
X29976145Y17518228D01*
X30000740Y17416844D01*
X30075568Y17252995D01*
X30088428Y17224836D01*
X30210870Y17052890D01*
X30210871Y17052889D01*
X30363644Y16907220D01*
X30541213Y16793104D01*
X30541218Y16793101D01*
X30737184Y16714648D01*
X30840820Y16694674D01*
X30944456Y16674700D01*
X30944457Y16674700D01*
X32502650Y16674700D01*
X32502656Y16674700D01*
X32660131Y16689737D01*
X32862667Y16749207D01*
X33050289Y16845933D01*
X33060671Y16854097D01*
X33216211Y16976416D01*
X33216214Y16976418D01*
X33354446Y17135947D01*
X33459990Y17318753D01*
X33487764Y17398999D01*
X65602874Y17398999D01*
X65622095Y17252995D01*
X65622096Y17252993D01*
X65670578Y17135947D01*
X65678453Y17116937D01*
X65768103Y17000103D01*
X65884937Y16910453D01*
X66020993Y16854096D01*
X66082975Y16845936D01*
X66166999Y16834874D01*
X66167000Y16834874D01*
X66167001Y16834874D01*
X66251002Y16845933D01*
X66313007Y16854096D01*
X66449063Y16910453D01*
X66565897Y17000103D01*
X66655547Y17116937D01*
X66711904Y17252993D01*
X66731126Y17399000D01*
X66728776Y17416847D01*
X66711904Y17545006D01*
X66711904Y17545007D01*
X66655547Y17681063D01*
X66565897Y17797897D01*
X66449063Y17887547D01*
X66449059Y17887549D01*
X66313007Y17943904D01*
X66313005Y17943905D01*
X66167001Y17963126D01*
X66166999Y17963126D01*
X66020994Y17943905D01*
X66020992Y17943904D01*
X65884940Y17887549D01*
X65768103Y17797897D01*
X65678451Y17681060D01*
X65622096Y17545008D01*
X65622095Y17545006D01*
X65602874Y17399002D01*
X65602874Y17398999D01*
X33487764Y17398999D01*
X33529030Y17518230D01*
X33559070Y17727168D01*
X33549026Y17938016D01*
X33499261Y18143153D01*
X33411572Y18335164D01*
X33289130Y18507110D01*
X33208929Y18583582D01*
X33136355Y18652781D01*
X32958786Y18766897D01*
X32958783Y18766898D01*
X32958782Y18766899D01*
X32762816Y18845352D01*
X32762814Y18845353D01*
X32555544Y18885300D01*
X32555543Y18885300D01*
X30997344Y18885300D01*
X30839869Y18870263D01*
X30839865Y18870262D01*
X30637335Y18810794D01*
X30449706Y18714065D01*
X30283788Y18583585D01*
X30283780Y18583577D01*
X30145553Y18424054D01*
X30145553Y18424053D01*
X30040013Y18241253D01*
X30040006Y18241237D01*
X29970970Y18041773D01*
X29948797Y17887547D01*
X29940930Y17832832D01*
X635000Y17832832D01*
X635000Y22479000D01*
X29534152Y22479000D01*
X29584751Y22304311D01*
X29584752Y22304308D01*
X29692868Y22076456D01*
X29836131Y21868906D01*
X29836138Y21868898D01*
X30010824Y21687029D01*
X30010828Y21687025D01*
X30212442Y21535522D01*
X30212453Y21535516D01*
X30399908Y21437131D01*
X30450120Y21388547D01*
X30466095Y21320528D01*
X30442760Y21254670D01*
X30418934Y21229865D01*
X30283788Y21123585D01*
X30283780Y21123577D01*
X30145553Y20964054D01*
X30145553Y20964053D01*
X30040013Y20781253D01*
X30040006Y20781237D01*
X29970970Y20581773D01*
X29947559Y20418937D01*
X29940930Y20372832D01*
X29950974Y20161984D01*
X29976145Y20058228D01*
X30000740Y19956844D01*
X30075568Y19792995D01*
X30088428Y19764836D01*
X30210870Y19592890D01*
X30210871Y19592889D01*
X30363644Y19447220D01*
X30541213Y19333104D01*
X30541218Y19333101D01*
X30737184Y19254648D01*
X30840820Y19234674D01*
X30944456Y19214700D01*
X30944457Y19214700D01*
X32502650Y19214700D01*
X32502656Y19214700D01*
X32660131Y19229737D01*
X32862667Y19289207D01*
X33050289Y19385933D01*
X33060671Y19394097D01*
X33216211Y19516416D01*
X33216214Y19516418D01*
X33354446Y19675947D01*
X33459990Y19858753D01*
X33487764Y19938999D01*
X40329874Y19938999D01*
X40349095Y19792995D01*
X40349096Y19792993D01*
X40397578Y19675947D01*
X40405453Y19656937D01*
X40495103Y19540103D01*
X40611937Y19450453D01*
X40747993Y19394096D01*
X40809975Y19385936D01*
X40893999Y19374874D01*
X40894000Y19374874D01*
X40894001Y19374874D01*
X40978002Y19385933D01*
X41040007Y19394096D01*
X41176063Y19450453D01*
X41292897Y19540103D01*
X41382547Y19656937D01*
X41438904Y19792993D01*
X41458126Y19939000D01*
X41455776Y19956847D01*
X41438904Y20085006D01*
X41438904Y20085007D01*
X41382547Y20221063D01*
X41292897Y20337897D01*
X41176063Y20427547D01*
X41176059Y20427549D01*
X41040007Y20483904D01*
X41040005Y20483905D01*
X40894001Y20503126D01*
X40893999Y20503126D01*
X40747994Y20483905D01*
X40747992Y20483904D01*
X40611940Y20427549D01*
X40611937Y20427548D01*
X40611937Y20427547D01*
X40540635Y20372835D01*
X40495103Y20337897D01*
X40405451Y20221060D01*
X40349096Y20085008D01*
X40349095Y20085006D01*
X40329874Y19939002D01*
X40329874Y19938999D01*
X33487764Y19938999D01*
X33529030Y20058230D01*
X33559070Y20267168D01*
X33549026Y20478016D01*
X33499261Y20683153D01*
X33491111Y20700999D01*
X38424874Y20700999D01*
X38444095Y20554995D01*
X38444096Y20554993D01*
X38496886Y20427547D01*
X38500453Y20418937D01*
X38590103Y20302103D01*
X38706937Y20212453D01*
X38842993Y20156096D01*
X38915996Y20146485D01*
X38988999Y20136874D01*
X38989000Y20136874D01*
X38989001Y20136874D01*
X39037669Y20143282D01*
X39135007Y20156096D01*
X39271063Y20212453D01*
X39387897Y20302103D01*
X39477547Y20418937D01*
X39533904Y20554993D01*
X39546718Y20652331D01*
X39553126Y20700999D01*
X39553126Y20701002D01*
X39533904Y20847006D01*
X39533904Y20847007D01*
X39477547Y20983063D01*
X39387897Y21099897D01*
X39271063Y21189547D01*
X39271059Y21189549D01*
X39135007Y21245904D01*
X39135005Y21245905D01*
X38989001Y21265126D01*
X38988999Y21265126D01*
X38842994Y21245905D01*
X38842992Y21245904D01*
X38706940Y21189549D01*
X38590103Y21099897D01*
X38500451Y20983060D01*
X38444096Y20847008D01*
X38444095Y20847006D01*
X38424874Y20701002D01*
X38424874Y20700999D01*
X33491111Y20700999D01*
X33411572Y20875164D01*
X33289130Y21047110D01*
X33208926Y21123585D01*
X33136357Y21192779D01*
X33088403Y21223597D01*
X33042649Y21276401D01*
X33032705Y21345559D01*
X33061730Y21409115D01*
X33106840Y21441990D01*
X33178253Y21472416D01*
X33391416Y21607212D01*
X33580181Y21774443D01*
X33580185Y21774447D01*
X33739682Y21969796D01*
X33739686Y21969802D01*
X33865780Y22188202D01*
X33955212Y22424013D01*
X33955212Y22424014D01*
X33966437Y22479000D01*
X29534152Y22479000D01*
X635000Y22479000D01*
X635000Y22828605D01*
X31371114Y22828605D01*
X31401837Y22707281D01*
X31470289Y22602508D01*
X31569052Y22525637D01*
X31687424Y22485000D01*
X31781073Y22485000D01*
X31873446Y22500414D01*
X31983514Y22559981D01*
X32068278Y22652059D01*
X32103782Y22732999D01*
X73075874Y22732999D01*
X73095095Y22586995D01*
X73095096Y22586993D01*
X73139828Y22479000D01*
X73151453Y22450937D01*
X73241103Y22334103D01*
X73357937Y22244453D01*
X73493993Y22188096D01*
X73548250Y22180953D01*
X73639999Y22168874D01*
X73640000Y22168874D01*
X73640001Y22168874D01*
X73731742Y22180952D01*
X73786007Y22188096D01*
X73922063Y22244453D01*
X74038897Y22334103D01*
X74059625Y22361117D01*
X74116051Y22402319D01*
X74185797Y22406474D01*
X74246718Y22372263D01*
X74256367Y22361126D01*
X74277103Y22334103D01*
X74393937Y22244453D01*
X74529993Y22188096D01*
X74584250Y22180953D01*
X74675999Y22168874D01*
X74676000Y22168874D01*
X74676001Y22168874D01*
X74767742Y22180952D01*
X74822007Y22188096D01*
X74958063Y22244453D01*
X75045015Y22311174D01*
X75110182Y22336368D01*
X75178627Y22322330D01*
X75195980Y22311178D01*
X75204933Y22304308D01*
X75282935Y22244454D01*
X75282937Y22244453D01*
X75418993Y22188096D01*
X75473250Y22180953D01*
X75564999Y22168874D01*
X75565000Y22168874D01*
X75565001Y22168874D01*
X75656742Y22180952D01*
X75711007Y22188096D01*
X75847063Y22244453D01*
X75963897Y22334103D01*
X76038125Y22430839D01*
X76094552Y22472041D01*
X76164298Y22476196D01*
X76225218Y22441984D01*
X76234871Y22430843D01*
X76256759Y22402319D01*
X76295368Y22352002D01*
X76309103Y22334103D01*
X76425937Y22244453D01*
X76561993Y22188096D01*
X76616250Y22180953D01*
X76707999Y22168874D01*
X76708000Y22168874D01*
X76708001Y22168874D01*
X76799742Y22180952D01*
X76854007Y22188096D01*
X76990063Y22244453D01*
X77106897Y22334103D01*
X77196547Y22450937D01*
X77252904Y22586993D01*
X77272126Y22732999D01*
X77540874Y22732999D01*
X77560095Y22586995D01*
X77560096Y22586993D01*
X77604828Y22479000D01*
X77616453Y22450937D01*
X77706103Y22334103D01*
X77822937Y22244453D01*
X77958993Y22188096D01*
X78013250Y22180953D01*
X78104999Y22168874D01*
X78105000Y22168874D01*
X78105001Y22168874D01*
X78196742Y22180952D01*
X78251007Y22188096D01*
X78387063Y22244453D01*
X78503897Y22334103D01*
X78522012Y22357713D01*
X78578437Y22398914D01*
X78648183Y22403069D01*
X78709104Y22368858D01*
X78718759Y22357716D01*
X78723145Y22352000D01*
X78754472Y22311173D01*
X78785603Y22270603D01*
X78902437Y22180953D01*
X79038493Y22124596D01*
X79111496Y22114985D01*
X79184499Y22105374D01*
X79184500Y22105374D01*
X79184501Y22105374D01*
X79233169Y22111782D01*
X79330507Y22124596D01*
X79466563Y22180953D01*
X79583397Y22270603D01*
X79645854Y22351999D01*
X84525874Y22351999D01*
X84545095Y22205995D01*
X84545096Y22205993D01*
X84598752Y22076456D01*
X84601453Y22069937D01*
X84691103Y21953103D01*
X84807937Y21863453D01*
X84943993Y21807096D01*
X85016996Y21797485D01*
X85089999Y21787874D01*
X85090000Y21787874D01*
X85090001Y21787874D01*
X85138669Y21794282D01*
X85236007Y21807096D01*
X85372063Y21863453D01*
X85488897Y21953103D01*
X85578547Y22069937D01*
X85634904Y22205993D01*
X85654126Y22352000D01*
X85653374Y22357710D01*
X85634904Y22498006D01*
X85634904Y22498007D01*
X85578547Y22634063D01*
X85488897Y22750897D01*
X85372063Y22840547D01*
X85372059Y22840549D01*
X85236007Y22896904D01*
X85236005Y22896905D01*
X85090001Y22916126D01*
X85089999Y22916126D01*
X84943994Y22896905D01*
X84943992Y22896904D01*
X84807940Y22840549D01*
X84807937Y22840548D01*
X84807937Y22840547D01*
X84691103Y22750897D01*
X84628647Y22669502D01*
X84601451Y22634060D01*
X84545096Y22498008D01*
X84545095Y22498006D01*
X84525874Y22352002D01*
X84525874Y22351999D01*
X79645854Y22351999D01*
X79673047Y22387437D01*
X79729404Y22523493D01*
X79748626Y22669500D01*
X79729404Y22815507D01*
X79673047Y22951563D01*
X79583397Y23068397D01*
X79466563Y23158047D01*
X79466559Y23158049D01*
X79330507Y23214404D01*
X79330505Y23214405D01*
X79184501Y23233626D01*
X79184499Y23233626D01*
X79038494Y23214405D01*
X79038492Y23214404D01*
X78902440Y23158049D01*
X78902437Y23158048D01*
X78902437Y23158047D01*
X78785603Y23068397D01*
X78785601Y23068396D01*
X78785600Y23068394D01*
X78767486Y23044788D01*
X78711058Y23003586D01*
X78641311Y22999433D01*
X78580392Y23033646D01*
X78570738Y23044788D01*
X78503897Y23131897D01*
X78387063Y23221547D01*
X78387059Y23221549D01*
X78251007Y23277904D01*
X78251005Y23277905D01*
X78105001Y23297126D01*
X78104999Y23297126D01*
X77958994Y23277905D01*
X77958992Y23277904D01*
X77822940Y23221549D01*
X77822937Y23221548D01*
X77822937Y23221547D01*
X77706103Y23131897D01*
X77623325Y23024018D01*
X77616451Y23015060D01*
X77560096Y22879008D01*
X77560095Y22879006D01*
X77540874Y22733002D01*
X77540874Y22732999D01*
X77272126Y22732999D01*
X77272126Y22733000D01*
X77252904Y22879007D01*
X77196547Y23015063D01*
X77106897Y23131897D01*
X76990063Y23221547D01*
X76990059Y23221549D01*
X76854007Y23277904D01*
X76854005Y23277905D01*
X76708001Y23297126D01*
X76707999Y23297126D01*
X76561994Y23277905D01*
X76561992Y23277904D01*
X76425940Y23221549D01*
X76425937Y23221548D01*
X76425937Y23221547D01*
X76309103Y23131897D01*
X76242264Y23044790D01*
X76234876Y23035162D01*
X76178447Y22993960D01*
X76108701Y22989805D01*
X76047781Y23024018D01*
X76038124Y23035162D01*
X76030738Y23044788D01*
X75963897Y23131897D01*
X75847063Y23221547D01*
X75847059Y23221549D01*
X75711007Y23277904D01*
X75711005Y23277905D01*
X75565001Y23297126D01*
X75564999Y23297126D01*
X75418994Y23277905D01*
X75418992Y23277904D01*
X75282940Y23221549D01*
X75282937Y23221548D01*
X75282937Y23221547D01*
X75195984Y23154827D01*
X75130817Y23129633D01*
X75062373Y23143671D01*
X75045019Y23154823D01*
X74958063Y23221547D01*
X74958059Y23221549D01*
X74822007Y23277904D01*
X74822005Y23277905D01*
X74676001Y23297126D01*
X74675999Y23297126D01*
X74529994Y23277905D01*
X74529992Y23277904D01*
X74393940Y23221549D01*
X74393937Y23221548D01*
X74393937Y23221547D01*
X74277103Y23131897D01*
X74277102Y23131896D01*
X74277101Y23131895D01*
X74256375Y23104884D01*
X74199947Y23063682D01*
X74130201Y23059527D01*
X74069281Y23093740D01*
X74059625Y23104884D01*
X74040634Y23129633D01*
X74038897Y23131897D01*
X73922063Y23221547D01*
X73922059Y23221549D01*
X73786007Y23277904D01*
X73786005Y23277905D01*
X73640001Y23297126D01*
X73639999Y23297126D01*
X73493994Y23277905D01*
X73493992Y23277904D01*
X73357940Y23221549D01*
X73357937Y23221548D01*
X73357937Y23221547D01*
X73241103Y23131897D01*
X73158325Y23024018D01*
X73151451Y23015060D01*
X73095096Y22879008D01*
X73095095Y22879006D01*
X73075874Y22733002D01*
X73075874Y22732999D01*
X32103782Y22732999D01*
X32118551Y22766670D01*
X32128886Y22891395D01*
X32098163Y23012719D01*
X32029711Y23117492D01*
X31930948Y23194363D01*
X31812576Y23235000D01*
X31718927Y23235000D01*
X31626554Y23219586D01*
X31516486Y23160019D01*
X31431722Y23067941D01*
X31381449Y22953330D01*
X31371114Y22828605D01*
X635000Y22828605D01*
X635000Y23241001D01*
X29533562Y23241001D01*
X29533563Y23241000D01*
X31369000Y23241000D01*
X31369000Y24422000D01*
X32131000Y24422000D01*
X32131000Y23241000D01*
X33965848Y23241000D01*
X33965848Y23241001D01*
X33915248Y23415690D01*
X33915247Y23415693D01*
X33877616Y23494999D01*
X42361874Y23494999D01*
X42381095Y23348995D01*
X42381096Y23348993D01*
X42433886Y23221547D01*
X42437453Y23212937D01*
X42527103Y23096103D01*
X42643937Y23006453D01*
X42779993Y22950096D01*
X42826609Y22943959D01*
X42925999Y22930874D01*
X42926000Y22930874D01*
X42926001Y22930874D01*
X42974669Y22937282D01*
X43072007Y22950096D01*
X43208063Y23006453D01*
X43324897Y23096103D01*
X43414547Y23212937D01*
X43470904Y23348993D01*
X43490126Y23494999D01*
X82493874Y23494999D01*
X82513095Y23348995D01*
X82513096Y23348993D01*
X82565886Y23221547D01*
X82569453Y23212937D01*
X82659103Y23096103D01*
X82775937Y23006453D01*
X82911993Y22950096D01*
X82958609Y22943959D01*
X83057999Y22930874D01*
X83058000Y22930874D01*
X83058001Y22930874D01*
X83106669Y22937282D01*
X83204007Y22950096D01*
X83340063Y23006453D01*
X83456897Y23096103D01*
X83546547Y23212937D01*
X83602904Y23348993D01*
X83622126Y23495000D01*
X83617281Y23531799D01*
X83602904Y23641006D01*
X83602904Y23641007D01*
X83546547Y23777063D01*
X83456897Y23893897D01*
X83340063Y23983547D01*
X83340059Y23983549D01*
X83204007Y24039904D01*
X83204005Y24039905D01*
X83058001Y24059126D01*
X83057999Y24059126D01*
X82911994Y24039905D01*
X82911992Y24039904D01*
X82775940Y23983549D01*
X82775937Y23983548D01*
X82775937Y23983547D01*
X82726429Y23945558D01*
X82659103Y23893897D01*
X82569451Y23777060D01*
X82513096Y23641008D01*
X82513095Y23641006D01*
X82493874Y23495002D01*
X82493874Y23494999D01*
X43490126Y23494999D01*
X43490126Y23495000D01*
X43485281Y23531799D01*
X43470904Y23641006D01*
X43470904Y23641007D01*
X43414547Y23777063D01*
X43324897Y23893897D01*
X43208063Y23983547D01*
X43208059Y23983549D01*
X43072007Y24039904D01*
X43072005Y24039905D01*
X42926001Y24059126D01*
X42925999Y24059126D01*
X42779994Y24039905D01*
X42779992Y24039904D01*
X42643940Y23983549D01*
X42643937Y23983548D01*
X42643937Y23983547D01*
X42594429Y23945558D01*
X42527103Y23893897D01*
X42437451Y23777060D01*
X42381096Y23641008D01*
X42381095Y23641006D01*
X42361874Y23495002D01*
X42361874Y23494999D01*
X33877616Y23494999D01*
X33807131Y23643545D01*
X33663868Y23851095D01*
X33663861Y23851103D01*
X33489175Y24032972D01*
X33489171Y24032976D01*
X33287557Y24184479D01*
X33287546Y24184485D01*
X33149383Y24256999D01*
X48711874Y24256999D01*
X48731095Y24110995D01*
X48731096Y24110993D01*
X48783886Y23983547D01*
X48787453Y23974937D01*
X48877103Y23858103D01*
X48993937Y23768453D01*
X49129993Y23712096D01*
X49202996Y23702485D01*
X49275999Y23692874D01*
X49276000Y23692874D01*
X49276001Y23692874D01*
X49324669Y23699282D01*
X49422007Y23712096D01*
X49558063Y23768453D01*
X49674897Y23858103D01*
X49764547Y23974937D01*
X49820904Y24110993D01*
X49840126Y24257000D01*
X49820904Y24403007D01*
X49764547Y24539063D01*
X49674897Y24655897D01*
X49558063Y24745547D01*
X49558059Y24745549D01*
X49422007Y24801904D01*
X49422005Y24801905D01*
X49276001Y24821126D01*
X49275999Y24821126D01*
X49129994Y24801905D01*
X49129992Y24801904D01*
X48993940Y24745549D01*
X48993937Y24745548D01*
X48993937Y24745547D01*
X48877103Y24655897D01*
X48798579Y24553562D01*
X48787451Y24539060D01*
X48731096Y24403008D01*
X48731095Y24403006D01*
X48711874Y24257002D01*
X48711874Y24256999D01*
X33149383Y24256999D01*
X33064249Y24301681D01*
X32825021Y24381547D01*
X32576101Y24422000D01*
X32131000Y24422000D01*
X31369000Y24422000D01*
X30987037Y24422000D01*
X30798622Y24406790D01*
X30553751Y24346433D01*
X30321749Y24247587D01*
X30108583Y24112789D01*
X29919818Y23945558D01*
X29919814Y23945554D01*
X29760317Y23750205D01*
X29760313Y23750199D01*
X29634219Y23531799D01*
X29544787Y23295988D01*
X29544787Y23295987D01*
X29533562Y23241001D01*
X635000Y23241001D01*
X635000Y24891999D01*
X37535874Y24891999D01*
X37555095Y24745995D01*
X37555096Y24745993D01*
X37579425Y24687257D01*
X37611453Y24609937D01*
X37701103Y24493103D01*
X37817937Y24403453D01*
X37953993Y24347096D01*
X38026996Y24337485D01*
X38099999Y24327874D01*
X38100000Y24327874D01*
X38100001Y24327874D01*
X38148669Y24334282D01*
X38246007Y24347096D01*
X38382063Y24403453D01*
X38498897Y24493103D01*
X38588547Y24609937D01*
X38644904Y24745993D01*
X38664126Y24891999D01*
X39440874Y24891999D01*
X39460095Y24745995D01*
X39460096Y24745993D01*
X39484425Y24687257D01*
X39516453Y24609937D01*
X39606103Y24493103D01*
X39722937Y24403453D01*
X39858993Y24347096D01*
X39931996Y24337485D01*
X40004999Y24327874D01*
X40005000Y24327874D01*
X40005001Y24327874D01*
X40053669Y24334282D01*
X40151007Y24347096D01*
X40287063Y24403453D01*
X40403897Y24493103D01*
X40493547Y24609937D01*
X40549904Y24745993D01*
X40569126Y24892000D01*
X40549904Y25038007D01*
X40493547Y25174063D01*
X40403897Y25290897D01*
X40287063Y25380547D01*
X40287059Y25380549D01*
X40151007Y25436904D01*
X40151005Y25436905D01*
X40005001Y25456126D01*
X40004999Y25456126D01*
X39858994Y25436905D01*
X39858992Y25436904D01*
X39722940Y25380549D01*
X39722937Y25380548D01*
X39722937Y25380547D01*
X39606103Y25290897D01*
X39564054Y25236097D01*
X39516451Y25174060D01*
X39460096Y25038008D01*
X39460095Y25038006D01*
X39440874Y24892002D01*
X39440874Y24891999D01*
X38664126Y24891999D01*
X38664126Y24892000D01*
X38644904Y25038007D01*
X38588547Y25174063D01*
X38498897Y25290897D01*
X38382063Y25380547D01*
X38382059Y25380549D01*
X38246007Y25436904D01*
X38246005Y25436905D01*
X38100001Y25456126D01*
X38099999Y25456126D01*
X37953994Y25436905D01*
X37953992Y25436904D01*
X37817940Y25380549D01*
X37817937Y25380548D01*
X37817937Y25380547D01*
X37701103Y25290897D01*
X37659054Y25236097D01*
X37611451Y25174060D01*
X37555096Y25038008D01*
X37555095Y25038006D01*
X37535874Y24892002D01*
X37535874Y24891999D01*
X635000Y24891999D01*
X635000Y25780999D01*
X66872874Y25780999D01*
X66892095Y25634995D01*
X66892096Y25634993D01*
X66941585Y25515516D01*
X66948453Y25498937D01*
X67038103Y25382103D01*
X67154937Y25292453D01*
X67290993Y25236096D01*
X67363996Y25226485D01*
X67436999Y25216874D01*
X67437000Y25216874D01*
X67437001Y25216874D01*
X67485669Y25223282D01*
X67583007Y25236096D01*
X67719063Y25292453D01*
X67835897Y25382103D01*
X67925547Y25498937D01*
X67937171Y25526999D01*
X69285874Y25526999D01*
X69305095Y25380995D01*
X69305096Y25380993D01*
X69361453Y25244937D01*
X69451103Y25128103D01*
X69567937Y25038453D01*
X69703993Y24982096D01*
X69776996Y24972485D01*
X69849999Y24962874D01*
X69850000Y24962874D01*
X69850001Y24962874D01*
X69898669Y24969282D01*
X69996007Y24982096D01*
X70132063Y25038453D01*
X70248897Y25128103D01*
X70338547Y25244937D01*
X70394904Y25380993D01*
X70396616Y25394000D01*
X81476849Y25394000D01*
X81514865Y25276997D01*
X81622509Y25076961D01*
X81622511Y25076958D01*
X81764145Y24899354D01*
X81935210Y24749900D01*
X81935218Y24749893D01*
X82130218Y24633385D01*
X82130226Y24633381D01*
X82342904Y24553562D01*
X82566414Y24513000D01*
X82849000Y24513000D01*
X82849000Y25394000D01*
X83611000Y25394000D01*
X83611000Y24513000D01*
X83836669Y24513000D01*
X83836672Y24513001D01*
X84006250Y24528262D01*
X84225217Y24588693D01*
X84225230Y24588698D01*
X84429891Y24687257D01*
X84429901Y24687263D01*
X84613672Y24820781D01*
X84613677Y24820785D01*
X84770659Y24984977D01*
X84895804Y25174563D01*
X84985085Y25383445D01*
X84987494Y25394000D01*
X85906849Y25394000D01*
X85944865Y25276997D01*
X86052509Y25076961D01*
X86052511Y25076958D01*
X86194145Y24899354D01*
X86365210Y24749900D01*
X86365218Y24749893D01*
X86560218Y24633385D01*
X86560226Y24633381D01*
X86772904Y24553562D01*
X86996414Y24513000D01*
X87029000Y24513000D01*
X87029000Y25394000D01*
X85906849Y25394000D01*
X84987494Y25394000D01*
X83611000Y25394000D01*
X82849000Y25394000D01*
X81476849Y25394000D01*
X70396616Y25394000D01*
X70409309Y25490412D01*
X70414126Y25526999D01*
X70414126Y25527002D01*
X70394904Y25673006D01*
X70394904Y25673007D01*
X70340992Y25803160D01*
X82376105Y25803160D01*
X82386454Y25691479D01*
X82436448Y25591078D01*
X82519334Y25515516D01*
X82623920Y25475000D01*
X83807802Y25475000D01*
X83890250Y25490412D01*
X83985610Y25549457D01*
X84053201Y25638962D01*
X84083895Y25746840D01*
X84073546Y25858521D01*
X84023552Y25958922D01*
X83940666Y26034484D01*
X83836080Y26075000D01*
X82652198Y26075000D01*
X82569750Y26059588D01*
X82474390Y26000543D01*
X82406799Y25911038D01*
X82376105Y25803160D01*
X70340992Y25803160D01*
X70338547Y25809063D01*
X70248897Y25925897D01*
X70132063Y26015547D01*
X70132059Y26015549D01*
X69996007Y26071904D01*
X69996005Y26071905D01*
X69850001Y26091126D01*
X69849999Y26091126D01*
X69703994Y26071905D01*
X69703992Y26071904D01*
X69567940Y26015549D01*
X69567937Y26015548D01*
X69567937Y26015547D01*
X69494142Y25958922D01*
X69451103Y25925897D01*
X69361451Y25809060D01*
X69305096Y25673008D01*
X69305095Y25673006D01*
X69285874Y25527002D01*
X69285874Y25526999D01*
X67937171Y25526999D01*
X67981904Y25634993D01*
X68001126Y25781000D01*
X67997431Y25809063D01*
X67981904Y25927006D01*
X67981904Y25927007D01*
X67925547Y26063063D01*
X67835897Y26179897D01*
X67719063Y26269547D01*
X67719059Y26269549D01*
X67583007Y26325904D01*
X67583005Y26325905D01*
X67437001Y26345126D01*
X67436999Y26345126D01*
X67290994Y26325905D01*
X67290992Y26325904D01*
X67154940Y26269549D01*
X67154937Y26269548D01*
X67154937Y26269547D01*
X67038103Y26179897D01*
X66996054Y26125097D01*
X66948451Y26063060D01*
X66892096Y25927008D01*
X66892095Y25927006D01*
X66872874Y25781002D01*
X66872874Y25780999D01*
X635000Y25780999D01*
X635000Y26669999D01*
X77350874Y26669999D01*
X77370095Y26523995D01*
X77370096Y26523993D01*
X77426453Y26387937D01*
X77516103Y26271103D01*
X77632937Y26181453D01*
X77768993Y26125096D01*
X77841996Y26115485D01*
X77914999Y26105874D01*
X77915000Y26105874D01*
X77915001Y26105874D01*
X77963669Y26112282D01*
X78061007Y26125096D01*
X78135617Y26156001D01*
X81472505Y26156001D01*
X81472506Y26156000D01*
X84983151Y26156000D01*
X84983150Y26156001D01*
X85902505Y26156001D01*
X85902506Y26156000D01*
X87029000Y26156000D01*
X87029000Y27034811D01*
X86883752Y27021739D01*
X86883744Y27021738D01*
X86664782Y26961308D01*
X86664769Y26961303D01*
X86460108Y26862744D01*
X86460098Y26862738D01*
X86276327Y26729220D01*
X86276322Y26729216D01*
X86119340Y26565024D01*
X85994195Y26375438D01*
X85904914Y26166556D01*
X85902505Y26156001D01*
X84983150Y26156001D01*
X84945134Y26273004D01*
X84837490Y26473040D01*
X84837488Y26473043D01*
X84695854Y26650647D01*
X84524789Y26800101D01*
X84524785Y26800104D01*
X84368571Y26893440D01*
X84321118Y26944723D01*
X84308924Y27013521D01*
X84317614Y27047346D01*
X84320687Y27054764D01*
X84340466Y27205000D01*
X84336631Y27234126D01*
X84320687Y27355235D01*
X84320687Y27355236D01*
X84262698Y27495233D01*
X84170451Y27615451D01*
X84050233Y27707698D01*
X84050229Y27707700D01*
X83986801Y27733973D01*
X83910236Y27765687D01*
X83896171Y27767539D01*
X83797727Y27780500D01*
X83797720Y27780500D01*
X83722280Y27780500D01*
X83722272Y27780500D01*
X83609764Y27765687D01*
X83609763Y27765687D01*
X83469770Y27707700D01*
X83469767Y27707699D01*
X83469767Y27707698D01*
X83349549Y27615451D01*
X83273141Y27515874D01*
X83257300Y27495230D01*
X83199313Y27355237D01*
X83199312Y27355235D01*
X83179534Y27205001D01*
X83183196Y27177186D01*
X83172431Y27108151D01*
X83126051Y27055895D01*
X83060257Y27037000D01*
X82623327Y27037000D01*
X82453749Y27021739D01*
X82234782Y26961308D01*
X82234769Y26961303D01*
X82030108Y26862744D01*
X82030098Y26862738D01*
X81846327Y26729220D01*
X81846322Y26729216D01*
X81689340Y26565024D01*
X81564195Y26375438D01*
X81474914Y26166556D01*
X81472505Y26156001D01*
X78135617Y26156001D01*
X78197063Y26181453D01*
X78313897Y26271103D01*
X78403547Y26387937D01*
X78459904Y26523993D01*
X78479126Y26670000D01*
X78474873Y26702302D01*
X78459904Y26816006D01*
X78459904Y26816007D01*
X78403547Y26952063D01*
X78313897Y27068897D01*
X78197063Y27158547D01*
X78197059Y27158549D01*
X78061007Y27214904D01*
X78061005Y27214905D01*
X77915001Y27234126D01*
X77914999Y27234126D01*
X77768994Y27214905D01*
X77768992Y27214904D01*
X77632940Y27158549D01*
X77632937Y27158548D01*
X77632937Y27158547D01*
X77516103Y27068897D01*
X77440910Y26970903D01*
X77426451Y26952060D01*
X77370096Y26816008D01*
X77370095Y26816006D01*
X77350874Y26670002D01*
X77350874Y26669999D01*
X635000Y26669999D01*
X635000Y27430999D01*
X2864874Y27430999D01*
X2884095Y27284995D01*
X2884096Y27284993D01*
X2940038Y27149937D01*
X2940453Y27148937D01*
X3030103Y27032103D01*
X3146937Y26942453D01*
X3282993Y26886096D01*
X3355996Y26876485D01*
X3428999Y26866874D01*
X3429000Y26866874D01*
X3429001Y26866874D01*
X3477669Y26873282D01*
X3575007Y26886096D01*
X3711063Y26942453D01*
X3827897Y27032103D01*
X3917547Y27148937D01*
X3973904Y27284993D01*
X3993126Y27431000D01*
X3992994Y27431999D01*
X34614874Y27431999D01*
X34634095Y27285995D01*
X34634096Y27285993D01*
X34686886Y27158547D01*
X34690453Y27149937D01*
X34780103Y27033103D01*
X34896937Y26943453D01*
X35032993Y26887096D01*
X35105996Y26877485D01*
X35178999Y26867874D01*
X35179000Y26867874D01*
X35179001Y26867874D01*
X35227669Y26874282D01*
X35325007Y26887096D01*
X35461063Y26943453D01*
X35577897Y27033103D01*
X35667547Y27149937D01*
X35723904Y27285993D01*
X35736718Y27383331D01*
X35743126Y27431999D01*
X35743126Y27432002D01*
X35724036Y27577007D01*
X35723904Y27578007D01*
X35667547Y27714063D01*
X35577897Y27830897D01*
X35461063Y27920547D01*
X35461059Y27920549D01*
X35325007Y27976904D01*
X35325005Y27976905D01*
X35179001Y27996126D01*
X35178999Y27996126D01*
X35032994Y27976905D01*
X35032992Y27976904D01*
X34896940Y27920549D01*
X34896937Y27920548D01*
X34896937Y27920547D01*
X34895634Y27919547D01*
X34780103Y27830897D01*
X34690451Y27714060D01*
X34634096Y27578008D01*
X34634095Y27578006D01*
X34614874Y27432002D01*
X34614874Y27431999D01*
X3992994Y27431999D01*
X3979422Y27535096D01*
X3973904Y27577007D01*
X3917547Y27713063D01*
X3827897Y27829897D01*
X3711063Y27919547D01*
X3711059Y27919549D01*
X3575007Y27975904D01*
X3575005Y27975905D01*
X3429001Y27995126D01*
X3428999Y27995126D01*
X3282994Y27975905D01*
X3282992Y27975904D01*
X3146940Y27919549D01*
X3146937Y27919548D01*
X3146937Y27919547D01*
X3030103Y27829897D01*
X2941221Y27714063D01*
X2940451Y27713060D01*
X2884096Y27577008D01*
X2884095Y27577006D01*
X2864874Y27431002D01*
X2864874Y27430999D01*
X635000Y27430999D01*
X635000Y28066999D01*
X10738874Y28066999D01*
X10758095Y27920995D01*
X10758096Y27920993D01*
X10802000Y27814999D01*
X10814453Y27784937D01*
X10904103Y27668103D01*
X11020937Y27578453D01*
X11156993Y27522096D01*
X11229996Y27512485D01*
X11302999Y27502874D01*
X11303000Y27502874D01*
X11303001Y27502874D01*
X11351669Y27509282D01*
X11449007Y27522096D01*
X11585063Y27578453D01*
X11701897Y27668103D01*
X11791547Y27784937D01*
X11847904Y27920993D01*
X11867126Y28067000D01*
X11847904Y28213007D01*
X11791547Y28349063D01*
X11701897Y28465897D01*
X11585063Y28555547D01*
X11585059Y28555549D01*
X11449007Y28611904D01*
X11449005Y28611905D01*
X11425495Y28615000D01*
X18670816Y28615000D01*
X18690302Y28417145D01*
X18748017Y28226885D01*
X18841733Y28051556D01*
X18841737Y28051549D01*
X18967863Y27897864D01*
X19121548Y27771738D01*
X19121555Y27771734D01*
X19296884Y27678018D01*
X19296886Y27678018D01*
X19296889Y27678016D01*
X19487143Y27620303D01*
X19685000Y27600816D01*
X19882857Y27620303D01*
X20073111Y27678016D01*
X20078887Y27681103D01*
X20248444Y27771734D01*
X20248450Y27771737D01*
X20402136Y27897864D01*
X20528263Y28051550D01*
X20614564Y28213007D01*
X20621982Y28226885D01*
X20621982Y28226886D01*
X20621984Y28226889D01*
X20679697Y28417143D01*
X20695244Y28574999D01*
X24200874Y28574999D01*
X24220095Y28428995D01*
X24220096Y28428993D01*
X24253204Y28349063D01*
X24276453Y28292937D01*
X24366103Y28176103D01*
X24482937Y28086453D01*
X24618993Y28030096D01*
X24691996Y28020485D01*
X24764999Y28010874D01*
X24765000Y28010874D01*
X24765001Y28010874D01*
X24813669Y28017282D01*
X24911007Y28030096D01*
X25047063Y28086453D01*
X25163897Y28176103D01*
X25253547Y28292937D01*
X25309904Y28428993D01*
X25326565Y28555549D01*
X25329126Y28574999D01*
X28010874Y28574999D01*
X28030095Y28428995D01*
X28030096Y28428993D01*
X28063204Y28349063D01*
X28086453Y28292937D01*
X28176103Y28176103D01*
X28292937Y28086453D01*
X28428993Y28030096D01*
X28501996Y28020485D01*
X28574999Y28010874D01*
X28575000Y28010874D01*
X28575001Y28010874D01*
X28623669Y28017282D01*
X28721007Y28030096D01*
X28857063Y28086453D01*
X28973897Y28176103D01*
X29063547Y28292937D01*
X29119904Y28428993D01*
X29136565Y28555549D01*
X29139126Y28574999D01*
X29139126Y28575002D01*
X29119904Y28721006D01*
X29119904Y28721007D01*
X29063547Y28857063D01*
X28973897Y28973897D01*
X28857063Y29063547D01*
X28857059Y29063549D01*
X28721007Y29119904D01*
X28721005Y29119905D01*
X28575001Y29139126D01*
X28574999Y29139126D01*
X28428994Y29119905D01*
X28428992Y29119904D01*
X28292940Y29063549D01*
X28292937Y29063548D01*
X28292937Y29063547D01*
X28200875Y28992905D01*
X28176103Y28973897D01*
X28086451Y28857060D01*
X28030096Y28721008D01*
X28030095Y28721006D01*
X28010874Y28575002D01*
X28010874Y28574999D01*
X25329126Y28574999D01*
X25329126Y28575002D01*
X25309904Y28721006D01*
X25309904Y28721007D01*
X25253547Y28857063D01*
X25163897Y28973897D01*
X25047063Y29063547D01*
X25047059Y29063549D01*
X24911007Y29119904D01*
X24911005Y29119905D01*
X24765001Y29139126D01*
X24764999Y29139126D01*
X24618994Y29119905D01*
X24618992Y29119904D01*
X24482940Y29063549D01*
X24482937Y29063548D01*
X24482937Y29063547D01*
X24390875Y28992905D01*
X24366103Y28973897D01*
X24276451Y28857060D01*
X24220096Y28721008D01*
X24220095Y28721006D01*
X24200874Y28575002D01*
X24200874Y28574999D01*
X20695244Y28574999D01*
X20699184Y28615000D01*
X20679697Y28812857D01*
X20621984Y29003111D01*
X20621982Y29003114D01*
X20621982Y29003116D01*
X20528266Y29178445D01*
X20528262Y29178452D01*
X20402136Y29332137D01*
X20248451Y29458263D01*
X20248444Y29458267D01*
X20073115Y29551983D01*
X19882855Y29609698D01*
X19685000Y29629184D01*
X19487144Y29609698D01*
X19296884Y29551983D01*
X19121555Y29458267D01*
X19121548Y29458263D01*
X18967863Y29332137D01*
X18841737Y29178452D01*
X18841733Y29178445D01*
X18748017Y29003116D01*
X18690302Y28812856D01*
X18670816Y28615000D01*
X11425495Y28615000D01*
X11303001Y28631126D01*
X11302999Y28631126D01*
X11156994Y28611905D01*
X11156992Y28611904D01*
X11020940Y28555549D01*
X11020937Y28555548D01*
X11020937Y28555547D01*
X10904103Y28465897D01*
X10822773Y28359905D01*
X10814451Y28349060D01*
X10758096Y28213008D01*
X10758095Y28213006D01*
X10738874Y28067002D01*
X10738874Y28066999D01*
X635000Y28066999D01*
X635000Y29717999D01*
X47441874Y29717999D01*
X47461095Y29571995D01*
X47461096Y29571993D01*
X47512091Y29448880D01*
X47517453Y29435937D01*
X47607103Y29319103D01*
X47723937Y29229453D01*
X47859993Y29173096D01*
X47932996Y29163485D01*
X48005999Y29153874D01*
X48006000Y29153874D01*
X48006001Y29153874D01*
X48054669Y29160282D01*
X48152007Y29173096D01*
X48288063Y29229453D01*
X48404897Y29319103D01*
X48494547Y29435937D01*
X48550904Y29571993D01*
X48570126Y29718000D01*
X48569108Y29725730D01*
X48550904Y29864006D01*
X48550904Y29864007D01*
X48494547Y30000063D01*
X48418631Y30098999D01*
X49854874Y30098999D01*
X49874095Y29952995D01*
X49874096Y29952993D01*
X49926241Y29827104D01*
X49930453Y29816937D01*
X50020103Y29700103D01*
X50136937Y29610453D01*
X50272993Y29554096D01*
X50345996Y29544485D01*
X50418999Y29534874D01*
X50419000Y29534874D01*
X50419001Y29534874D01*
X50467669Y29541282D01*
X50565007Y29554096D01*
X50689047Y29605477D01*
X50758516Y29612945D01*
X50783950Y29605477D01*
X50907993Y29554096D01*
X51049478Y29535470D01*
X51113373Y29507204D01*
X51151845Y29448880D01*
X51152677Y29379015D01*
X51147855Y29365082D01*
X51144096Y29356007D01*
X51144095Y29356006D01*
X51124874Y29210002D01*
X51124874Y29209999D01*
X51144095Y29063995D01*
X51144096Y29063993D01*
X51200451Y28927940D01*
X51200453Y28927937D01*
X51276918Y28828286D01*
X51302112Y28763117D01*
X51288074Y28694672D01*
X51239260Y28644683D01*
X51171168Y28629019D01*
X51162357Y28629861D01*
X51054001Y28644126D01*
X51053999Y28644126D01*
X50907994Y28624905D01*
X50907992Y28624904D01*
X50771940Y28568549D01*
X50771937Y28568548D01*
X50771937Y28568547D01*
X50655103Y28478897D01*
X50607718Y28417143D01*
X50565451Y28362060D01*
X50509096Y28226008D01*
X50509095Y28226006D01*
X50489874Y28080002D01*
X50489874Y28079999D01*
X50509095Y27933995D01*
X50509096Y27933993D01*
X50558385Y27814999D01*
X50565453Y27797937D01*
X50655103Y27681103D01*
X50771937Y27591453D01*
X50907993Y27535096D01*
X50980996Y27525485D01*
X51053999Y27515874D01*
X51054000Y27515874D01*
X51054001Y27515874D01*
X51102669Y27522282D01*
X51200007Y27535096D01*
X51336063Y27591453D01*
X51452897Y27681103D01*
X51456654Y27685999D01*
X62681874Y27685999D01*
X62701095Y27539995D01*
X62701096Y27539993D01*
X62752413Y27416103D01*
X62757453Y27403937D01*
X62847103Y27287103D01*
X62963937Y27197453D01*
X63099993Y27141096D01*
X63172996Y27131485D01*
X63245999Y27121874D01*
X63246000Y27121874D01*
X63246001Y27121874D01*
X63294669Y27128282D01*
X63392007Y27141096D01*
X63528063Y27197453D01*
X63644897Y27287103D01*
X63734547Y27403937D01*
X63790904Y27539993D01*
X63809481Y27681103D01*
X63810126Y27685999D01*
X63810126Y27686002D01*
X63793143Y27814999D01*
X80207874Y27814999D01*
X80227095Y27668995D01*
X80227096Y27668993D01*
X80282558Y27535096D01*
X80283453Y27532937D01*
X80373103Y27416103D01*
X80489937Y27326453D01*
X80625993Y27270096D01*
X80698996Y27260485D01*
X80771999Y27250874D01*
X80772000Y27250874D01*
X80772001Y27250874D01*
X80820669Y27257282D01*
X80918007Y27270096D01*
X81054063Y27326453D01*
X81170897Y27416103D01*
X81260547Y27532937D01*
X81316904Y27668993D01*
X81336126Y27815000D01*
X81316904Y27961007D01*
X81260547Y28097063D01*
X81170897Y28213897D01*
X81054063Y28303547D01*
X81054059Y28303549D01*
X80918007Y28359904D01*
X80918005Y28359905D01*
X80772001Y28379126D01*
X80771999Y28379126D01*
X80625994Y28359905D01*
X80625992Y28359904D01*
X80489940Y28303549D01*
X80489937Y28303548D01*
X80489937Y28303547D01*
X80373103Y28213897D01*
X80304988Y28125127D01*
X80283451Y28097060D01*
X80227096Y27961008D01*
X80227095Y27961006D01*
X80207874Y27815002D01*
X80207874Y27814999D01*
X63793143Y27814999D01*
X63790904Y27832006D01*
X63790904Y27832007D01*
X63734547Y27968063D01*
X63734546Y27968065D01*
X63716553Y27991513D01*
X63691358Y28056682D01*
X63705396Y28125127D01*
X63716553Y28142487D01*
X63734546Y28165936D01*
X63734545Y28165936D01*
X63734547Y28165937D01*
X63790904Y28301993D01*
X63810126Y28448000D01*
X63806058Y28478897D01*
X63790904Y28594006D01*
X63790904Y28594007D01*
X63734547Y28730063D01*
X63644897Y28846897D01*
X63528063Y28936547D01*
X63528059Y28936549D01*
X63392007Y28992904D01*
X63392005Y28992905D01*
X63246001Y29012126D01*
X63245999Y29012126D01*
X63099994Y28992905D01*
X63099992Y28992904D01*
X62963940Y28936549D01*
X62963937Y28936548D01*
X62963937Y28936547D01*
X62847103Y28846897D01*
X62783987Y28764642D01*
X62757451Y28730060D01*
X62701096Y28594008D01*
X62701095Y28594006D01*
X62681874Y28448002D01*
X62681874Y28447999D01*
X62701095Y28301995D01*
X62701096Y28301993D01*
X62757451Y28165940D01*
X62757452Y28165938D01*
X62775448Y28142485D01*
X62800641Y28077316D01*
X62786602Y28008871D01*
X62775448Y27991515D01*
X62757452Y27968063D01*
X62757451Y27968061D01*
X62701096Y27832008D01*
X62701095Y27832006D01*
X62681874Y27686002D01*
X62681874Y27685999D01*
X51456654Y27685999D01*
X51542547Y27797937D01*
X51598904Y27933993D01*
X51618126Y28080000D01*
X51617276Y28086453D01*
X51598904Y28226006D01*
X51598904Y28226007D01*
X51542547Y28362063D01*
X51466079Y28461717D01*
X51440887Y28526883D01*
X51454925Y28595328D01*
X51503739Y28645318D01*
X51571830Y28660982D01*
X51580624Y28660142D01*
X51689000Y28645874D01*
X51689001Y28645874D01*
X51737669Y28652282D01*
X51835007Y28665096D01*
X51971063Y28721453D01*
X51994513Y28739447D01*
X52059682Y28764642D01*
X52128127Y28750604D01*
X52145487Y28739447D01*
X52168935Y28721454D01*
X52168939Y28721452D01*
X52170016Y28721006D01*
X52304993Y28665096D01*
X52342638Y28660140D01*
X52450999Y28645874D01*
X52451000Y28645874D01*
X52451001Y28645874D01*
X52499669Y28652282D01*
X52597007Y28665096D01*
X52733063Y28721453D01*
X52849897Y28811103D01*
X52939547Y28927937D01*
X52995904Y29063993D01*
X53015126Y29210000D01*
X52995904Y29356007D01*
X52939547Y29492063D01*
X52849897Y29608897D01*
X52733063Y29698547D01*
X52733059Y29698549D01*
X52597007Y29754904D01*
X52597005Y29754905D01*
X52451001Y29774126D01*
X52450999Y29774126D01*
X52304994Y29754905D01*
X52304992Y29754904D01*
X52168939Y29698549D01*
X52168937Y29698548D01*
X52145485Y29680552D01*
X52080316Y29655359D01*
X52011871Y29669398D01*
X51994515Y29680552D01*
X51971062Y29698548D01*
X51971060Y29698549D01*
X51835007Y29754904D01*
X51835005Y29754905D01*
X51693522Y29773531D01*
X51629625Y29801798D01*
X51591154Y29860122D01*
X51590323Y29929987D01*
X51595144Y29943917D01*
X51598904Y29952993D01*
X51618126Y30099000D01*
X51601406Y30225999D01*
X62173874Y30225999D01*
X62193095Y30079995D01*
X62193096Y30079993D01*
X62226204Y30000063D01*
X62249453Y29943937D01*
X62339103Y29827103D01*
X62455937Y29737453D01*
X62591993Y29681096D01*
X62664996Y29671485D01*
X62737999Y29661874D01*
X62738000Y29661874D01*
X62738001Y29661874D01*
X62795151Y29669398D01*
X62884007Y29681096D01*
X63008047Y29732477D01*
X63077516Y29739945D01*
X63102950Y29732477D01*
X63226993Y29681096D01*
X63299996Y29671485D01*
X63372999Y29661874D01*
X63373000Y29661874D01*
X63373001Y29661874D01*
X63430151Y29669398D01*
X63519007Y29681096D01*
X63655063Y29737453D01*
X63771897Y29827103D01*
X63861547Y29943937D01*
X63917904Y30079993D01*
X63937126Y30226000D01*
X63932267Y30262905D01*
X63917904Y30372006D01*
X63917904Y30372007D01*
X63866523Y30496048D01*
X63859055Y30565516D01*
X63866524Y30590953D01*
X63886219Y30638500D01*
X63917904Y30714993D01*
X63937126Y30861000D01*
X63925175Y30951774D01*
X63917904Y31007006D01*
X63917904Y31007007D01*
X63861547Y31143063D01*
X63771897Y31259897D01*
X63655063Y31349547D01*
X63655059Y31349549D01*
X63519007Y31405904D01*
X63519005Y31405905D01*
X63373001Y31425126D01*
X63372999Y31425126D01*
X63226994Y31405905D01*
X63226989Y31405903D01*
X63102952Y31354525D01*
X63033483Y31347056D01*
X63008048Y31354525D01*
X62884010Y31405903D01*
X62884005Y31405905D01*
X62738001Y31425126D01*
X62737999Y31425126D01*
X62591994Y31405905D01*
X62591992Y31405904D01*
X62455940Y31349549D01*
X62455937Y31349548D01*
X62455937Y31349547D01*
X62339103Y31259897D01*
X62259382Y31156002D01*
X62249451Y31143060D01*
X62193096Y31007008D01*
X62193095Y31007006D01*
X62173874Y30861002D01*
X62173874Y30860999D01*
X62193095Y30714995D01*
X62193097Y30714990D01*
X62244475Y30590952D01*
X62251944Y30521483D01*
X62244475Y30496048D01*
X62193097Y30372011D01*
X62193095Y30372006D01*
X62173874Y30226002D01*
X62173874Y30225999D01*
X51601406Y30225999D01*
X51598904Y30245007D01*
X51542547Y30381063D01*
X51452897Y30497897D01*
X51336063Y30587547D01*
X51336059Y30587549D01*
X51200007Y30643904D01*
X51200005Y30643905D01*
X51054001Y30663126D01*
X51053999Y30663126D01*
X50907994Y30643905D01*
X50907989Y30643903D01*
X50783952Y30592525D01*
X50714483Y30585056D01*
X50689048Y30592525D01*
X50565010Y30643903D01*
X50565005Y30643905D01*
X50419001Y30663126D01*
X50418999Y30663126D01*
X50272994Y30643905D01*
X50272992Y30643904D01*
X50136940Y30587549D01*
X50136937Y30587548D01*
X50136937Y30587547D01*
X50108226Y30565516D01*
X50020103Y30497897D01*
X49930451Y30381060D01*
X49874096Y30245008D01*
X49874095Y30245006D01*
X49854874Y30099002D01*
X49854874Y30098999D01*
X48418631Y30098999D01*
X48404897Y30116897D01*
X48288063Y30206547D01*
X48288059Y30206549D01*
X48152007Y30262904D01*
X48152005Y30262905D01*
X48006001Y30282126D01*
X48005999Y30282126D01*
X47859994Y30262905D01*
X47859992Y30262904D01*
X47723940Y30206549D01*
X47607103Y30116897D01*
X47517451Y30000060D01*
X47461096Y29864008D01*
X47461095Y29864006D01*
X47441874Y29718002D01*
X47441874Y29717999D01*
X635000Y29717999D01*
X635000Y32638999D01*
X9170390Y32638999D01*
X9190804Y32353567D01*
X9251628Y32073963D01*
X9251630Y32073957D01*
X9251631Y32073954D01*
X9338108Y31842102D01*
X9351635Y31805834D01*
X9488770Y31554691D01*
X9488775Y31554683D01*
X9660254Y31325613D01*
X9660270Y31325595D01*
X9862594Y31123271D01*
X9862612Y31123255D01*
X10091682Y30951776D01*
X10091690Y30951771D01*
X10342833Y30814636D01*
X10342832Y30814636D01*
X10342836Y30814635D01*
X10342839Y30814633D01*
X10610954Y30714631D01*
X10610960Y30714630D01*
X10610962Y30714629D01*
X10890566Y30653805D01*
X10890568Y30653805D01*
X10890572Y30653804D01*
X11104552Y30638500D01*
X11247448Y30638500D01*
X11461428Y30653804D01*
X11741046Y30714631D01*
X12009161Y30814633D01*
X12260315Y30951774D01*
X12489395Y31123261D01*
X12691739Y31325605D01*
X12863226Y31554685D01*
X13000367Y31805839D01*
X13100369Y32073954D01*
X13161196Y32353572D01*
X13172527Y32512000D01*
X30893001Y32512000D01*
X30893001Y32118283D01*
X30907642Y31969612D01*
X30965510Y31778849D01*
X31059479Y31603044D01*
X31059481Y31603041D01*
X31185944Y31448945D01*
X31340040Y31322482D01*
X31340043Y31322480D01*
X31515848Y31228511D01*
X31706610Y31170643D01*
X31855283Y31156001D01*
X32123999Y31156001D01*
X32124000Y31156002D01*
X32124000Y32512000D01*
X30893001Y32512000D01*
X13172527Y32512000D01*
X13181610Y32639000D01*
X13180107Y32660008D01*
X13172117Y32771734D01*
X13161196Y32924428D01*
X13155823Y32949126D01*
X13100371Y33204038D01*
X13100370Y33204040D01*
X13100369Y33204046D01*
X13000367Y33472161D01*
X12922370Y33615000D01*
X18670816Y33615000D01*
X18690302Y33417145D01*
X18748017Y33226885D01*
X18841733Y33051556D01*
X18841737Y33051549D01*
X18967863Y32897864D01*
X19121548Y32771738D01*
X19121555Y32771734D01*
X19296884Y32678018D01*
X19296886Y32678018D01*
X19296889Y32678016D01*
X19487143Y32620303D01*
X19685000Y32600816D01*
X19882857Y32620303D01*
X20073111Y32678016D01*
X20248450Y32771737D01*
X20312992Y32824705D01*
X32030000Y32824705D01*
X32068481Y32693649D01*
X32142327Y32578742D01*
X32245555Y32489295D01*
X32369801Y32432554D01*
X32471025Y32418000D01*
X32538975Y32418000D01*
X32640199Y32432554D01*
X32764445Y32489295D01*
X32867673Y32578742D01*
X32886000Y32607260D01*
X32886000Y31156001D01*
X33154717Y31156001D01*
X33303388Y31170643D01*
X33494151Y31228511D01*
X33669956Y31322480D01*
X33669959Y31322482D01*
X33824055Y31448945D01*
X33950518Y31603041D01*
X33950520Y31603044D01*
X34044488Y31778847D01*
X34059101Y31827019D01*
X34097398Y31885458D01*
X34161210Y31913915D01*
X34230277Y31903356D01*
X34261300Y31882662D01*
X34305793Y31842102D01*
X34305795Y31842100D01*
X34487829Y31729390D01*
X34487830Y31729390D01*
X34487833Y31729388D01*
X34687483Y31652043D01*
X34897946Y31612700D01*
X34897948Y31612700D01*
X35112052Y31612700D01*
X35112054Y31612700D01*
X35322517Y31652043D01*
X35522167Y31729388D01*
X35704206Y31842101D01*
X35862434Y31986345D01*
X35991464Y32157208D01*
X36086900Y32348870D01*
X36135734Y32520504D01*
X36173013Y32579597D01*
X36236323Y32609154D01*
X36305562Y32599792D01*
X36358749Y32554482D01*
X36374265Y32520504D01*
X36376685Y32512000D01*
X36423098Y32348875D01*
X36423104Y32348860D01*
X36518536Y32157208D01*
X36647567Y31986343D01*
X36805793Y31842102D01*
X36805795Y31842100D01*
X36987829Y31729390D01*
X36987830Y31729390D01*
X36987833Y31729388D01*
X37187483Y31652043D01*
X37397946Y31612700D01*
X37397948Y31612700D01*
X37612052Y31612700D01*
X37612054Y31612700D01*
X37822517Y31652043D01*
X38022167Y31729388D01*
X38204206Y31842101D01*
X38362434Y31986345D01*
X38491464Y32157208D01*
X38586900Y32348870D01*
X38635734Y32520504D01*
X38673013Y32579597D01*
X38736323Y32609154D01*
X38805562Y32599792D01*
X38858749Y32554482D01*
X38874265Y32520504D01*
X38876685Y32512000D01*
X38923098Y32348875D01*
X38923104Y32348860D01*
X39018536Y32157208D01*
X39147567Y31986343D01*
X39305793Y31842102D01*
X39305795Y31842100D01*
X39487829Y31729390D01*
X39487830Y31729390D01*
X39487833Y31729388D01*
X39687483Y31652043D01*
X39897946Y31612700D01*
X39897948Y31612700D01*
X40112052Y31612700D01*
X40112054Y31612700D01*
X40167148Y31622999D01*
X56458874Y31622999D01*
X56478095Y31476995D01*
X56478096Y31476993D01*
X56530886Y31349547D01*
X56534453Y31340937D01*
X56624103Y31224103D01*
X56740937Y31134453D01*
X56876993Y31078096D01*
X56949996Y31068485D01*
X57022999Y31058874D01*
X57023000Y31058874D01*
X57023001Y31058874D01*
X57071669Y31065282D01*
X57169007Y31078096D01*
X57305063Y31134453D01*
X57328513Y31152447D01*
X57393682Y31177642D01*
X57462127Y31163604D01*
X57479487Y31152447D01*
X57502935Y31134454D01*
X57502939Y31134452D01*
X57529971Y31123255D01*
X57638993Y31078096D01*
X57711996Y31068485D01*
X57784999Y31058874D01*
X57785000Y31058874D01*
X57785001Y31058874D01*
X57833669Y31065282D01*
X57931007Y31078096D01*
X58067063Y31134453D01*
X58183897Y31224103D01*
X58273547Y31340937D01*
X58329904Y31476993D01*
X58349126Y31623000D01*
X58345302Y31652043D01*
X58332406Y31749999D01*
X79318874Y31749999D01*
X79338095Y31603995D01*
X79338096Y31603993D01*
X79394453Y31467937D01*
X79484103Y31351103D01*
X79600937Y31261453D01*
X79736993Y31205096D01*
X79809996Y31195485D01*
X79882999Y31185874D01*
X79883000Y31185874D01*
X79883001Y31185874D01*
X79931669Y31192282D01*
X80029007Y31205096D01*
X80165063Y31261453D01*
X80281897Y31351103D01*
X80371547Y31467937D01*
X80427904Y31603993D01*
X80447126Y31750000D01*
X80434334Y31847163D01*
X80445099Y31916194D01*
X80491479Y31968450D01*
X80558748Y31987336D01*
X80604724Y31977906D01*
X80625993Y31969096D01*
X80698996Y31959485D01*
X80771999Y31949874D01*
X80772000Y31949874D01*
X80772001Y31949874D01*
X80820669Y31956282D01*
X80918007Y31969096D01*
X81054063Y32025453D01*
X81170897Y32115103D01*
X81260547Y32231937D01*
X81316904Y32367993D01*
X81336126Y32514000D01*
X81330796Y32554482D01*
X81316904Y32660006D01*
X81316904Y32660007D01*
X81260547Y32796063D01*
X81170897Y32912897D01*
X81054063Y33002547D01*
X81054059Y33002549D01*
X80918007Y33058904D01*
X80918005Y33058905D01*
X80772001Y33078126D01*
X80771999Y33078126D01*
X80625994Y33058905D01*
X80625992Y33058904D01*
X80489940Y33002549D01*
X80489937Y33002548D01*
X80489937Y33002547D01*
X80373103Y32912897D01*
X80284656Y32797630D01*
X80283451Y32796060D01*
X80227096Y32660008D01*
X80227095Y32660006D01*
X80207874Y32514002D01*
X80207874Y32513999D01*
X80220665Y32416841D01*
X80209899Y32347806D01*
X80163519Y32295550D01*
X80096250Y32276665D01*
X80050274Y32286095D01*
X80029007Y32294904D01*
X80029005Y32294905D01*
X79883001Y32314126D01*
X79882999Y32314126D01*
X79736994Y32294905D01*
X79736992Y32294904D01*
X79600940Y32238549D01*
X79484103Y32148897D01*
X79394451Y32032060D01*
X79338096Y31896008D01*
X79338095Y31896006D01*
X79318874Y31750002D01*
X79318874Y31749999D01*
X58332406Y31749999D01*
X58329904Y31769006D01*
X58329904Y31769007D01*
X58273547Y31905063D01*
X58273546Y31905065D01*
X58255553Y31928513D01*
X58230358Y31993682D01*
X58244396Y32062127D01*
X58255553Y32079487D01*
X58273546Y32102936D01*
X58273545Y32102936D01*
X58273547Y32102937D01*
X58329904Y32238993D01*
X58344988Y32353567D01*
X58349126Y32384999D01*
X58349126Y32385002D01*
X58329904Y32531006D01*
X58329904Y32531007D01*
X58273547Y32667063D01*
X58183897Y32783897D01*
X58067063Y32873547D01*
X58067059Y32873549D01*
X57931007Y32929904D01*
X57931005Y32929905D01*
X57785001Y32949126D01*
X57784999Y32949126D01*
X57638994Y32929905D01*
X57638992Y32929904D01*
X57502939Y32873549D01*
X57502937Y32873548D01*
X57479485Y32855552D01*
X57414316Y32830359D01*
X57345871Y32844398D01*
X57328515Y32855552D01*
X57305062Y32873548D01*
X57305060Y32873549D01*
X57169007Y32929904D01*
X57169005Y32929905D01*
X57023001Y32949126D01*
X57022999Y32949126D01*
X56876994Y32929905D01*
X56876992Y32929904D01*
X56740940Y32873549D01*
X56740937Y32873548D01*
X56740937Y32873547D01*
X56677285Y32824705D01*
X56624103Y32783897D01*
X56534451Y32667060D01*
X56478096Y32531008D01*
X56478095Y32531006D01*
X56458874Y32385002D01*
X56458874Y32384999D01*
X56478095Y32238995D01*
X56478096Y32238993D01*
X56534451Y32102940D01*
X56534452Y32102938D01*
X56552448Y32079485D01*
X56577641Y32014316D01*
X56563602Y31945871D01*
X56552448Y31928515D01*
X56534452Y31905063D01*
X56534451Y31905061D01*
X56478096Y31769008D01*
X56478095Y31769006D01*
X56458874Y31623002D01*
X56458874Y31622999D01*
X40167148Y31622999D01*
X40322517Y31652043D01*
X40522167Y31729388D01*
X40704206Y31842101D01*
X40862434Y31986345D01*
X40991464Y32157208D01*
X41086900Y32348870D01*
X41145494Y32554805D01*
X41160300Y32714591D01*
X41160300Y33071409D01*
X41145494Y33231195D01*
X41086900Y33437130D01*
X41075123Y33460781D01*
X41025469Y33560500D01*
X40991464Y33628792D01*
X40862434Y33799655D01*
X40862432Y33799658D01*
X40704206Y33943899D01*
X40704204Y33943901D01*
X40558688Y34034000D01*
X81476849Y34034000D01*
X81514865Y33916997D01*
X81622509Y33716961D01*
X81622511Y33716958D01*
X81764145Y33539354D01*
X81935210Y33389900D01*
X81935218Y33389893D01*
X82130218Y33273385D01*
X82130226Y33273381D01*
X82342904Y33193562D01*
X82566414Y33153000D01*
X83060257Y33153000D01*
X83127296Y33133315D01*
X83173051Y33080511D01*
X83183195Y33012815D01*
X83181844Y33002547D01*
X83179534Y32985000D01*
X83199312Y32834766D01*
X83199313Y32834764D01*
X83249090Y32714591D01*
X83257302Y32694767D01*
X83349549Y32574549D01*
X83469767Y32482302D01*
X83609764Y32424313D01*
X83722280Y32409500D01*
X83722287Y32409500D01*
X83797713Y32409500D01*
X83797720Y32409500D01*
X83910236Y32424313D01*
X84050233Y32482302D01*
X84170451Y32574549D01*
X84262698Y32694767D01*
X84320687Y32834764D01*
X84340466Y32985000D01*
X84320687Y33135236D01*
X84317399Y33143173D01*
X84309930Y33212638D01*
X84341203Y33275118D01*
X84378160Y33302346D01*
X84429896Y33327260D01*
X84429901Y33327263D01*
X84613672Y33460781D01*
X84613677Y33460785D01*
X84770659Y33624977D01*
X84895804Y33814563D01*
X84985085Y34023445D01*
X84987494Y34034000D01*
X85906849Y34034000D01*
X85944865Y33916997D01*
X86052509Y33716961D01*
X86052511Y33716958D01*
X86194145Y33539354D01*
X86365210Y33389900D01*
X86365218Y33389893D01*
X86560218Y33273385D01*
X86560226Y33273381D01*
X86772904Y33193562D01*
X86996414Y33153000D01*
X87029000Y33153000D01*
X87029000Y34034000D01*
X85906849Y34034000D01*
X84987494Y34034000D01*
X81476849Y34034000D01*
X40558688Y34034000D01*
X40522170Y34056611D01*
X40522164Y34056613D01*
X40322517Y34133957D01*
X40112054Y34173300D01*
X39897946Y34173300D01*
X39687483Y34133957D01*
X39561227Y34085046D01*
X39487835Y34056613D01*
X39487829Y34056611D01*
X39305795Y33943901D01*
X39305793Y33943899D01*
X39147567Y33799658D01*
X39018536Y33628793D01*
X38923104Y33437141D01*
X38923099Y33437128D01*
X38874266Y33265497D01*
X38836987Y33206404D01*
X38773677Y33176847D01*
X38704437Y33186209D01*
X38651251Y33231519D01*
X38635734Y33265497D01*
X38632964Y33275233D01*
X38586900Y33437130D01*
X38575123Y33460781D01*
X38525469Y33560500D01*
X38491464Y33628792D01*
X38362434Y33799655D01*
X38362432Y33799658D01*
X38204206Y33943899D01*
X38204204Y33943901D01*
X38022170Y34056611D01*
X38022164Y34056613D01*
X37822517Y34133957D01*
X37612054Y34173300D01*
X37397946Y34173300D01*
X37187483Y34133957D01*
X37061227Y34085046D01*
X36987835Y34056613D01*
X36987829Y34056611D01*
X36805795Y33943901D01*
X36805793Y33943899D01*
X36647567Y33799658D01*
X36518536Y33628793D01*
X36423104Y33437141D01*
X36423099Y33437128D01*
X36374266Y33265497D01*
X36336987Y33206404D01*
X36273677Y33176847D01*
X36204437Y33186209D01*
X36151251Y33231519D01*
X36135734Y33265497D01*
X36132964Y33275233D01*
X36086900Y33437130D01*
X36075123Y33460781D01*
X36025469Y33560500D01*
X35991464Y33628792D01*
X35862434Y33799655D01*
X35862432Y33799658D01*
X35704206Y33943899D01*
X35704204Y33943901D01*
X35522170Y34056611D01*
X35522164Y34056613D01*
X35322517Y34133957D01*
X35112054Y34173300D01*
X34897946Y34173300D01*
X34687483Y34133957D01*
X34561227Y34085046D01*
X34487835Y34056613D01*
X34487829Y34056611D01*
X34305795Y33943901D01*
X34305793Y33943899D01*
X34261299Y33903338D01*
X34198494Y33872721D01*
X34129107Y33880920D01*
X34075168Y33925331D01*
X34059101Y33958982D01*
X34044488Y34007154D01*
X33950520Y34182957D01*
X33950518Y34182960D01*
X33824055Y34337056D01*
X33694767Y34443160D01*
X82376105Y34443160D01*
X82386454Y34331479D01*
X82436448Y34231078D01*
X82519334Y34155516D01*
X82623920Y34115000D01*
X83807802Y34115000D01*
X83890250Y34130412D01*
X83985610Y34189457D01*
X84053201Y34278962D01*
X84083895Y34386840D01*
X84073546Y34498521D01*
X84023552Y34598922D01*
X83940666Y34674484D01*
X83836080Y34715000D01*
X82652198Y34715000D01*
X82569750Y34699588D01*
X82474390Y34640543D01*
X82406799Y34551038D01*
X82376105Y34443160D01*
X33694767Y34443160D01*
X33669959Y34463519D01*
X33669956Y34463521D01*
X33494151Y34557490D01*
X33303389Y34615358D01*
X33154718Y34630000D01*
X32886000Y34630000D01*
X32886000Y33178741D01*
X32867673Y33207258D01*
X32764445Y33296705D01*
X32640199Y33353446D01*
X32538975Y33368000D01*
X32471025Y33368000D01*
X32369801Y33353446D01*
X32245555Y33296705D01*
X32142327Y33207258D01*
X32068481Y33092351D01*
X32030000Y32961295D01*
X32030000Y32824705D01*
X20312992Y32824705D01*
X20402136Y32897864D01*
X20528263Y33051550D01*
X20609774Y33204046D01*
X20621982Y33226885D01*
X20621982Y33226886D01*
X20621984Y33226889D01*
X20636275Y33274000D01*
X30893000Y33274000D01*
X32124000Y33274000D01*
X32124000Y34630000D01*
X31855283Y34630000D01*
X31706611Y34615358D01*
X31515848Y34557490D01*
X31340043Y34463521D01*
X31340040Y34463519D01*
X31185944Y34337056D01*
X31059481Y34182960D01*
X31059479Y34182957D01*
X30965510Y34007152D01*
X30907642Y33816390D01*
X30893000Y33667718D01*
X30893000Y33274000D01*
X20636275Y33274000D01*
X20679697Y33417143D01*
X20699184Y33615000D01*
X20679697Y33812857D01*
X20621984Y34003111D01*
X20621982Y34003114D01*
X20621982Y34003116D01*
X20528266Y34178445D01*
X20528262Y34178452D01*
X20402136Y34332137D01*
X20248451Y34458263D01*
X20248444Y34458267D01*
X20073115Y34551983D01*
X19882855Y34609698D01*
X19685000Y34629184D01*
X19487144Y34609698D01*
X19296884Y34551983D01*
X19121555Y34458267D01*
X19121548Y34458263D01*
X18967863Y34332137D01*
X18841737Y34178452D01*
X18841733Y34178445D01*
X18748017Y34003116D01*
X18690302Y33812856D01*
X18670816Y33615000D01*
X12922370Y33615000D01*
X12893584Y33667718D01*
X12863229Y33723310D01*
X12863224Y33723318D01*
X12691745Y33952388D01*
X12691729Y33952406D01*
X12489405Y34154730D01*
X12489387Y34154746D01*
X12260317Y34326225D01*
X12260309Y34326230D01*
X12009166Y34463365D01*
X12009167Y34463365D01*
X11901915Y34503368D01*
X11741046Y34563369D01*
X11741043Y34563370D01*
X11741037Y34563372D01*
X11461433Y34624196D01*
X11247450Y34639500D01*
X11247448Y34639500D01*
X11104552Y34639500D01*
X11104549Y34639500D01*
X10890566Y34624196D01*
X10610962Y34563372D01*
X10342833Y34463365D01*
X10091690Y34326230D01*
X10091682Y34326225D01*
X9862612Y34154746D01*
X9862594Y34154730D01*
X9660270Y33952406D01*
X9660254Y33952388D01*
X9488775Y33723318D01*
X9488770Y33723310D01*
X9351635Y33472167D01*
X9251628Y33204038D01*
X9190804Y32924434D01*
X9170390Y32639002D01*
X9170390Y32638999D01*
X635000Y32638999D01*
X635000Y34796001D01*
X81472505Y34796001D01*
X81472506Y34796000D01*
X82849000Y34796000D01*
X82849000Y35677000D01*
X83611000Y35677000D01*
X83611000Y34796000D01*
X84983151Y34796000D01*
X84983150Y34796001D01*
X85902505Y34796001D01*
X85902506Y34796000D01*
X87029000Y34796000D01*
X87029000Y35674811D01*
X86883752Y35661739D01*
X86883744Y35661738D01*
X86664782Y35601308D01*
X86664769Y35601303D01*
X86460108Y35502744D01*
X86460098Y35502738D01*
X86276327Y35369220D01*
X86276322Y35369216D01*
X86119340Y35205024D01*
X85994195Y35015438D01*
X85904914Y34806556D01*
X85902505Y34796001D01*
X84983150Y34796001D01*
X84945134Y34913004D01*
X84837490Y35113040D01*
X84837488Y35113043D01*
X84695854Y35290647D01*
X84524789Y35440101D01*
X84524781Y35440108D01*
X84329781Y35556616D01*
X84329773Y35556620D01*
X84117095Y35636439D01*
X83893586Y35677000D01*
X83611000Y35677000D01*
X82849000Y35677000D01*
X82623327Y35677000D01*
X82453749Y35661739D01*
X82234782Y35601308D01*
X82234769Y35601303D01*
X82030108Y35502744D01*
X82030098Y35502738D01*
X81846327Y35369220D01*
X81846322Y35369216D01*
X81689340Y35205024D01*
X81564195Y35015438D01*
X81474914Y34806556D01*
X81472505Y34796001D01*
X635000Y34796001D01*
X635000Y38735000D01*
X908146Y38735000D01*
X927539Y38439118D01*
X927541Y38439106D01*
X985385Y38148303D01*
X985389Y38148288D01*
X1080698Y37867518D01*
X1080707Y37867497D01*
X1211844Y37601577D01*
X1328369Y37427187D01*
X2446819Y38545636D01*
X2451616Y38518433D01*
X2521059Y38357447D01*
X2625756Y38216815D01*
X2760062Y38104118D01*
X2916739Y38025432D01*
X2987480Y38008667D01*
X1867184Y36888370D01*
X2041576Y36771845D01*
X2307496Y36640708D01*
X2307517Y36640699D01*
X2588287Y36545390D01*
X2588302Y36545386D01*
X2879105Y36487542D01*
X2879117Y36487540D01*
X3175000Y36468147D01*
X3470882Y36487540D01*
X3470894Y36487542D01*
X3761697Y36545386D01*
X3761712Y36545390D01*
X4042482Y36640699D01*
X4042503Y36640708D01*
X4308423Y36771845D01*
X4482814Y36888370D01*
X3365120Y38006065D01*
X3513891Y38060213D01*
X3660373Y38156555D01*
X3780688Y38284082D01*
X3868350Y38435918D01*
X3901654Y38547161D01*
X5021630Y37427186D01*
X5138155Y37601577D01*
X5269292Y37867497D01*
X5269301Y37867518D01*
X5364610Y38148288D01*
X5364614Y38148303D01*
X5422458Y38439106D01*
X5422460Y38439118D01*
X5441853Y38735000D01*
X5425140Y38989999D01*
X14869454Y38989999D01*
X14889613Y38708134D01*
X14948831Y38435918D01*
X14949680Y38432016D01*
X14958877Y38407359D01*
X15048432Y38167250D01*
X15048434Y38167246D01*
X15183855Y37919242D01*
X15183860Y37919234D01*
X15353196Y37693026D01*
X15353212Y37693008D01*
X15553007Y37493213D01*
X15553025Y37493197D01*
X15779233Y37323861D01*
X15779241Y37323856D01*
X16027245Y37188435D01*
X16027249Y37188433D01*
X16027251Y37188432D01*
X16292016Y37089680D01*
X16430077Y37059647D01*
X16568133Y37029614D01*
X16568135Y37029614D01*
X16568139Y37029613D01*
X16779447Y37014500D01*
X16920553Y37014500D01*
X17131861Y37029613D01*
X17407984Y37089680D01*
X17672749Y37188432D01*
X17920764Y37323859D01*
X18146982Y37493203D01*
X18346797Y37693018D01*
X18516141Y37919236D01*
X18651568Y38167251D01*
X18750320Y38432016D01*
X18810387Y38708139D01*
X18821979Y38870222D01*
X78824500Y38870222D01*
X78839007Y38783288D01*
X78863930Y38633933D01*
X78941711Y38407363D01*
X78941713Y38407358D01*
X79055730Y38196675D01*
X79055734Y38196669D01*
X79093391Y38148288D01*
X79202866Y38007634D01*
X79379113Y37845388D01*
X79579660Y37714364D01*
X79799038Y37618136D01*
X80031259Y37559329D01*
X80031263Y37559328D01*
X80210213Y37544500D01*
X80210222Y37544500D01*
X80329778Y37544500D01*
X80329787Y37544500D01*
X80508737Y37559328D01*
X80740962Y37618136D01*
X80960340Y37714364D01*
X81160887Y37845388D01*
X81337134Y38007634D01*
X81484271Y38196677D01*
X81598287Y38407359D01*
X81676070Y38633935D01*
X81715500Y38870222D01*
X81715500Y39109778D01*
X81676070Y39346065D01*
X81667853Y39370000D01*
X83458146Y39370000D01*
X83477539Y39074118D01*
X83477541Y39074106D01*
X83535385Y38783303D01*
X83535389Y38783288D01*
X83630698Y38502518D01*
X83630707Y38502497D01*
X83761844Y38236577D01*
X83878369Y38062187D01*
X84996819Y39180636D01*
X85001616Y39153433D01*
X85071059Y38992447D01*
X85175756Y38851815D01*
X85310062Y38739118D01*
X85466739Y38660432D01*
X85537480Y38643667D01*
X84417184Y37523370D01*
X84591576Y37406845D01*
X84857496Y37275708D01*
X84857517Y37275699D01*
X85138287Y37180390D01*
X85138302Y37180386D01*
X85429105Y37122542D01*
X85429117Y37122540D01*
X85725000Y37103147D01*
X86020882Y37122540D01*
X86020894Y37122542D01*
X86311697Y37180386D01*
X86311712Y37180390D01*
X86592482Y37275699D01*
X86592503Y37275708D01*
X86858423Y37406845D01*
X87032814Y37523370D01*
X85915120Y38641065D01*
X86063891Y38695213D01*
X86210373Y38791555D01*
X86330688Y38919082D01*
X86418350Y39070918D01*
X86451654Y39182162D01*
X87571630Y38062186D01*
X87688155Y38236577D01*
X87819292Y38502497D01*
X87819301Y38502518D01*
X87914610Y38783288D01*
X87914614Y38783303D01*
X87972458Y39074106D01*
X87972460Y39074118D01*
X87991853Y39370000D01*
X87972460Y39665883D01*
X87972458Y39665895D01*
X87914614Y39956698D01*
X87914610Y39956713D01*
X87819301Y40237483D01*
X87819292Y40237504D01*
X87688155Y40503424D01*
X87571630Y40677816D01*
X86453180Y39559367D01*
X86448384Y39586567D01*
X86378941Y39747553D01*
X86274244Y39888185D01*
X86139938Y40000882D01*
X85983261Y40079568D01*
X85912518Y40096334D01*
X87032813Y41216631D01*
X86858423Y41333156D01*
X86592503Y41464293D01*
X86592482Y41464302D01*
X86311712Y41559611D01*
X86311697Y41559615D01*
X86020894Y41617459D01*
X86020882Y41617461D01*
X85725000Y41636854D01*
X85429117Y41617461D01*
X85429105Y41617459D01*
X85138302Y41559615D01*
X85138287Y41559611D01*
X84857517Y41464302D01*
X84857496Y41464293D01*
X84591572Y41333153D01*
X84417185Y41216631D01*
X85534880Y40098936D01*
X85386109Y40044787D01*
X85239627Y39948445D01*
X85119312Y39820918D01*
X85031650Y39669082D01*
X84998345Y39557840D01*
X83878369Y40677815D01*
X83761847Y40503428D01*
X83630707Y40237504D01*
X83630698Y40237483D01*
X83535389Y39956713D01*
X83535385Y39956698D01*
X83477541Y39665895D01*
X83477539Y39665883D01*
X83458146Y39370000D01*
X81667853Y39370000D01*
X81598287Y39572641D01*
X81484271Y39783323D01*
X81484269Y39783326D01*
X81484265Y39783332D01*
X81355752Y39948445D01*
X81337134Y39972366D01*
X81160887Y40134612D01*
X81160884Y40134614D01*
X81160883Y40134615D01*
X81003399Y40237504D01*
X80960340Y40265636D01*
X80960337Y40265638D01*
X80960336Y40265638D01*
X80740963Y40361864D01*
X80508737Y40420672D01*
X80508741Y40420672D01*
X80453675Y40425235D01*
X80329787Y40435500D01*
X80210213Y40435500D01*
X80076000Y40424379D01*
X80031260Y40420672D01*
X79799036Y40361864D01*
X79579663Y40265638D01*
X79379116Y40134615D01*
X79202869Y39972369D01*
X79202860Y39972359D01*
X79055734Y39783332D01*
X79055730Y39783326D01*
X78941713Y39572643D01*
X78941711Y39572638D01*
X78863930Y39346068D01*
X78851548Y39271867D01*
X78824500Y39109778D01*
X78824500Y38870222D01*
X18821979Y38870222D01*
X18830546Y38990000D01*
X18810387Y39271861D01*
X18799542Y39321713D01*
X18750321Y39547978D01*
X18750320Y39547984D01*
X18651568Y39812749D01*
X18647107Y39820918D01*
X18516144Y40060759D01*
X18516139Y40060767D01*
X18346803Y40286975D01*
X18346787Y40286993D01*
X18146992Y40486788D01*
X18146974Y40486804D01*
X17920766Y40656140D01*
X17920758Y40656145D01*
X17672754Y40791566D01*
X17672750Y40791568D01*
X17571580Y40829302D01*
X17407984Y40890320D01*
X17407980Y40890321D01*
X17407977Y40890322D01*
X17131866Y40950387D01*
X16920555Y40965500D01*
X16920553Y40965500D01*
X16779447Y40965500D01*
X16779444Y40965500D01*
X16568133Y40950387D01*
X16292022Y40890322D01*
X16292017Y40890321D01*
X16292016Y40890320D01*
X16228003Y40866445D01*
X16027249Y40791568D01*
X16027245Y40791566D01*
X15779241Y40656145D01*
X15779233Y40656140D01*
X15553025Y40486804D01*
X15553007Y40486788D01*
X15353212Y40286993D01*
X15353196Y40286975D01*
X15183860Y40060767D01*
X15183855Y40060759D01*
X15048434Y39812755D01*
X15048432Y39812751D01*
X15024115Y39747553D01*
X14958876Y39572638D01*
X14949678Y39547978D01*
X14889613Y39271867D01*
X14869454Y38990002D01*
X14869454Y38989999D01*
X5425140Y38989999D01*
X5422460Y39030883D01*
X5422458Y39030895D01*
X5364614Y39321698D01*
X5364610Y39321713D01*
X5269301Y39602483D01*
X5269292Y39602504D01*
X5138155Y39868424D01*
X5021630Y40042816D01*
X3903180Y38924366D01*
X3898384Y38951567D01*
X3828941Y39112553D01*
X3724244Y39253185D01*
X3589938Y39365882D01*
X3433261Y39444568D01*
X3362518Y39461334D01*
X4482813Y40581631D01*
X4308423Y40698156D01*
X4042503Y40829293D01*
X4042482Y40829302D01*
X3761712Y40924611D01*
X3761697Y40924615D01*
X3470894Y40982459D01*
X3470882Y40982461D01*
X3175000Y41001854D01*
X2879117Y40982461D01*
X2879105Y40982459D01*
X2588302Y40924615D01*
X2588287Y40924611D01*
X2307517Y40829302D01*
X2307496Y40829293D01*
X2041572Y40698153D01*
X1867185Y40581631D01*
X2984880Y39463936D01*
X2836109Y39409787D01*
X2689627Y39313445D01*
X2569312Y39185918D01*
X2481650Y39034082D01*
X2448345Y38922840D01*
X1328369Y40042815D01*
X1211847Y39868428D01*
X1080707Y39602504D01*
X1080698Y39602483D01*
X985389Y39321713D01*
X985385Y39321698D01*
X927541Y39030895D01*
X927539Y39030883D01*
X908146Y38735000D01*
X635000Y38735000D01*
X635000Y45719999D01*
X8960874Y45719999D01*
X8980095Y45573995D01*
X8980096Y45573993D01*
X9036453Y45437937D01*
X9126103Y45321103D01*
X9242937Y45231453D01*
X9378993Y45175096D01*
X9451996Y45165485D01*
X9524999Y45155874D01*
X9525000Y45155874D01*
X9525001Y45155874D01*
X9573669Y45162282D01*
X9671007Y45175096D01*
X9807063Y45231453D01*
X9923897Y45321103D01*
X10013547Y45437937D01*
X10045439Y45514930D01*
X10089280Y45569334D01*
X10155574Y45591399D01*
X10223273Y45574120D01*
X10270884Y45522983D01*
X10274561Y45514930D01*
X10306450Y45437942D01*
X10306450Y45437941D01*
X10306452Y45437938D01*
X10306453Y45437937D01*
X10396103Y45321103D01*
X10512937Y45231453D01*
X10648993Y45175096D01*
X10721996Y45165485D01*
X10794999Y45155874D01*
X10795000Y45155874D01*
X10795001Y45155874D01*
X10843669Y45162282D01*
X10941007Y45175096D01*
X11077063Y45231453D01*
X11193897Y45321103D01*
X11283547Y45437937D01*
X11339904Y45573993D01*
X11359126Y45719999D01*
X77540874Y45719999D01*
X77560095Y45573995D01*
X77560096Y45573993D01*
X77616453Y45437937D01*
X77706103Y45321103D01*
X77822937Y45231453D01*
X77958993Y45175096D01*
X78031996Y45165485D01*
X78104999Y45155874D01*
X78105000Y45155874D01*
X78105001Y45155874D01*
X78153669Y45162282D01*
X78251007Y45175096D01*
X78387063Y45231453D01*
X78503897Y45321103D01*
X78593547Y45437937D01*
X78625439Y45514930D01*
X78669280Y45569334D01*
X78735574Y45591399D01*
X78803273Y45574120D01*
X78850884Y45522983D01*
X78854561Y45514930D01*
X78886450Y45437942D01*
X78886450Y45437941D01*
X78886452Y45437938D01*
X78886453Y45437937D01*
X78976103Y45321103D01*
X79092937Y45231453D01*
X79228993Y45175096D01*
X79301996Y45165485D01*
X79374999Y45155874D01*
X79375000Y45155874D01*
X79375001Y45155874D01*
X79423669Y45162282D01*
X79521007Y45175096D01*
X79657063Y45231453D01*
X79773897Y45321103D01*
X79863547Y45437937D01*
X79919904Y45573993D01*
X79939126Y45720000D01*
X79919904Y45866007D01*
X79863547Y46002063D01*
X79773897Y46118897D01*
X79657063Y46208547D01*
X79657060Y46208548D01*
X79657058Y46208550D01*
X79580070Y46240439D01*
X79525666Y46284280D01*
X79503601Y46350574D01*
X79520880Y46418273D01*
X79572017Y46465884D01*
X79580070Y46469561D01*
X79657058Y46501451D01*
X79657059Y46501451D01*
X79657059Y46501452D01*
X79657063Y46501453D01*
X79773897Y46591103D01*
X79863547Y46707937D01*
X79919904Y46843993D01*
X79939126Y46990000D01*
X79919904Y47136007D01*
X79863547Y47272063D01*
X79773897Y47388897D01*
X79657063Y47478547D01*
X79657060Y47478548D01*
X79657058Y47478550D01*
X79580070Y47510439D01*
X79525666Y47554280D01*
X79503601Y47620574D01*
X79520880Y47688273D01*
X79572017Y47735884D01*
X79580070Y47739561D01*
X79657058Y47771451D01*
X79657059Y47771451D01*
X79657059Y47771452D01*
X79657063Y47771453D01*
X79773897Y47861103D01*
X79863547Y47977937D01*
X79919904Y48113993D01*
X79939126Y48260000D01*
X79919904Y48406007D01*
X79863547Y48542063D01*
X79773897Y48658897D01*
X79657063Y48748547D01*
X79657059Y48748549D01*
X79521007Y48804904D01*
X79521005Y48804905D01*
X79375001Y48824126D01*
X79374999Y48824126D01*
X79228994Y48804905D01*
X79228992Y48804904D01*
X79092940Y48748549D01*
X78976103Y48658897D01*
X78886451Y48542060D01*
X78854561Y48465070D01*
X78810720Y48410667D01*
X78744426Y48388602D01*
X78676726Y48405881D01*
X78629116Y48457019D01*
X78625439Y48465070D01*
X78593548Y48542060D01*
X78593547Y48542063D01*
X78503897Y48658897D01*
X78387063Y48748547D01*
X78387059Y48748549D01*
X78251007Y48804904D01*
X78251005Y48804905D01*
X78105001Y48824126D01*
X78104999Y48824126D01*
X77958994Y48804905D01*
X77958992Y48804904D01*
X77822940Y48748549D01*
X77706103Y48658897D01*
X77616451Y48542060D01*
X77560096Y48406008D01*
X77560095Y48406006D01*
X77540874Y48260002D01*
X77540874Y48259999D01*
X77560095Y48113995D01*
X77560096Y48113993D01*
X77616453Y47977937D01*
X77706103Y47861103D01*
X77822937Y47771453D01*
X77822942Y47771451D01*
X77899930Y47739561D01*
X77954333Y47695720D01*
X77976398Y47629426D01*
X77959119Y47561726D01*
X77907981Y47514116D01*
X77899930Y47510439D01*
X77822940Y47478549D01*
X77706103Y47388897D01*
X77616451Y47272060D01*
X77560096Y47136008D01*
X77560095Y47136006D01*
X77540874Y46990002D01*
X77540874Y46989999D01*
X77560095Y46843995D01*
X77560096Y46843993D01*
X77616453Y46707937D01*
X77706103Y46591103D01*
X77822937Y46501453D01*
X77822942Y46501451D01*
X77899930Y46469561D01*
X77954333Y46425720D01*
X77976398Y46359426D01*
X77959119Y46291726D01*
X77907981Y46244116D01*
X77899930Y46240439D01*
X77822940Y46208549D01*
X77706103Y46118897D01*
X77616451Y46002060D01*
X77560096Y45866008D01*
X77560095Y45866006D01*
X77540874Y45720002D01*
X77540874Y45719999D01*
X11359126Y45719999D01*
X11359126Y45720000D01*
X11339904Y45866007D01*
X11283547Y46002063D01*
X11193897Y46118897D01*
X11077063Y46208547D01*
X11077060Y46208548D01*
X11077058Y46208550D01*
X11000070Y46240439D01*
X10945666Y46284280D01*
X10923601Y46350574D01*
X10940880Y46418273D01*
X10992017Y46465884D01*
X11000070Y46469561D01*
X11077058Y46501451D01*
X11077059Y46501451D01*
X11077059Y46501452D01*
X11077063Y46501453D01*
X11193897Y46591103D01*
X11283547Y46707937D01*
X11339904Y46843993D01*
X11359126Y46990000D01*
X11339904Y47136007D01*
X11283547Y47272063D01*
X11193897Y47388897D01*
X11077063Y47478547D01*
X11077060Y47478548D01*
X11077058Y47478550D01*
X11000070Y47510439D01*
X10945666Y47554280D01*
X10923601Y47620574D01*
X10940880Y47688273D01*
X10992017Y47735884D01*
X11000070Y47739561D01*
X11077058Y47771451D01*
X11077059Y47771451D01*
X11077059Y47771452D01*
X11077063Y47771453D01*
X11193897Y47861103D01*
X11283547Y47977937D01*
X11339904Y48113993D01*
X11359126Y48260000D01*
X11339904Y48406007D01*
X11283547Y48542063D01*
X11193897Y48658897D01*
X11077063Y48748547D01*
X11077059Y48748549D01*
X10941007Y48804904D01*
X10941005Y48804905D01*
X10795001Y48824126D01*
X10794999Y48824126D01*
X10648994Y48804905D01*
X10648992Y48804904D01*
X10512940Y48748549D01*
X10396103Y48658897D01*
X10306451Y48542060D01*
X10274561Y48465070D01*
X10230720Y48410667D01*
X10164426Y48388602D01*
X10096726Y48405881D01*
X10049116Y48457019D01*
X10045439Y48465070D01*
X10013548Y48542060D01*
X10013547Y48542063D01*
X9923897Y48658897D01*
X9807063Y48748547D01*
X9807059Y48748549D01*
X9671007Y48804904D01*
X9671005Y48804905D01*
X9525001Y48824126D01*
X9524999Y48824126D01*
X9378994Y48804905D01*
X9378992Y48804904D01*
X9242940Y48748549D01*
X9126103Y48658897D01*
X9036451Y48542060D01*
X8980096Y48406008D01*
X8980095Y48406006D01*
X8960874Y48260002D01*
X8960874Y48259999D01*
X8980095Y48113995D01*
X8980096Y48113993D01*
X9036453Y47977937D01*
X9126103Y47861103D01*
X9242937Y47771453D01*
X9242942Y47771451D01*
X9319930Y47739561D01*
X9374333Y47695720D01*
X9396398Y47629426D01*
X9379119Y47561726D01*
X9327981Y47514116D01*
X9319930Y47510439D01*
X9242940Y47478549D01*
X9126103Y47388897D01*
X9036451Y47272060D01*
X8980096Y47136008D01*
X8980095Y47136006D01*
X8960874Y46990002D01*
X8960874Y46989999D01*
X8980095Y46843995D01*
X8980096Y46843993D01*
X9036453Y46707937D01*
X9126103Y46591103D01*
X9242937Y46501453D01*
X9242942Y46501451D01*
X9319930Y46469561D01*
X9374333Y46425720D01*
X9396398Y46359426D01*
X9379119Y46291726D01*
X9327981Y46244116D01*
X9319930Y46240439D01*
X9242940Y46208549D01*
X9126103Y46118897D01*
X9036451Y46002060D01*
X8980096Y45866008D01*
X8980095Y45866006D01*
X8960874Y45720002D01*
X8960874Y45719999D01*
X635000Y45719999D01*
X635000Y53216000D01*
X654685Y53283039D01*
X707489Y53328794D01*
X759000Y53340000D01*
X3810000Y53340000D01*
X3810000Y57026000D01*
X3829685Y57093039D01*
X3882489Y57138794D01*
X3934000Y57150000D01*
X71532375Y57150000D01*
X71599414Y57130315D01*
G37*
%TD.AperFunction*%
%TD*%
M02*
