%TF.GenerationSoftware,KiCad,Pcbnew,8.0.6-8.0.6-0~ubuntu24.04.1*%
%TF.CreationDate,2024-11-13T00:59:24+01:00*%
%TF.ProjectId,TinyTimer_V01,54696e79-5469-46d6-9572-5f5630312e6b,rev?*%
%TF.SameCoordinates,Original*%
%TF.FileFunction,Copper,L1,Top*%
%TF.FilePolarity,Positive*%
%FSLAX46Y46*%
G04 Gerber Fmt 4.6, Leading zero omitted, Abs format (unit mm)*
G04 Created by KiCad (PCBNEW 8.0.6-8.0.6-0~ubuntu24.04.1) date 2024-11-13 00:59:24*
%MOMM*%
%LPD*%
G01*
G04 APERTURE LIST*
G04 Aperture macros list*
%AMRoundRect*
0 Rectangle with rounded corners*
0 $1 Rounding radius*
0 $2 $3 $4 $5 $6 $7 $8 $9 X,Y pos of 4 corners*
0 Add a 4 corners polygon primitive as box body*
4,1,4,$2,$3,$4,$5,$6,$7,$8,$9,$2,$3,0*
0 Add four circle primitives for the rounded corners*
1,1,$1+$1,$2,$3*
1,1,$1+$1,$4,$5*
1,1,$1+$1,$6,$7*
1,1,$1+$1,$8,$9*
0 Add four rect primitives between the rounded corners*
20,1,$1+$1,$2,$3,$4,$5,0*
20,1,$1+$1,$4,$5,$6,$7,0*
20,1,$1+$1,$6,$7,$8,$9,0*
20,1,$1+$1,$8,$9,$2,$3,0*%
G04 Aperture macros list end*
%TA.AperFunction,NonConductor*%
%ADD10C,0.381000*%
%TD*%
%ADD11C,0.300000*%
%TA.AperFunction,NonConductor*%
%ADD12C,0.300000*%
%TD*%
%ADD13C,0.254000*%
%TA.AperFunction,NonConductor*%
%ADD14C,0.254000*%
%TD*%
%TA.AperFunction,SMDPad,CuDef*%
%ADD15RoundRect,0.200000X0.200000X0.275000X-0.200000X0.275000X-0.200000X-0.275000X0.200000X-0.275000X0*%
%TD*%
%TA.AperFunction,SMDPad,CuDef*%
%ADD16RoundRect,0.200000X-0.200000X-0.275000X0.200000X-0.275000X0.200000X0.275000X-0.200000X0.275000X0*%
%TD*%
%TA.AperFunction,SMDPad,CuDef*%
%ADD17RoundRect,0.200000X0.275000X-0.200000X0.275000X0.200000X-0.275000X0.200000X-0.275000X-0.200000X0*%
%TD*%
%TA.AperFunction,SMDPad,CuDef*%
%ADD18RoundRect,0.200000X-0.275000X0.200000X-0.275000X-0.200000X0.275000X-0.200000X0.275000X0.200000X0*%
%TD*%
%TA.AperFunction,ComponentPad*%
%ADD19C,3.000000*%
%TD*%
%TA.AperFunction,SMDPad,CuDef*%
%ADD20R,1.700000X0.900000*%
%TD*%
%TA.AperFunction,SMDPad,CuDef*%
%ADD21RoundRect,0.225000X-0.225000X-0.250000X0.225000X-0.250000X0.225000X0.250000X-0.225000X0.250000X0*%
%TD*%
%TA.AperFunction,SMDPad,CuDef*%
%ADD22RoundRect,0.150000X0.200000X-0.150000X0.200000X0.150000X-0.200000X0.150000X-0.200000X-0.150000X0*%
%TD*%
%TA.AperFunction,SMDPad,CuDef*%
%ADD23R,0.900000X1.500000*%
%TD*%
%TA.AperFunction,SMDPad,CuDef*%
%ADD24R,1.500000X0.900000*%
%TD*%
%TA.AperFunction,SMDPad,CuDef*%
%ADD25R,0.900000X0.900000*%
%TD*%
%TA.AperFunction,HeatsinkPad*%
%ADD26C,0.600000*%
%TD*%
%TA.AperFunction,SMDPad,CuDef*%
%ADD27R,3.800000X3.800000*%
%TD*%
%TA.AperFunction,SMDPad,CuDef*%
%ADD28RoundRect,0.225000X-0.250000X0.225000X-0.250000X-0.225000X0.250000X-0.225000X0.250000X0.225000X0*%
%TD*%
%TA.AperFunction,SMDPad,CuDef*%
%ADD29RoundRect,0.250000X0.325000X0.650000X-0.325000X0.650000X-0.325000X-0.650000X0.325000X-0.650000X0*%
%TD*%
%TA.AperFunction,SMDPad,CuDef*%
%ADD30RoundRect,0.218750X0.256250X-0.218750X0.256250X0.218750X-0.256250X0.218750X-0.256250X-0.218750X0*%
%TD*%
%TA.AperFunction,ComponentPad*%
%ADD31RoundRect,0.250000X1.550000X-0.650000X1.550000X0.650000X-1.550000X0.650000X-1.550000X-0.650000X0*%
%TD*%
%TA.AperFunction,ComponentPad*%
%ADD32O,3.600000X1.800000*%
%TD*%
%TA.AperFunction,SMDPad,CuDef*%
%ADD33RoundRect,0.225000X0.375000X-0.225000X0.375000X0.225000X-0.375000X0.225000X-0.375000X-0.225000X0*%
%TD*%
%TA.AperFunction,SMDPad,CuDef*%
%ADD34RoundRect,0.225000X0.250000X-0.225000X0.250000X0.225000X-0.250000X0.225000X-0.250000X-0.225000X0*%
%TD*%
%TA.AperFunction,ComponentPad*%
%ADD35RoundRect,0.250000X-0.600000X-0.725000X0.600000X-0.725000X0.600000X0.725000X-0.600000X0.725000X0*%
%TD*%
%TA.AperFunction,ComponentPad*%
%ADD36O,1.700000X1.950000*%
%TD*%
%TA.AperFunction,SMDPad,CuDef*%
%ADD37R,0.400000X0.650000*%
%TD*%
%TA.AperFunction,SMDPad,CuDef*%
%ADD38RoundRect,0.150000X0.825000X0.150000X-0.825000X0.150000X-0.825000X-0.150000X0.825000X-0.150000X0*%
%TD*%
%TA.AperFunction,SMDPad,CuDef*%
%ADD39R,7.460000X6.470000*%
%TD*%
%TA.AperFunction,SMDPad,CuDef*%
%ADD40R,1.400000X1.200000*%
%TD*%
%TA.AperFunction,SMDPad,CuDef*%
%ADD41R,1.450000X0.600000*%
%TD*%
%TA.AperFunction,SMDPad,CuDef*%
%ADD42R,1.450000X0.300000*%
%TD*%
%TA.AperFunction,ComponentPad*%
%ADD43O,2.100000X1.000000*%
%TD*%
%TA.AperFunction,ComponentPad*%
%ADD44O,1.600000X1.000000*%
%TD*%
%TA.AperFunction,ComponentPad*%
%ADD45O,3.000000X1.600000*%
%TD*%
%TA.AperFunction,SMDPad,CuDef*%
%ADD46O,3.000000X1.600000*%
%TD*%
%TA.AperFunction,SMDPad,CuDef*%
%ADD47RoundRect,0.150000X0.587500X0.150000X-0.587500X0.150000X-0.587500X-0.150000X0.587500X-0.150000X0*%
%TD*%
%TA.AperFunction,ComponentPad*%
%ADD48C,1.408000*%
%TD*%
%TA.AperFunction,SMDPad,CuDef*%
%ADD49RoundRect,0.150000X-0.200000X0.150000X-0.200000X-0.150000X0.200000X-0.150000X0.200000X0.150000X0*%
%TD*%
%TA.AperFunction,SMDPad,CuDef*%
%ADD50RoundRect,0.150000X-0.150000X0.512500X-0.150000X-0.512500X0.150000X-0.512500X0.150000X0.512500X0*%
%TD*%
%TA.AperFunction,SMDPad,CuDef*%
%ADD51RoundRect,0.150000X-0.587500X-0.150000X0.587500X-0.150000X0.587500X0.150000X-0.587500X0.150000X0*%
%TD*%
%TA.AperFunction,SMDPad,CuDef*%
%ADD52RoundRect,0.150000X-0.512500X-0.150000X0.512500X-0.150000X0.512500X0.150000X-0.512500X0.150000X0*%
%TD*%
%TA.AperFunction,SMDPad,CuDef*%
%ADD53RoundRect,0.150000X0.150000X-0.587500X0.150000X0.587500X-0.150000X0.587500X-0.150000X-0.587500X0*%
%TD*%
%TA.AperFunction,ViaPad*%
%ADD54C,0.508000*%
%TD*%
%TA.AperFunction,Conductor*%
%ADD55C,0.508000*%
%TD*%
%TA.AperFunction,Conductor*%
%ADD56C,0.762000*%
%TD*%
%TA.AperFunction,Conductor*%
%ADD57C,0.254000*%
%TD*%
%TA.AperFunction,Conductor*%
%ADD58C,0.200000*%
%TD*%
G04 APERTURE END LIST*
D10*
X44450000Y44704000D02*
X44450000Y49276000D01*
X46101000Y46990000D02*
G75*
G02*
X41021000Y46990000I-2540000J0D01*
G01*
X41021000Y46990000D02*
G75*
G02*
X46101000Y46990000I2540000J0D01*
G01*
X42418000Y44831000D02*
X44323000Y49276000D01*
D11*
D12*
X34495828Y20914226D02*
X34495828Y21771368D01*
X35995828Y21342797D02*
X34495828Y21342797D01*
X34495828Y22557083D02*
X34495828Y22842797D01*
X34495828Y22842797D02*
X34567257Y22985654D01*
X34567257Y22985654D02*
X34710114Y23128511D01*
X34710114Y23128511D02*
X34995828Y23199940D01*
X34995828Y23199940D02*
X35495828Y23199940D01*
X35495828Y23199940D02*
X35781542Y23128511D01*
X35781542Y23128511D02*
X35924400Y22985654D01*
X35924400Y22985654D02*
X35995828Y22842797D01*
X35995828Y22842797D02*
X35995828Y22557083D01*
X35995828Y22557083D02*
X35924400Y22414225D01*
X35924400Y22414225D02*
X35781542Y22271368D01*
X35781542Y22271368D02*
X35495828Y22199940D01*
X35495828Y22199940D02*
X34995828Y22199940D01*
X34995828Y22199940D02*
X34710114Y22271368D01*
X34710114Y22271368D02*
X34567257Y22414225D01*
X34567257Y22414225D02*
X34495828Y22557083D01*
X35995828Y23842797D02*
X34495828Y23842797D01*
X34495828Y23842797D02*
X34495828Y24414226D01*
X34495828Y24414226D02*
X34567257Y24557083D01*
X34567257Y24557083D02*
X34638685Y24628512D01*
X34638685Y24628512D02*
X34781542Y24699940D01*
X34781542Y24699940D02*
X34995828Y24699940D01*
X34995828Y24699940D02*
X35138685Y24628512D01*
X35138685Y24628512D02*
X35210114Y24557083D01*
X35210114Y24557083D02*
X35281542Y24414226D01*
X35281542Y24414226D02*
X35281542Y23842797D01*
D13*
D14*
X1560286Y55804188D02*
X979714Y55804188D01*
X1270000Y55804188D02*
X1270000Y56820188D01*
X1270000Y56820188D02*
X1173238Y56675045D01*
X1173238Y56675045D02*
X1076476Y56578283D01*
X1076476Y56578283D02*
X979714Y56529902D01*
D11*
D12*
X59014225Y48691088D02*
X59871368Y48691088D01*
X59442796Y47191088D02*
X59442796Y48691088D01*
X60371367Y47191088D02*
X60371367Y48691088D01*
X60371367Y48691088D02*
X60728510Y48691088D01*
X60728510Y48691088D02*
X60942796Y48619659D01*
X60942796Y48619659D02*
X61085653Y48476802D01*
X61085653Y48476802D02*
X61157082Y48333945D01*
X61157082Y48333945D02*
X61228510Y48048231D01*
X61228510Y48048231D02*
X61228510Y47833945D01*
X61228510Y47833945D02*
X61157082Y47548231D01*
X61157082Y47548231D02*
X61085653Y47405374D01*
X61085653Y47405374D02*
X60942796Y47262516D01*
X60942796Y47262516D02*
X60728510Y47191088D01*
X60728510Y47191088D02*
X60371367Y47191088D01*
X61657082Y48691088D02*
X62514225Y48691088D01*
X62085653Y47191088D02*
X62085653Y48691088D01*
X59014225Y46276172D02*
X59514225Y44776172D01*
X59514225Y44776172D02*
X60014225Y46276172D01*
X60799939Y46276172D02*
X60942796Y46276172D01*
X60942796Y46276172D02*
X61085653Y46204743D01*
X61085653Y46204743D02*
X61157082Y46133315D01*
X61157082Y46133315D02*
X61228510Y45990458D01*
X61228510Y45990458D02*
X61299939Y45704743D01*
X61299939Y45704743D02*
X61299939Y45347600D01*
X61299939Y45347600D02*
X61228510Y45061886D01*
X61228510Y45061886D02*
X61157082Y44919029D01*
X61157082Y44919029D02*
X61085653Y44847600D01*
X61085653Y44847600D02*
X60942796Y44776172D01*
X60942796Y44776172D02*
X60799939Y44776172D01*
X60799939Y44776172D02*
X60657082Y44847600D01*
X60657082Y44847600D02*
X60585653Y44919029D01*
X60585653Y44919029D02*
X60514224Y45061886D01*
X60514224Y45061886D02*
X60442796Y45347600D01*
X60442796Y45347600D02*
X60442796Y45704743D01*
X60442796Y45704743D02*
X60514224Y45990458D01*
X60514224Y45990458D02*
X60585653Y46133315D01*
X60585653Y46133315D02*
X60657082Y46204743D01*
X60657082Y46204743D02*
X60799939Y46276172D01*
X62728510Y44776172D02*
X61871367Y44776172D01*
X62299938Y44776172D02*
X62299938Y46276172D01*
X62299938Y46276172D02*
X62157081Y46061886D01*
X62157081Y46061886D02*
X62014224Y45919029D01*
X62014224Y45919029D02*
X61871367Y45847600D01*
D15*
%TO.P,R26,1*%
%TO.N,BUZZ_CTRL*%
X27495000Y28575000D03*
%TO.P,R26,2*%
%TO.N,Net-(Q3-G)*%
X25845000Y28575000D03*
%TD*%
D16*
%TO.P,R19,1*%
%TO.N,Net-(U4-{slash}SS)*%
X34735000Y5080000D03*
%TO.P,R19,2*%
%TO.N,{slash}SS*%
X36385000Y5080000D03*
%TD*%
D17*
%TO.P,R12,1*%
%TO.N,GND*%
X76835000Y23940000D03*
%TO.P,R12,2*%
%TO.N,Net-(J1-CC2)*%
X76835000Y25590000D03*
%TD*%
%TO.P,R24,1*%
%TO.N,VDD*%
X46355000Y22670000D03*
%TO.P,R24,2*%
%TO.N,Net-(U6-SENSE)*%
X46355000Y24320000D03*
%TD*%
D16*
%TO.P,R31,1*%
%TO.N,BATT_ADC*%
X69814075Y28575000D03*
%TO.P,R31,2*%
%TO.N,GND*%
X71464075Y28575000D03*
%TD*%
D18*
%TO.P,R16,1*%
%TO.N,USER_LED*%
X41910000Y5905000D03*
%TO.P,R16,2*%
%TO.N,Net-(D6-A)*%
X41910000Y4255000D03*
%TD*%
D16*
%TO.P,R22,1*%
%TO.N,Net-(U5-PROG)*%
X69660000Y34290000D03*
%TO.P,R22,2*%
%TO.N,GND*%
X71310000Y34290000D03*
%TD*%
%TO.P,R2,1*%
%TO.N,Net-(Q1B-C2)*%
X48070000Y19685000D03*
%TO.P,R2,2*%
%TO.N,BOOT0*%
X49720000Y19685000D03*
%TD*%
D15*
%TO.P,R32,1*%
%TO.N,Net-(U1-IO16)*%
X62420000Y8890000D03*
%TO.P,R32,2*%
%TO.N,+3V3*%
X60770000Y8890000D03*
%TD*%
D19*
%TO.P,TP20,1,1*%
%TO.N,GND*%
X85725000Y39370000D03*
%TD*%
D16*
%TO.P,R20,1*%
%TO.N,Net-(U4-MOSI)*%
X34735000Y2570000D03*
%TO.P,R20,2*%
%TO.N,MOSI*%
X36385000Y2570000D03*
%TD*%
D20*
%TO.P,SW2,1,A*%
%TO.N,BOOT0*%
X53340000Y4875000D03*
%TO.P,SW2,2,B*%
%TO.N,GND*%
X53340000Y1475000D03*
%TD*%
D21*
%TO.P,C3,1*%
%TO.N,Net-(U2-V3)*%
X60820000Y15240000D03*
%TO.P,C3,2*%
%TO.N,GND*%
X62370000Y15240000D03*
%TD*%
D16*
%TO.P,R30,1*%
%TO.N,+BATT*%
X66639075Y28575000D03*
%TO.P,R30,2*%
%TO.N,BATT_ADC*%
X68289075Y28575000D03*
%TD*%
D22*
%TO.P,D1,1,A1*%
%TO.N,GND*%
X77870000Y34863000D03*
%TO.P,D1,2,A2*%
%TO.N,VBUS*%
X77870000Y33463000D03*
%TD*%
D23*
%TO.P,U1,1,GND*%
%TO.N,GND*%
X87610000Y20815000D03*
%TO.P,U1,2,VDD*%
%TO.N,+3V3*%
X86340000Y20815000D03*
%TO.P,U1,3,EN*%
%TO.N,{slash}RESET*%
X85070000Y20815000D03*
%TO.P,U1,4,SENSOR_VP*%
%TO.N,unconnected-(U1-SENSOR_VP-Pad4)*%
X83800000Y20815000D03*
%TO.P,U1,5,SENSOR_VN*%
%TO.N,unconnected-(U1-SENSOR_VN-Pad5)*%
X82530000Y20815000D03*
%TO.P,U1,6,IO34*%
%TO.N,unconnected-(U1-IO34-Pad6)*%
X81260000Y20815000D03*
%TO.P,U1,7,IO35*%
%TO.N,BATT_ADC*%
X79990000Y20815000D03*
%TO.P,U1,8,IO32*%
%TO.N,USER_BUTTON*%
X78720000Y20815000D03*
%TO.P,U1,9,IO33*%
%TO.N,RSSI*%
X77450000Y20815000D03*
%TO.P,U1,10,IO25*%
%TO.N,SDA*%
X76180000Y20815000D03*
%TO.P,U1,11,IO26*%
%TO.N,SCL*%
X74910000Y20815000D03*
%TO.P,U1,12,IO27*%
%TO.N,BUZZ_CTRL*%
X73640000Y20815000D03*
%TO.P,U1,13,IO14*%
%TO.N,unconnected-(U1-IO14-Pad13)*%
X72370000Y20815000D03*
%TO.P,U1,14,IO12*%
%TO.N,Net-(U1-IO12)*%
X71100000Y20815000D03*
D24*
%TO.P,U1,15,GND*%
%TO.N,GND*%
X69850000Y17780000D03*
%TO.P,U1,16,IO13*%
%TO.N,unconnected-(U1-IO13-Pad16)*%
X69850000Y16510000D03*
%TO.P,U1,17,SHD/SD2*%
%TO.N,unconnected-(U1-SHD{slash}SD2-Pad17)*%
X69850000Y15240000D03*
%TO.P,U1,18,SWP/SD3*%
%TO.N,unconnected-(U1-SWP{slash}SD3-Pad18)*%
X69850000Y13970000D03*
%TO.P,U1,19,SCS/CMD*%
%TO.N,unconnected-(U1-SCS{slash}CMD-Pad19)*%
X69850000Y12700000D03*
%TO.P,U1,20,SCK/CLK*%
%TO.N,unconnected-(U1-SCK{slash}CLK-Pad20)*%
X69850000Y11430000D03*
%TO.P,U1,21,SDO/SD0*%
%TO.N,unconnected-(U1-SDO{slash}SD0-Pad21)*%
X69850000Y10160000D03*
%TO.P,U1,22,SDI/SD1*%
%TO.N,unconnected-(U1-SDI{slash}SD1-Pad22)*%
X69850000Y8890000D03*
%TO.P,U1,23,IO15*%
%TO.N,unconnected-(U1-IO15-Pad23)*%
X69850000Y7620000D03*
%TO.P,U1,24,IO2*%
%TO.N,unconnected-(U1-IO2-Pad24)*%
X69850000Y6350000D03*
D23*
%TO.P,U1,25,IO0*%
%TO.N,BOOT0*%
X71100000Y3315000D03*
%TO.P,U1,26,IO4*%
%TO.N,unconnected-(U1-IO4-Pad26)*%
X72370000Y3315000D03*
%TO.P,U1,27,IO16*%
%TO.N,Net-(U1-IO16)*%
X73640000Y3315000D03*
%TO.P,U1,28,IO17*%
%TO.N,unconnected-(U1-IO17-Pad28)*%
X74910000Y3315000D03*
%TO.P,U1,29,IO5*%
%TO.N,unconnected-(U1-IO5-Pad29)*%
X76180000Y3315000D03*
%TO.P,U1,30,IO18*%
%TO.N,LED_CTRL*%
X77450000Y3315000D03*
%TO.P,U1,31,IO19*%
%TO.N,MOSI*%
X78720000Y3315000D03*
%TO.P,U1,32,NC*%
%TO.N,unconnected-(U1-NC-Pad32)*%
X79990000Y3315000D03*
%TO.P,U1,33,IO21*%
%TO.N,USER_LED*%
X81260000Y3315000D03*
%TO.P,U1,34,RXD0/IO3*%
%TO.N,RXD0*%
X82530000Y3315000D03*
%TO.P,U1,35,TXD0/IO1*%
%TO.N,TXD0*%
X83800000Y3315000D03*
%TO.P,U1,36,IO22*%
%TO.N,{slash}SS*%
X85070000Y3315000D03*
%TO.P,U1,37,IO23*%
%TO.N,SCLK*%
X86340000Y3315000D03*
%TO.P,U1,38,GND*%
%TO.N,GND*%
X87610000Y3315000D03*
D25*
%TO.P,U1,39,GND*%
X81670000Y14965000D03*
D26*
X80970000Y14965000D03*
D25*
X80270000Y14965000D03*
D26*
X79570000Y14965000D03*
D25*
X78870000Y14965000D03*
D26*
X81670000Y14265000D03*
X80270000Y14265000D03*
X78870000Y14265000D03*
D25*
X81670000Y13565000D03*
D26*
X80970000Y13565000D03*
D25*
X80270000Y13565000D03*
D27*
X80270000Y13565000D03*
D26*
X79570000Y13565000D03*
D25*
X78870000Y13565000D03*
D26*
X81670000Y12865000D03*
X80270000Y12865000D03*
X78870000Y12865000D03*
D25*
X81670000Y12165000D03*
D26*
X80970000Y12165000D03*
D25*
X80270000Y12165000D03*
D26*
X79570000Y12165000D03*
D25*
X78870000Y12165000D03*
%TD*%
D18*
%TO.P,R15,1*%
%TO.N,+3V3*%
X44450000Y5905000D03*
%TO.P,R15,2*%
%TO.N,Net-(D5-A)*%
X44450000Y4255000D03*
%TD*%
D28*
%TO.P,C15,1*%
%TO.N,+3V3*%
X60204000Y28077000D03*
%TO.P,C15,2*%
%TO.N,GND*%
X60204000Y26527000D03*
%TD*%
D29*
%TO.P,C2,1*%
%TO.N,+3V3*%
X84025000Y23495000D03*
%TO.P,C2,2*%
%TO.N,GND*%
X81075000Y23495000D03*
%TD*%
D30*
%TO.P,D6,1,K*%
%TO.N,GND*%
X41910000Y1117500D03*
%TO.P,D6,2,A*%
%TO.N,Net-(D6-A)*%
X41910000Y2692500D03*
%TD*%
D16*
%TO.P,R3,1*%
%TO.N,RXD0*%
X63945000Y11430000D03*
%TO.P,R3,2*%
%TO.N,+3V3*%
X65595000Y11430000D03*
%TD*%
D31*
%TO.P,SW4,1,A*%
%TO.N,Net-(D4-K)*%
X43180000Y12065000D03*
D32*
%TO.P,SW4,2,B*%
%TO.N,VDD*%
X43180000Y15875000D03*
%TD*%
D33*
%TO.P,D4,1,K*%
%TO.N,Net-(D4-K)*%
X50165000Y31370000D03*
%TO.P,D4,2,A*%
%TO.N,VBUS*%
X50165000Y34670000D03*
%TD*%
D34*
%TO.P,C7,1*%
%TO.N,BOOT0*%
X52070000Y6845000D03*
%TO.P,C7,2*%
%TO.N,GND*%
X52070000Y8395000D03*
%TD*%
D35*
%TO.P,J3,1,Pin_1*%
%TO.N,GND*%
X32505000Y32893000D03*
D36*
%TO.P,J3,2,Pin_2*%
%TO.N,+3V3*%
X35005000Y32893000D03*
%TO.P,J3,3,Pin_3*%
%TO.N,SCL*%
X37505000Y32893000D03*
%TO.P,J3,4,Pin_4*%
%TO.N,SDA*%
X40005000Y32893000D03*
%TD*%
D18*
%TO.P,R11,1*%
%TO.N,+3V3*%
X57785000Y8445000D03*
%TO.P,R11,2*%
%TO.N,USER_BUTTON*%
X57785000Y6795000D03*
%TD*%
%TO.P,R34,1*%
%TO.N,VDD*%
X50165000Y28130000D03*
%TO.P,R34,2*%
%TO.N,{slash}EN_3V3*%
X50165000Y26480000D03*
%TD*%
%TO.P,R14,1*%
%TO.N,VBUS*%
X47625000Y34480000D03*
%TO.P,R14,2*%
%TO.N,GND*%
X47625000Y32830000D03*
%TD*%
D17*
%TO.P,R29,1*%
%TO.N,+3V3*%
X40005000Y25845000D03*
%TO.P,R29,2*%
%TO.N,SDA*%
X40005000Y27495000D03*
%TD*%
D15*
%TO.P,R1,1*%
%TO.N,Net-(Q1A-C1)*%
X49720000Y14605000D03*
%TO.P,R1,2*%
%TO.N,{slash}RESET*%
X48070000Y14605000D03*
%TD*%
D30*
%TO.P,D8,1,K*%
%TO.N,Net-(D8-K)*%
X39370000Y1117500D03*
%TO.P,D8,2,A*%
%TO.N,Net-(D8-A)*%
X39370000Y2692500D03*
%TD*%
D19*
%TO.P,TP19,1,1*%
%TO.N,GND*%
X3175000Y38735000D03*
%TD*%
D34*
%TO.P,C23,1*%
%TO.N,Net-(U6-CT)*%
X44450000Y29070000D03*
%TO.P,C23,2*%
%TO.N,GND*%
X44450000Y30620000D03*
%TD*%
D18*
%TO.P,R33,1*%
%TO.N,Net-(U6-SENSE)*%
X44450000Y24320000D03*
%TO.P,R33,2*%
%TO.N,GND*%
X44450000Y22670000D03*
%TD*%
D15*
%TO.P,R8,1*%
%TO.N,USB_DN*%
X62420000Y19050000D03*
%TO.P,R8,2*%
%TO.N,Net-(U2-UD-)*%
X60770000Y19050000D03*
%TD*%
D28*
%TO.P,C13,1*%
%TO.N,VDD*%
X52070000Y28080000D03*
%TO.P,C13,2*%
%TO.N,GND*%
X52070000Y26530000D03*
%TD*%
D24*
%TO.P,D7,1,VDD*%
%TO.N,+3V3*%
X6260000Y29210000D03*
%TO.P,D7,2,DOUT*%
%TO.N,unconnected-(D7-DOUT-Pad2)*%
X6260000Y32510000D03*
%TO.P,D7,3,VSS*%
%TO.N,GND*%
X1360000Y32510000D03*
%TO.P,D7,4,DIN*%
%TO.N,LED_CTRL*%
X1360000Y29210000D03*
%TD*%
D34*
%TO.P,C8,1*%
%TO.N,Net-(U2-XI)*%
X62230000Y22085000D03*
%TO.P,C8,2*%
%TO.N,GND*%
X62230000Y23635000D03*
%TD*%
D37*
%TO.P,Q1,1,E1*%
%TO.N,RTS*%
X49545000Y18095000D03*
%TO.P,Q1,2,B1*%
%TO.N,DTR*%
X48895000Y18095000D03*
%TO.P,Q1,3,C2*%
%TO.N,Net-(Q1B-C2)*%
X48245000Y18095000D03*
%TO.P,Q1,4,E2*%
%TO.N,DTR*%
X48245000Y16195000D03*
%TO.P,Q1,5,B2*%
%TO.N,RTS*%
X48895000Y16195000D03*
%TO.P,Q1,6,C1*%
%TO.N,Net-(Q1A-C1)*%
X49545000Y16195000D03*
%TD*%
D34*
%TO.P,C6,1*%
%TO.N,{slash}RESET*%
X48260000Y6845000D03*
%TO.P,C6,2*%
%TO.N,GND*%
X48260000Y8395000D03*
%TD*%
D38*
%TO.P,U2,1,GND*%
%TO.N,GND*%
X57765000Y11430000D03*
%TO.P,U2,2,TXD*%
%TO.N,Net-(U2-TXD)*%
X57765000Y12700000D03*
%TO.P,U2,3,RXD*%
%TO.N,Net-(U2-RXD)*%
X57765000Y13970000D03*
%TO.P,U2,4,V3*%
%TO.N,Net-(U2-V3)*%
X57765000Y15240000D03*
%TO.P,U2,5,UD+*%
%TO.N,Net-(U2-UD+)*%
X57765000Y16510000D03*
%TO.P,U2,6,UD-*%
%TO.N,Net-(U2-UD-)*%
X57765000Y17780000D03*
%TO.P,U2,7,XI*%
%TO.N,Net-(U2-XI)*%
X57765000Y19050000D03*
%TO.P,U2,8,XO*%
%TO.N,Net-(U2-XO)*%
X57765000Y20320000D03*
%TO.P,U2,9,~{CTS}*%
%TO.N,unconnected-(U2-~{CTS}-Pad9)*%
X52815000Y20320000D03*
%TO.P,U2,10,~{DSR}*%
%TO.N,unconnected-(U2-~{DSR}-Pad10)*%
X52815000Y19050000D03*
%TO.P,U2,11,~{RI}*%
%TO.N,unconnected-(U2-~{RI}-Pad11)*%
X52815000Y17780000D03*
%TO.P,U2,12,~{DCD}*%
%TO.N,unconnected-(U2-~{DCD}-Pad12)*%
X52815000Y16510000D03*
%TO.P,U2,13,~{DTR}*%
%TO.N,DTR*%
X52815000Y15240000D03*
%TO.P,U2,14,~{RTS}*%
%TO.N,RTS*%
X52815000Y13970000D03*
%TO.P,U2,15,R232*%
%TO.N,unconnected-(U2-R232-Pad15)*%
X52815000Y12700000D03*
%TO.P,U2,16,VCC*%
%TO.N,+3V3*%
X52815000Y11430000D03*
%TD*%
D15*
%TO.P,R17,1*%
%TO.N,Net-(U1-IO12)*%
X66992000Y18923000D03*
%TO.P,R17,2*%
%TO.N,GND*%
X65342000Y18923000D03*
%TD*%
D39*
%TO.P,BT1,N*%
%TO.N,Net-(Q4-D)*%
X4780000Y46990000D03*
%TO.P,BT1,P*%
%TO.N,+BATT*%
X84120000Y46990000D03*
%TD*%
D28*
%TO.P,C17,1*%
%TO.N,+3V3*%
X34925000Y12145000D03*
%TO.P,C17,2*%
%TO.N,GND*%
X34925000Y10595000D03*
%TD*%
D18*
%TO.P,R10,1*%
%TO.N,+3V3*%
X53975000Y8445000D03*
%TO.P,R10,2*%
%TO.N,BOOT0*%
X53975000Y6795000D03*
%TD*%
D34*
%TO.P,C11,1*%
%TO.N,VBUS*%
X79790000Y33445000D03*
%TO.P,C11,2*%
%TO.N,GND*%
X79790000Y34995000D03*
%TD*%
D16*
%TO.P,R4,1*%
%TO.N,TXD0*%
X63945000Y13335000D03*
%TO.P,R4,2*%
%TO.N,+3V3*%
X65595000Y13335000D03*
%TD*%
D28*
%TO.P,C16,1*%
%TO.N,+3V3*%
X62103000Y28080000D03*
%TO.P,C16,2*%
%TO.N,GND*%
X62103000Y26530000D03*
%TD*%
D30*
%TO.P,D5,1,K*%
%TO.N,GND*%
X44450000Y1117500D03*
%TO.P,D5,2,A*%
%TO.N,Net-(D5-A)*%
X44450000Y2692500D03*
%TD*%
D40*
%TO.P,Y1,1,1*%
%TO.N,GND*%
X57955000Y22010000D03*
%TO.P,Y1,2,2*%
%TO.N,Net-(U2-XI)*%
X60155000Y22010000D03*
%TO.P,Y1,3,3*%
%TO.N,GND*%
X60155000Y23710000D03*
%TO.P,Y1,4,4*%
%TO.N,Net-(U2-XO)*%
X57955000Y23710000D03*
%TD*%
D28*
%TO.P,C24,1*%
%TO.N,VDD*%
X48260000Y24270000D03*
%TO.P,C24,2*%
%TO.N,GND*%
X48260000Y22720000D03*
%TD*%
D34*
%TO.P,C21,1*%
%TO.N,Net-(U6-SENSE)*%
X44450000Y25895000D03*
%TO.P,C21,2*%
%TO.N,GND*%
X44450000Y27445000D03*
%TD*%
D22*
%TO.P,D2,1,A1*%
%TO.N,GND*%
X77870000Y31690000D03*
%TO.P,D2,2,A2*%
%TO.N,USB_DP*%
X77870000Y30290000D03*
%TD*%
D16*
%TO.P,R7,1*%
%TO.N,Net-(U2-RXD)*%
X60770000Y13335000D03*
%TO.P,R7,2*%
%TO.N,TXD0*%
X62420000Y13335000D03*
%TD*%
D41*
%TO.P,J1,A1,GND*%
%TO.N,GND*%
X82315000Y26845000D03*
%TO.P,J1,A4,VBUS*%
%TO.N,VBUS*%
X82315000Y27645000D03*
D42*
%TO.P,J1,A5,CC1*%
%TO.N,Net-(J1-CC1)*%
X82315000Y28845000D03*
%TO.P,J1,A6,D+*%
%TO.N,USB_DP*%
X82315000Y29845000D03*
%TO.P,J1,A7,D-*%
%TO.N,USB_DN*%
X82315000Y30345000D03*
%TO.P,J1,A8,SBU1*%
%TO.N,unconnected-(J1-SBU1-PadA8)*%
X82315000Y31345000D03*
D41*
%TO.P,J1,A9,VBUS*%
%TO.N,VBUS*%
X82315000Y32545000D03*
%TO.P,J1,A12,GND*%
%TO.N,GND*%
X82315000Y33345000D03*
%TO.P,J1,B1,GND*%
X82315000Y33345000D03*
%TO.P,J1,B4,VBUS*%
%TO.N,VBUS*%
X82315000Y32545000D03*
D42*
%TO.P,J1,B5,CC2*%
%TO.N,Net-(J1-CC2)*%
X82315000Y31845000D03*
%TO.P,J1,B6,D+*%
%TO.N,USB_DP*%
X82315000Y30845000D03*
%TO.P,J1,B7,D-*%
%TO.N,USB_DN*%
X82315000Y29345000D03*
%TO.P,J1,B8,SBU2*%
%TO.N,unconnected-(J1-SBU2-PadB8)*%
X82315000Y28345000D03*
D41*
%TO.P,J1,B9,VBUS*%
%TO.N,VBUS*%
X82315000Y27645000D03*
%TO.P,J1,B12,GND*%
%TO.N,GND*%
X82315000Y26845000D03*
D43*
%TO.P,J1,S1,SHIELD*%
X83230000Y25775000D03*
D44*
X87410000Y25775000D03*
D43*
X83230000Y34415000D03*
D44*
X87410000Y34415000D03*
%TD*%
D15*
%TO.P,R6,1*%
%TO.N,USB_DP*%
X62420000Y17145000D03*
%TO.P,R6,2*%
%TO.N,Net-(U2-UD+)*%
X60770000Y17145000D03*
%TD*%
D18*
%TO.P,R9,1*%
%TO.N,+3V3*%
X50165000Y8445000D03*
%TO.P,R9,2*%
%TO.N,{slash}RESET*%
X50165000Y6795000D03*
%TD*%
D17*
%TO.P,R13,1*%
%TO.N,GND*%
X78613000Y23946000D03*
%TO.P,R13,2*%
%TO.N,Net-(J1-CC1)*%
X78613000Y25596000D03*
%TD*%
D45*
%TO.P,U4,1,GND*%
%TO.N,GND*%
X31750000Y22860000D03*
%TO.P,U4,2,Video*%
%TO.N,unconnected-(U4-Video-Pad2)*%
X31750000Y20320000D03*
%TO.P,U4,3,A6.5m*%
%TO.N,unconnected-(U4-A6.5m-Pad3)*%
X31750000Y17780000D03*
%TO.P,U4,4,RSSI*%
%TO.N,Net-(U4-RSSI)*%
X31750000Y15240000D03*
%TO.P,U4,5,5V*%
%TO.N,+3V3*%
X31750000Y12700000D03*
%TO.P,U4,6,GND*%
%TO.N,GND*%
X31750000Y10160000D03*
%TO.P,U4,7,SCLK*%
%TO.N,Net-(U4-SCLK)*%
X31750000Y7620000D03*
%TO.P,U4,8,/SS*%
%TO.N,Net-(U4-{slash}SS)*%
X31750000Y5080000D03*
%TO.P,U4,9,MOSI*%
%TO.N,Net-(U4-MOSI)*%
X31750000Y2540000D03*
%TO.P,U4,10,GND*%
%TO.N,GND*%
X2750000Y7620000D03*
D46*
%TO.P,U4,11,ANT*%
%TO.N,unconnected-(U4-ANT-Pad11)*%
X2750000Y5080000D03*
D45*
%TO.P,U4,12,GND*%
%TO.N,GND*%
X2750000Y2540000D03*
%TD*%
D47*
%TO.P,Q4,1,G*%
%TO.N,+BATT*%
X59357500Y32705000D03*
%TO.P,Q4,2,S*%
%TO.N,GND*%
X59357500Y34605000D03*
%TO.P,Q4,3,D*%
%TO.N,Net-(Q4-D)*%
X57482500Y33655000D03*
%TD*%
D48*
%TO.P,LS1,N*%
%TO.N,Net-(Q3-D)*%
X19685000Y33615000D03*
%TO.P,LS1,P*%
%TO.N,+3V3*%
X19685000Y28615000D03*
%TD*%
D49*
%TO.P,D3,1,A1*%
%TO.N,GND*%
X77870000Y27750000D03*
%TO.P,D3,2,A2*%
%TO.N,USB_DN*%
X77870000Y29150000D03*
%TD*%
D34*
%TO.P,C4,1*%
%TO.N,+3V3*%
X48260000Y11290000D03*
%TO.P,C4,2*%
%TO.N,GND*%
X48260000Y12840000D03*
%TD*%
D21*
%TO.P,C1,1*%
%TO.N,+3V3*%
X86093000Y22860000D03*
%TO.P,C1,2*%
%TO.N,GND*%
X87643000Y22860000D03*
%TD*%
D50*
%TO.P,U6,1,~{RESET}*%
%TO.N,{slash}EN_3V3*%
X47940000Y28442500D03*
%TO.P,U6,2,GND*%
%TO.N,GND*%
X46990000Y28442500D03*
%TO.P,U6,3,~{MR}*%
%TO.N,unconnected-(U6-~{MR}-Pad3)*%
X46040000Y28442500D03*
%TO.P,U6,4,CT*%
%TO.N,Net-(U6-CT)*%
X46040000Y26167500D03*
%TO.P,U6,5,SENSE*%
%TO.N,Net-(U6-SENSE)*%
X46990000Y26167500D03*
%TO.P,U6,6,VDD*%
%TO.N,VDD*%
X47940000Y26167500D03*
%TD*%
D28*
%TO.P,C27,1*%
%TO.N,+3V3*%
X36195000Y27445000D03*
%TO.P,C27,2*%
%TO.N,GND*%
X36195000Y25895000D03*
%TD*%
D15*
%TO.P,R27,1*%
%TO.N,GND*%
X27495000Y30480000D03*
%TO.P,R27,2*%
%TO.N,Net-(Q3-G)*%
X25845000Y30480000D03*
%TD*%
D20*
%TO.P,SW1,1,A*%
%TO.N,{slash}RESET*%
X49530000Y4875000D03*
%TO.P,SW1,2,B*%
%TO.N,GND*%
X49530000Y1475000D03*
%TD*%
D28*
%TO.P,C9,1*%
%TO.N,Net-(U2-XO)*%
X55880000Y23635000D03*
%TO.P,C9,2*%
%TO.N,GND*%
X55880000Y22085000D03*
%TD*%
D16*
%TO.P,R25,1*%
%TO.N,Net-(U4-RSSI)*%
X34735000Y15240000D03*
%TO.P,R25,2*%
%TO.N,RSSI*%
X36385000Y15240000D03*
%TD*%
D20*
%TO.P,SW3,1,A*%
%TO.N,USER_BUTTON*%
X57150000Y4875000D03*
%TO.P,SW3,2,B*%
%TO.N,GND*%
X57150000Y1475000D03*
%TD*%
D51*
%TO.P,Q2,1,G*%
%TO.N,VBUS*%
X53037500Y34605000D03*
%TO.P,Q2,2,S*%
%TO.N,Net-(D4-K)*%
X53037500Y32705000D03*
%TO.P,Q2,3,D*%
%TO.N,+BATT*%
X54912500Y33655000D03*
%TD*%
D52*
%TO.P,U5,1,~{CHRG}*%
%TO.N,Net-(D8-K)*%
X66807500Y32700000D03*
%TO.P,U5,2,GND*%
%TO.N,GND*%
X66807500Y31750000D03*
%TO.P,U5,3,BAT*%
%TO.N,+BATT*%
X66807500Y30800000D03*
%TO.P,U5,4,V_{CC}*%
%TO.N,VBUS*%
X69082500Y30800000D03*
%TO.P,U5,5,PROG*%
%TO.N,Net-(U5-PROG)*%
X69082500Y32700000D03*
%TD*%
D17*
%TO.P,R28,1*%
%TO.N,+3V3*%
X38100000Y25845000D03*
%TO.P,R28,2*%
%TO.N,SCL*%
X38100000Y27495000D03*
%TD*%
D52*
%TO.P,U3,1,IN*%
%TO.N,VDD*%
X56012500Y28255000D03*
%TO.P,U3,2,GND*%
%TO.N,GND*%
X56012500Y27305000D03*
%TO.P,U3,3,EN*%
%TO.N,{slash}EN_3V3*%
X56012500Y26355000D03*
%TO.P,U3,4,NC*%
%TO.N,unconnected-(U3-NC-Pad4)*%
X58287500Y26355000D03*
%TO.P,U3,5,OUT*%
%TO.N,+3V3*%
X58287500Y28255000D03*
%TD*%
D16*
%TO.P,R5,1*%
%TO.N,Net-(U2-TXD)*%
X60770000Y11430000D03*
%TO.P,R5,2*%
%TO.N,RXD0*%
X62420000Y11430000D03*
%TD*%
D34*
%TO.P,C10,1*%
%TO.N,USER_BUTTON*%
X55880000Y6845000D03*
%TO.P,C10,2*%
%TO.N,GND*%
X55880000Y8395000D03*
%TD*%
%TO.P,C19,1*%
%TO.N,VBUS*%
X71120000Y30975000D03*
%TO.P,C19,2*%
%TO.N,GND*%
X71120000Y32525000D03*
%TD*%
D21*
%TO.P,C20,1*%
%TO.N,BATT_ADC*%
X69864075Y26670000D03*
%TO.P,C20,2*%
%TO.N,GND*%
X71414075Y26670000D03*
%TD*%
%TO.P,C12,1*%
%TO.N,Net-(D4-K)*%
X52565000Y30480000D03*
%TO.P,C12,2*%
%TO.N,GND*%
X54115000Y30480000D03*
%TD*%
D28*
%TO.P,C22,1*%
%TO.N,+3V3*%
X10160000Y28080000D03*
%TO.P,C22,2*%
%TO.N,GND*%
X10160000Y26530000D03*
%TD*%
%TO.P,C14,1*%
%TO.N,VDD*%
X53975000Y28077000D03*
%TO.P,C14,2*%
%TO.N,GND*%
X53975000Y26527000D03*
%TD*%
D18*
%TO.P,R23,1*%
%TO.N,VBUS*%
X39370000Y5905000D03*
%TO.P,R23,2*%
%TO.N,Net-(D8-A)*%
X39370000Y4255000D03*
%TD*%
D16*
%TO.P,R18,1*%
%TO.N,Net-(U4-SCLK)*%
X34735000Y7590000D03*
%TO.P,R18,2*%
%TO.N,SCLK*%
X36385000Y7590000D03*
%TD*%
D34*
%TO.P,C5,1*%
%TO.N,+3V3*%
X50165000Y11290000D03*
%TO.P,C5,2*%
%TO.N,GND*%
X50165000Y12840000D03*
%TD*%
D16*
%TO.P,R21,1*%
%TO.N,Net-(U4-RSSI)*%
X34735000Y17145000D03*
%TO.P,R21,2*%
%TO.N,GND*%
X36385000Y17145000D03*
%TD*%
D53*
%TO.P,Q3,1,G*%
%TO.N,Net-(Q3-G)*%
X25720000Y32717500D03*
%TO.P,Q3,2,S*%
%TO.N,GND*%
X27620000Y32717500D03*
%TO.P,Q3,3,D*%
%TO.N,Net-(Q3-D)*%
X26670000Y34592500D03*
%TD*%
D28*
%TO.P,C25,1*%
%TO.N,+3V3*%
X36830000Y12145000D03*
%TO.P,C25,2*%
%TO.N,GND*%
X36830000Y10595000D03*
%TD*%
%TO.P,C26,1*%
%TO.N,+3V3*%
X8255000Y28080000D03*
%TO.P,C26,2*%
%TO.N,GND*%
X8255000Y26530000D03*
%TD*%
D34*
%TO.P,C18,1*%
%TO.N,+BATT*%
X64770000Y30975000D03*
%TO.P,C18,2*%
%TO.N,GND*%
X64770000Y32525000D03*
%TD*%
D54*
%TO.N,+3V3*%
X43371000Y5905000D03*
X57785000Y9271000D03*
X53975000Y9271000D03*
X35179000Y27432000D03*
X63246000Y27686000D03*
X65532000Y14351000D03*
X38100000Y24892000D03*
X36449000Y13208000D03*
X40005000Y24892000D03*
X59690000Y8890000D03*
X50165000Y9271000D03*
X63246000Y28448000D03*
X83058000Y23495000D03*
X37211000Y13208000D03*
X11303000Y28067000D03*
X47371000Y11303000D03*
%TO.N,GND*%
X47625000Y31687000D03*
X1905000Y9525000D03*
X12700000Y20320000D03*
X29210000Y20320000D03*
X5080000Y2540000D03*
X21590000Y1270000D03*
X27305000Y1270000D03*
X72263000Y32512000D03*
X10160000Y1270000D03*
X46990000Y29718000D03*
X29210000Y16510000D03*
X6350000Y25400000D03*
X43307000Y27432000D03*
X59309000Y11430000D03*
X4445000Y1270000D03*
X5080000Y6350000D03*
X3810000Y9525000D03*
X2540000Y25400000D03*
X17780000Y1270000D03*
X7620000Y10160000D03*
X54864000Y22098000D03*
X27940000Y20320000D03*
X17780000Y20320000D03*
X15240000Y7620000D03*
X61595000Y33782000D03*
X37338000Y17078000D03*
X10160000Y2540000D03*
X29210000Y22225000D03*
X25400000Y25400000D03*
X15875000Y1270000D03*
X1270000Y22225000D03*
X12700000Y5080000D03*
X37973000Y10160000D03*
X8255000Y1270000D03*
X25400000Y2540000D03*
X23495000Y25400000D03*
X10160000Y25400000D03*
X87630000Y23876000D03*
X1270000Y16510000D03*
X12700000Y10160000D03*
X25400000Y1270000D03*
X1270000Y12700000D03*
X15240000Y12700000D03*
X15240000Y17780000D03*
X25400000Y22860000D03*
X27305000Y25400000D03*
X62103000Y25527000D03*
X15240000Y2540000D03*
X20320000Y22860000D03*
X54102000Y29464000D03*
X20320000Y12700000D03*
X25400000Y12700000D03*
X13970000Y1270000D03*
X60960000Y34417000D03*
X61595000Y34417000D03*
X52070000Y9271000D03*
X7620000Y5080000D03*
X22860000Y10160000D03*
X17780000Y25400000D03*
X21590000Y25400000D03*
X2540000Y20320000D03*
X10160000Y22860000D03*
X29210000Y6985000D03*
X76835000Y27686000D03*
X23495000Y1270000D03*
X1016000Y8890000D03*
X13970000Y25400000D03*
X29210000Y25400000D03*
X48260000Y9271000D03*
X43497000Y22670000D03*
X49276000Y22733000D03*
X47752000Y1524000D03*
X19685000Y25400000D03*
X12700000Y15240000D03*
X22860000Y15240000D03*
X29210000Y24130000D03*
X60960000Y33782000D03*
X45720000Y1524000D03*
X20320000Y7620000D03*
X63373000Y23622000D03*
X2794000Y1016000D03*
X8255000Y25400000D03*
X31750000Y24765000D03*
X15875000Y25400000D03*
X29210000Y10795000D03*
X17780000Y15240000D03*
X22860000Y20320000D03*
X64262000Y18923000D03*
X72517000Y28575000D03*
X29210000Y3175000D03*
X20320000Y17780000D03*
X50927000Y13589000D03*
X27940000Y15240000D03*
X77870000Y35943000D03*
X5080000Y17780000D03*
X5080000Y8255000D03*
X87630000Y1651000D03*
X12065000Y25400000D03*
X64770000Y33528000D03*
X10160000Y7620000D03*
X19685000Y1270000D03*
X10160000Y12700000D03*
X4445000Y25400000D03*
X79883000Y23495000D03*
X20320000Y2540000D03*
X1270000Y20320000D03*
X63373000Y15240000D03*
X31623000Y1016000D03*
X25400000Y7620000D03*
X22860000Y5080000D03*
X6350000Y1270000D03*
X52070000Y25400000D03*
X68072000Y17653000D03*
X1016000Y34035000D03*
X27940000Y10160000D03*
X2540000Y10160000D03*
X5080000Y12700000D03*
X29210000Y5080000D03*
X2540000Y15240000D03*
X29210000Y1270000D03*
X1270000Y14605000D03*
X77870000Y32387000D03*
X35179000Y25908000D03*
X29210000Y8890000D03*
X7620000Y15240000D03*
X10160000Y17780000D03*
X15240000Y22860000D03*
X7620000Y20320000D03*
X1270000Y10795000D03*
X80772000Y26837000D03*
X5080000Y22860000D03*
X55880000Y9271000D03*
X75946000Y24009000D03*
X29210000Y14605000D03*
X12065000Y1270000D03*
X17780000Y5080000D03*
X29210000Y18415000D03*
X44450000Y31496000D03*
X25400000Y17780000D03*
X28448000Y30480000D03*
X29210000Y12700000D03*
X1270000Y24130000D03*
X1270000Y18415000D03*
X5080000Y4445000D03*
X27940000Y5080000D03*
X17780000Y10160000D03*
X30607000Y25400000D03*
%TO.N,{slash}RESET*%
X85090000Y22352000D03*
X67056000Y16129000D03*
X59436000Y5842000D03*
X48260000Y5715000D03*
%TO.N,BOOT0*%
X54737000Y3937000D03*
%TO.N,USER_BUTTON*%
X78105000Y22733000D03*
X66167000Y17399000D03*
%TO.N,VBUS*%
X80772000Y32514000D03*
X80772000Y27815000D03*
%TO.N,VDD*%
X51054000Y28080000D03*
X49276000Y24257000D03*
X52451000Y29210000D03*
X51689000Y29210000D03*
%TO.N,+BATT*%
X78105000Y46990000D03*
X79375000Y46990000D03*
X78105000Y48260000D03*
X63373000Y30861000D03*
X62738000Y30861000D03*
X78105000Y45720000D03*
X79375000Y45720000D03*
X62738000Y30226000D03*
X63373000Y30226000D03*
X79375000Y48260000D03*
%TO.N,Net-(Q4-D)*%
X57785000Y32385000D03*
X9525000Y46990000D03*
X57785000Y31623000D03*
X10795000Y48260000D03*
X9525000Y45720000D03*
X9525000Y48260000D03*
X10795000Y45720000D03*
X10795000Y46990000D03*
X57023000Y32385000D03*
X57023000Y31623000D03*
%TO.N,Net-(D8-K)*%
X42926000Y23495000D03*
X67437000Y25781000D03*
%TO.N,Net-(J1-CC2)*%
X79883000Y31750000D03*
X77915000Y26670000D03*
%TO.N,RTS*%
X54483000Y13970000D03*
%TO.N,DTR*%
X54483000Y15240000D03*
%TO.N,RXD0*%
X64008000Y9271000D03*
X82550000Y1651000D03*
%TO.N,TXD0*%
X65786000Y9271000D03*
X83820000Y1651000D03*
%TO.N,USER_LED*%
X81280000Y1651000D03*
X41910000Y8255000D03*
%TO.N,SCLK*%
X60579000Y1778000D03*
X37465000Y7523000D03*
%TO.N,{slash}SS*%
X37465000Y4983000D03*
X85090000Y1651000D03*
%TO.N,MOSI*%
X37465000Y2443000D03*
X78740000Y1651000D03*
%TO.N,RSSI*%
X37465000Y15240000D03*
X76708000Y22733000D03*
%TO.N,BATT_ADC*%
X79184500Y22669500D03*
X69850000Y25527000D03*
%TO.N,Net-(Q3-G)*%
X24765000Y28575000D03*
%TO.N,BUZZ_CTRL*%
X73640000Y22733000D03*
X28575000Y28575000D03*
%TO.N,LED_CTRL*%
X3429000Y27431000D03*
X77470000Y1651000D03*
%TO.N,SCL*%
X74676000Y22733000D03*
X38989000Y20701000D03*
%TO.N,SDA*%
X75565000Y22733000D03*
X40894000Y19939000D03*
%TO.N,Net-(U1-IO16)*%
X63373000Y8890000D03*
X73660000Y2032000D03*
%TO.N,{slash}EN_3V3*%
X48006000Y29718000D03*
%TO.N,Net-(D4-K)*%
X51054000Y30099000D03*
X50419000Y30099000D03*
%TD*%
D55*
%TO.N,+3V3*%
X47384000Y11290000D02*
X47371000Y11303000D01*
X10160000Y28080000D02*
X8255000Y28080000D01*
X11303000Y28067000D02*
X10173000Y28067000D01*
D56*
X84025000Y23495000D02*
X85458000Y23495000D01*
D55*
X50305000Y11430000D02*
X50165000Y11290000D01*
X65595000Y11430000D02*
X65532000Y11493000D01*
X52815000Y11430000D02*
X50305000Y11430000D01*
X65532000Y13272000D02*
X65595000Y13335000D01*
X65595000Y13335000D02*
X65595000Y13399000D01*
X43371000Y5905000D02*
X44450000Y5905000D01*
X57785000Y8445000D02*
X57785000Y9271000D01*
X36195000Y27445000D02*
X36195000Y27432000D01*
X36195000Y29718000D02*
X35005000Y30908000D01*
X36195000Y27445000D02*
X36195000Y29718000D01*
X50165000Y8445000D02*
X50165000Y9271000D01*
X34972000Y12145000D02*
X34417000Y12700000D01*
X48260000Y11290000D02*
X50165000Y11290000D01*
X35085000Y12145000D02*
X34972000Y12145000D01*
D56*
X84025000Y23495000D02*
X83058000Y23495000D01*
D55*
X7125000Y29210000D02*
X8255000Y28080000D01*
D56*
X86340000Y22613000D02*
X86093000Y22860000D01*
X86340000Y20820000D02*
X86340000Y22613000D01*
D55*
X34417000Y12700000D02*
X31750000Y12700000D01*
X36182000Y27432000D02*
X36195000Y27445000D01*
X58166500Y28252000D02*
X60029000Y28252000D01*
X40005000Y25845000D02*
X40005000Y24892000D01*
X36195000Y27445000D02*
X36208000Y27445000D01*
X36309000Y27445000D02*
X36195000Y27445000D01*
X6260000Y29210000D02*
X7125000Y29210000D01*
X60204000Y28077000D02*
X62109000Y28077000D01*
X65532000Y11493000D02*
X65532000Y13272000D01*
X65595000Y13399000D02*
X65532000Y13462000D01*
X38100000Y25845000D02*
X38100000Y24892000D01*
X60029000Y28252000D02*
X60204000Y28077000D01*
X60770000Y8890000D02*
X59690000Y8890000D01*
X35005000Y30908000D02*
X35005000Y32893000D01*
D56*
X85458000Y23495000D02*
X86093000Y22860000D01*
D55*
X48260000Y11290000D02*
X47384000Y11290000D01*
X36990000Y12145000D02*
X35085000Y12145000D01*
X35179000Y27432000D02*
X36182000Y27432000D01*
X10173000Y28067000D02*
X10160000Y28080000D01*
X53975000Y8445000D02*
X53975000Y9271000D01*
X65532000Y13462000D02*
X65532000Y14351000D01*
X38100000Y25845000D02*
X37909000Y25845000D01*
%TO.N,GND*%
X44450000Y27445000D02*
X43320000Y27445000D01*
X49481000Y1524000D02*
X47752000Y1524000D01*
X36195000Y25895000D02*
X36195000Y25908000D01*
X78613000Y23946000D02*
X78804000Y23946000D01*
X50178000Y12840000D02*
X50927000Y13589000D01*
X71464075Y28575000D02*
X72517000Y28575000D01*
X43497000Y22670000D02*
X44450000Y22670000D01*
X76835000Y23946000D02*
X76772000Y24009000D01*
X35179000Y25908000D02*
X36182000Y25908000D01*
X64262000Y18923000D02*
X65342000Y18923000D01*
X69723000Y17653000D02*
X69850000Y17780000D01*
X71310000Y34290000D02*
X71310000Y34226000D01*
X51919000Y26527000D02*
X53854000Y26527000D01*
X48260000Y12840000D02*
X50165000Y12840000D01*
D56*
X54115000Y29477000D02*
X54102000Y29464000D01*
D55*
X68072000Y17653000D02*
X69723000Y17653000D01*
X62109000Y25533000D02*
X62103000Y25527000D01*
X79940000Y34995000D02*
X79790000Y34995000D01*
X48260000Y22720000D02*
X49263000Y22720000D01*
X37973000Y10160000D02*
X37425000Y10160000D01*
X34979000Y10595000D02*
X34544000Y10160000D01*
X36990000Y10595000D02*
X35085000Y10595000D01*
X79715000Y34920000D02*
X79790000Y34995000D01*
X81590000Y33345000D02*
X79940000Y34995000D01*
X55880000Y22085000D02*
X57880000Y22085000D01*
X44450000Y1117500D02*
X44551500Y1117500D01*
D56*
X87610000Y22827000D02*
X87643000Y22860000D01*
D55*
X71414075Y26670000D02*
X71414075Y28525000D01*
X54629000Y27302000D02*
X53854000Y26527000D01*
X44551500Y1117500D02*
X44958000Y1524000D01*
D56*
X81075000Y23495000D02*
X79883000Y23495000D01*
D55*
X52070000Y8395000D02*
X52070000Y9271000D01*
X72250000Y32525000D02*
X72263000Y32512000D01*
X60230000Y23635000D02*
X60155000Y23710000D01*
X77870000Y27750000D02*
X77870000Y27688000D01*
X77870000Y32387000D02*
X77870000Y31690000D01*
X77870000Y34863000D02*
X77927000Y34920000D01*
X50165000Y12840000D02*
X50178000Y12840000D01*
X63360000Y23635000D02*
X63373000Y23622000D01*
X62109000Y26527000D02*
X62109000Y25533000D01*
X36456000Y17078000D02*
X36389000Y17145000D01*
X77806000Y27686000D02*
X76835000Y27686000D01*
X71120000Y32525000D02*
X72250000Y32525000D01*
X55880000Y22085000D02*
X54877000Y22085000D01*
X48260000Y8395000D02*
X48260000Y9271000D01*
X27620000Y30605000D02*
X27495000Y30480000D01*
X80772000Y26837000D02*
X82315000Y26837000D01*
X87630000Y1651000D02*
X87630000Y3300000D01*
X10160000Y26530000D02*
X10160000Y25400000D01*
X44450000Y1117500D02*
X41910000Y1117500D01*
X87770000Y22860000D02*
X87630000Y22720000D01*
D56*
X87643000Y22860000D02*
X87643000Y23863000D01*
D55*
X60204000Y26527000D02*
X62109000Y26527000D01*
X77870000Y35943000D02*
X77870000Y34954000D01*
X76772000Y24009000D02*
X75946000Y24009000D01*
X49530000Y1475000D02*
X57150000Y1475000D01*
X49263000Y22720000D02*
X49276000Y22733000D01*
X36182000Y25908000D02*
X36195000Y25895000D01*
X47625000Y32640000D02*
X47625000Y31687000D01*
X8255000Y26530000D02*
X8255000Y25400000D01*
X35085000Y10595000D02*
X34979000Y10595000D01*
D56*
X87643000Y23863000D02*
X87630000Y23876000D01*
D55*
X71120000Y34036000D02*
X71120000Y32525000D01*
X77870000Y34954000D02*
X77904000Y34920000D01*
X46990000Y28442500D02*
X46990000Y29718000D01*
X71310000Y34226000D02*
X71120000Y34036000D01*
D56*
X54115000Y30480000D02*
X54115000Y29477000D01*
D55*
X64770000Y32525000D02*
X64770000Y33528000D01*
X78613000Y23946000D02*
X76835000Y23946000D01*
X77927000Y34920000D02*
X79480000Y34920000D01*
X37425000Y10160000D02*
X36990000Y10595000D01*
X43320000Y27445000D02*
X43307000Y27432000D01*
X77870000Y27750000D02*
X77806000Y27686000D01*
X55880000Y8395000D02*
X55880000Y9271000D01*
X10160000Y26530000D02*
X8255000Y26530000D01*
X1016000Y32854000D02*
X1360000Y32510000D01*
X82315000Y33345000D02*
X81590000Y33345000D01*
X57765000Y11430000D02*
X59309000Y11430000D01*
X65545000Y31750000D02*
X64770000Y32525000D01*
X87770000Y22860000D02*
X87757000Y22873000D01*
X28448000Y30480000D02*
X27495000Y30480000D01*
X49530000Y1475000D02*
X49481000Y1524000D01*
X62230000Y23635000D02*
X63360000Y23635000D01*
X62370000Y15240000D02*
X63373000Y15240000D01*
X37338000Y17078000D02*
X36456000Y17078000D01*
X44450000Y30620000D02*
X44450000Y31496000D01*
X87630000Y20840000D02*
X87610000Y20820000D01*
X34544000Y10160000D02*
X31750000Y10160000D01*
X55891500Y27302000D02*
X54629000Y27302000D01*
X1016000Y34035000D02*
X1016000Y32854000D01*
X44958000Y1524000D02*
X45720000Y1524000D01*
X66807500Y31750000D02*
X65545000Y31750000D01*
X57880000Y22085000D02*
X57955000Y22010000D01*
X87630000Y3300000D02*
X87610000Y3320000D01*
X71414075Y28525000D02*
X71464075Y28575000D01*
X54877000Y22085000D02*
X54864000Y22098000D01*
D56*
X87610000Y20820000D02*
X87610000Y22827000D01*
D55*
X62230000Y23635000D02*
X60230000Y23635000D01*
X27620000Y32717500D02*
X27620000Y30605000D01*
X79790000Y34995000D02*
X79942000Y34995000D01*
X36389000Y17145000D02*
X36385000Y17145000D01*
X52070000Y26530000D02*
X52070000Y25400000D01*
%TO.N,Net-(U2-V3)*%
X57765000Y15240000D02*
X60820000Y15240000D01*
%TO.N,{slash}RESET*%
X49100000Y4875000D02*
X48260000Y5715000D01*
D57*
X48260000Y6845000D02*
X48260000Y6858000D01*
X46736000Y8382000D02*
X46736000Y13271000D01*
D55*
X48260000Y5715000D02*
X48260000Y6845000D01*
D57*
X67056000Y8806580D02*
X65793220Y7543800D01*
X48260000Y6858000D02*
X46736000Y8382000D01*
D55*
X50115000Y6845000D02*
X50165000Y6795000D01*
D57*
X67056000Y16129000D02*
X67056000Y8806580D01*
X85070000Y20820000D02*
X85070000Y22332000D01*
D55*
X48260000Y6845000D02*
X50115000Y6845000D01*
X49530000Y4875000D02*
X49100000Y4875000D01*
D57*
X46736000Y13271000D02*
X48070000Y14605000D01*
X65793220Y7543800D02*
X61137800Y7543800D01*
D55*
X85165000Y20585000D02*
X85090000Y20660000D01*
D57*
X85070000Y22332000D02*
X85090000Y22352000D01*
X61137800Y7543800D02*
X59436000Y5842000D01*
D55*
%TO.N,BOOT0*%
X53975000Y6795000D02*
X52120000Y6795000D01*
D57*
X62865000Y889000D02*
X70104000Y889000D01*
D55*
X52957000Y4955000D02*
X52070000Y5842000D01*
D57*
X51308000Y3302000D02*
X48514000Y3302000D01*
X46228000Y19558000D02*
X47498000Y20828000D01*
X46228000Y5588000D02*
X46228000Y19558000D01*
X48577000Y20828000D02*
X49720000Y19685000D01*
X53799000Y4875000D02*
X54737000Y3937000D01*
X71120000Y3300000D02*
X71100000Y3320000D01*
X48514000Y3302000D02*
X46228000Y5588000D01*
X52957000Y4955000D02*
X52961000Y4955000D01*
D55*
X52120000Y6795000D02*
X52070000Y6845000D01*
D57*
X71120000Y1905000D02*
X71120000Y3300000D01*
X59817000Y3937000D02*
X62865000Y889000D01*
X47498000Y20828000D02*
X48577000Y20828000D01*
D55*
X52070000Y5842000D02*
X52070000Y6845000D01*
D57*
X70104000Y889000D02*
X71120000Y1905000D01*
X53340000Y4875000D02*
X53799000Y4875000D01*
X52961000Y4955000D02*
X51308000Y3302000D01*
X54737000Y3937000D02*
X59817000Y3937000D01*
%TO.N,Net-(U2-XI)*%
X60110000Y22010000D02*
X59817000Y21717000D01*
X60155000Y22010000D02*
X60110000Y22010000D01*
D55*
X60155000Y22010000D02*
X62155000Y22010000D01*
D57*
X59817000Y21717000D02*
X59817000Y20447000D01*
X59817000Y20447000D02*
X58420000Y19050000D01*
X58420000Y19050000D02*
X57765000Y19050000D01*
D55*
X62155000Y22010000D02*
X62230000Y22085000D01*
D57*
%TO.N,Net-(U2-XO)*%
X59055000Y22860000D02*
X59055000Y20955000D01*
D55*
X55955000Y23710000D02*
X55880000Y23635000D01*
D57*
X58420000Y20320000D02*
X57765000Y20320000D01*
X59055000Y20955000D02*
X58420000Y20320000D01*
X57955000Y23710000D02*
X58205000Y23710000D01*
D55*
X57955000Y23710000D02*
X55955000Y23710000D01*
D57*
X58205000Y23710000D02*
X59055000Y22860000D01*
%TO.N,USER_BUTTON*%
X59182000Y8001000D02*
X57976000Y6795000D01*
X66548000Y15748000D02*
X66548000Y9017000D01*
D55*
X56720000Y4875000D02*
X55880000Y5715000D01*
X57150000Y4875000D02*
X56720000Y4875000D01*
D57*
X57976000Y6795000D02*
X57785000Y6795000D01*
X66548000Y9017000D02*
X65532000Y8001000D01*
D55*
X55880000Y5715000D02*
X55880000Y6845000D01*
X57785000Y6795000D02*
X55930000Y6795000D01*
D57*
X78720000Y22118000D02*
X78720000Y20820000D01*
X66167000Y17399000D02*
X66167000Y16129000D01*
X65532000Y8001000D02*
X59182000Y8001000D01*
D55*
X55930000Y6795000D02*
X55880000Y6845000D01*
D57*
X66167000Y16129000D02*
X66548000Y15748000D01*
X78105000Y22733000D02*
X78720000Y22118000D01*
D55*
%TO.N,VBUS*%
X80690000Y32545000D02*
X79790000Y33445000D01*
D56*
X47815000Y34670000D02*
X47625000Y34480000D01*
X74650000Y30835000D02*
X69271575Y30835000D01*
D57*
X47625000Y34480000D02*
X44386000Y34480000D01*
D56*
X53037500Y34605000D02*
X50230000Y34605000D01*
D57*
X40132000Y6667000D02*
X39370000Y5905000D01*
D56*
X77235000Y33420000D02*
X74650000Y30835000D01*
D55*
X82315000Y27645000D02*
X80942000Y27645000D01*
D56*
X77870000Y33520000D02*
X77481000Y33520000D01*
X77235000Y33520000D02*
X77235000Y33528000D01*
D55*
X79715000Y33520000D02*
X79790000Y33445000D01*
D56*
X54483000Y35560000D02*
X53528000Y34605000D01*
X50230000Y34605000D02*
X50165000Y34670000D01*
D55*
X80942000Y27645000D02*
X80772000Y27815000D01*
D56*
X77235000Y33520000D02*
X77235000Y33420000D01*
X79480000Y33520000D02*
X77235000Y33520000D01*
D57*
X44386000Y34480000D02*
X42291000Y32385000D01*
D56*
X75203000Y35560000D02*
X54483000Y35560000D01*
D55*
X82315000Y32545000D02*
X80690000Y32545000D01*
D56*
X77235000Y33528000D02*
X75203000Y35560000D01*
X50165000Y34670000D02*
X47815000Y34670000D01*
X53528000Y34605000D02*
X53037500Y34605000D01*
X77870000Y33520000D02*
X77497000Y33520000D01*
D57*
X42291000Y19812000D02*
X40132000Y17653000D01*
X40132000Y17653000D02*
X40132000Y6667000D01*
X42291000Y32385000D02*
X42291000Y19812000D01*
D56*
X69271575Y30835000D02*
X69236575Y30800000D01*
D55*
%TO.N,VDD*%
X56012500Y28255000D02*
X54153000Y28255000D01*
X54153000Y28255000D02*
X53975000Y28077000D01*
D56*
X53972000Y28080000D02*
X53975000Y28077000D01*
D55*
X46355000Y22670000D02*
X46660000Y22670000D01*
D56*
X52070000Y28080000D02*
X53972000Y28080000D01*
D55*
X48260000Y24270000D02*
X49263000Y24270000D01*
X52070000Y28080000D02*
X50215000Y28080000D01*
X46660000Y22670000D02*
X48260000Y24270000D01*
X49263000Y24270000D02*
X49276000Y24257000D01*
X47940000Y24590000D02*
X48260000Y24270000D01*
X47940000Y26167500D02*
X47940000Y24590000D01*
X50215000Y28080000D02*
X50165000Y28130000D01*
X52073000Y28077000D02*
X52070000Y28080000D01*
D57*
%TO.N,+BATT*%
X64770000Y29591000D02*
X64770000Y30975000D01*
X59751000Y32705000D02*
X60452000Y32004000D01*
D55*
X64945000Y30800000D02*
X64770000Y30975000D01*
D57*
X66639075Y28575000D02*
X65786000Y28575000D01*
X65786000Y28575000D02*
X64770000Y29591000D01*
D55*
X66807500Y30800000D02*
X64945000Y30800000D01*
D57*
X60452000Y32004000D02*
X60452000Y30988000D01*
X59751000Y32705000D02*
X59357500Y32705000D01*
%TO.N,Net-(D8-K)*%
X67945000Y32224999D02*
X67945000Y30480000D01*
X40640000Y2387500D02*
X40640000Y17399000D01*
X39370000Y1117500D02*
X40640000Y2387500D01*
X67945000Y30480000D02*
X67437000Y29972000D01*
X67469999Y32700000D02*
X67945000Y32224999D01*
X66807500Y32700000D02*
X67469999Y32700000D01*
X42912800Y23481800D02*
X42926000Y23495000D01*
X40640000Y17399000D02*
X42912800Y19671800D01*
X67437000Y29972000D02*
X67437000Y27051000D01*
X67437000Y27051000D02*
X67437000Y25781000D01*
X42912800Y19671800D02*
X42912800Y23481800D01*
%TO.N,USB_DP*%
X82315000Y30845000D02*
X83330000Y30845000D01*
X83566000Y30101000D02*
X83310000Y29845000D01*
X83330000Y30845000D02*
X83566000Y30609000D01*
X66040000Y24257000D02*
X61595000Y19812000D01*
X72898000Y27686000D02*
X72898000Y25019000D01*
X61595000Y19812000D02*
X61595000Y17970000D01*
X82315000Y30845000D02*
X81135000Y30845000D01*
X75186000Y29974000D02*
X72898000Y27686000D01*
X61595000Y17970000D02*
X62420000Y17145000D01*
D58*
X77870000Y30290000D02*
X77808000Y30290000D01*
D57*
X81135000Y30845000D02*
X80264000Y29974000D01*
X72898000Y25019000D02*
X72136000Y24257000D01*
X83310000Y29845000D02*
X82315000Y29845000D01*
X80264000Y29974000D02*
X75186000Y29974000D01*
X72136000Y24257000D02*
X66040000Y24257000D01*
X83566000Y30609000D02*
X83566000Y30101000D01*
%TO.N,USB_DN*%
X63754000Y20447000D02*
X63373000Y20066000D01*
X81159000Y29345000D02*
X81153000Y29339000D01*
X65712414Y23060586D02*
X66040000Y22733000D01*
X64188414Y21536586D02*
X64516000Y21209000D01*
X64516000Y21209000D02*
X64135000Y20828000D01*
X75311000Y29337000D02*
X73406000Y27432000D01*
X66093414Y23441586D02*
X65712414Y23060586D01*
X72390000Y23749000D02*
X67056000Y23749000D01*
X81153000Y30101000D02*
X81153000Y29339000D01*
X65331414Y22679586D02*
X64950414Y22298586D01*
X66040000Y22733000D02*
X65659000Y22352000D01*
X65278000Y21971000D02*
X64897000Y21590000D01*
X82315000Y30345000D02*
X81397000Y30345000D01*
X81397000Y30345000D02*
X81153000Y30101000D01*
X66421000Y23114000D02*
X66093414Y23441586D01*
X65659000Y22352000D02*
X65331414Y22679586D01*
X82315000Y29345000D02*
X81159000Y29345000D01*
X63373000Y20066000D02*
X62992000Y20447000D01*
X73406000Y24765000D02*
X72390000Y23749000D01*
X67056000Y23749000D02*
X66421000Y23114000D01*
X76854000Y29337000D02*
X75311000Y29337000D01*
X64135000Y20828000D02*
X63754000Y21209000D01*
X64950414Y22298586D02*
X65278000Y21971000D01*
X73406000Y27432000D02*
X73406000Y24765000D01*
X76856000Y29339000D02*
X76854000Y29337000D01*
X64569414Y21917586D02*
X64188414Y21536586D01*
X63373000Y20828000D02*
X63754000Y20447000D01*
X62420000Y19875000D02*
X62420000Y19050000D01*
X62992000Y20447000D02*
X62420000Y19875000D01*
X64897000Y21590000D02*
X64569414Y21917586D01*
X81153000Y29339000D02*
X76856000Y29339000D01*
X63754000Y21209000D02*
X63373000Y20828000D01*
%TO.N,Net-(D5-A)*%
X44450000Y2692500D02*
X44450000Y4255000D01*
%TO.N,Net-(D6-A)*%
X41910000Y2692500D02*
X41910000Y4255000D01*
%TO.N,Net-(J1-CC1)*%
X79248000Y26231000D02*
X78613000Y25596000D01*
X82315000Y28845000D02*
X80786000Y28845000D01*
X80786000Y28845000D02*
X79248000Y27307000D01*
X79248000Y27307000D02*
X79248000Y26231000D01*
%TO.N,Net-(J1-CC2)*%
X77915000Y26670000D02*
X76835000Y25590000D01*
X79883000Y31750000D02*
X79978000Y31845000D01*
X79978000Y31845000D02*
X82315000Y31845000D01*
%TO.N,RTS*%
X52815000Y13970000D02*
X52070000Y13970000D01*
X50075200Y16756800D02*
X49545000Y17287000D01*
X52070000Y13970000D02*
X50075200Y15964800D01*
X52815000Y13970000D02*
X54483000Y13970000D01*
X48895000Y16637000D02*
X49545000Y17287000D01*
X49545000Y17287000D02*
X49545000Y18095000D01*
X48895000Y16195000D02*
X48895000Y16637000D01*
X50075200Y15964800D02*
X50075200Y16756800D01*
%TO.N,DTR*%
X48895000Y18542000D02*
X48895000Y18095000D01*
X48895000Y17399000D02*
X48895000Y18095000D01*
X50165000Y18796000D02*
X49149000Y18796000D01*
X51840000Y15240000D02*
X50673000Y16407000D01*
X48245000Y16195000D02*
X48245000Y16749000D01*
X49149000Y18796000D02*
X48895000Y18542000D01*
X50673000Y16407000D02*
X50673000Y18288000D01*
X52815000Y15240000D02*
X51840000Y15240000D01*
X50673000Y18288000D02*
X50165000Y18796000D01*
X48245000Y16749000D02*
X48895000Y17399000D01*
X52815000Y15240000D02*
X54483000Y15240000D01*
%TO.N,Net-(Q1B-C2)*%
X48245000Y18095000D02*
X48245000Y19510000D01*
X48245000Y19510000D02*
X48070000Y19685000D01*
%TO.N,Net-(Q1A-C1)*%
X49545000Y16195000D02*
X49545000Y14780000D01*
X49545000Y14780000D02*
X49720000Y14605000D01*
%TO.N,RXD0*%
X82640000Y3085000D02*
X82625000Y3085000D01*
X82550000Y3300000D02*
X82550000Y1651000D01*
X64008000Y11367000D02*
X63945000Y11430000D01*
X82677000Y3048000D02*
X82640000Y3085000D01*
X82530000Y3320000D02*
X82550000Y3300000D01*
X64008000Y9271000D02*
X64008000Y11367000D01*
D55*
X63945000Y11430000D02*
X62420000Y11430000D01*
D57*
%TO.N,TXD0*%
X64770000Y12510000D02*
X63945000Y13335000D01*
X83800000Y3320000D02*
X83820000Y3300000D01*
X65786000Y9271000D02*
X64770000Y10287000D01*
X64770000Y10287000D02*
X64770000Y12510000D01*
D55*
X63945000Y13335000D02*
X62420000Y13335000D01*
D57*
X83820000Y3300000D02*
X83820000Y1651000D01*
D55*
%TO.N,Net-(U2-TXD)*%
X59563000Y12700000D02*
X60770000Y11493000D01*
X60770000Y11493000D02*
X60770000Y11430000D01*
X57765000Y12700000D02*
X59563000Y12700000D01*
%TO.N,Net-(U2-UD+)*%
X57765000Y16510000D02*
X60135000Y16510000D01*
X60135000Y16510000D02*
X60770000Y17145000D01*
%TO.N,Net-(U2-RXD)*%
X57765000Y13970000D02*
X60135000Y13970000D01*
X60135000Y13970000D02*
X60770000Y13335000D01*
%TO.N,Net-(U2-UD-)*%
X59500000Y17780000D02*
X60770000Y19050000D01*
X57765000Y17780000D02*
X59500000Y17780000D01*
D57*
%TO.N,USER_LED*%
X81260000Y3142000D02*
X81317000Y3085000D01*
X81280000Y1651000D02*
X81280000Y3300000D01*
X81280000Y3048000D02*
X81317000Y3085000D01*
X81280000Y3300000D02*
X81260000Y3320000D01*
X41910000Y5905000D02*
X41910000Y8255000D01*
X81260000Y3320000D02*
X81260000Y3142000D01*
X81317000Y3085000D02*
X81355000Y3085000D01*
D55*
%TO.N,Net-(U4-SCLK)*%
X31810000Y7560000D02*
X31750000Y7620000D01*
X34735000Y7590000D02*
X31810000Y7590000D01*
D57*
%TO.N,SCLK*%
X36385000Y7587000D02*
X36449000Y7523000D01*
X61976000Y381000D02*
X60579000Y1778000D01*
X86340000Y1377000D02*
X85344000Y381000D01*
X36385000Y7590000D02*
X36385000Y7587000D01*
X85344000Y381000D02*
X61976000Y381000D01*
X36449000Y7523000D02*
X37465000Y7523000D01*
D55*
X86435000Y3085000D02*
X86450000Y3085000D01*
D57*
X86340000Y3320000D02*
X86340000Y1377000D01*
D55*
X86450000Y3085000D02*
X86487000Y3048000D01*
%TO.N,Net-(U4-{slash}SS)*%
X31780000Y5050000D02*
X31750000Y5080000D01*
X34735000Y5080000D02*
X31780000Y5080000D01*
D57*
%TO.N,{slash}SS*%
X36385000Y5047000D02*
X36449000Y4983000D01*
X85090000Y3300000D02*
X85090000Y1651000D01*
X36385000Y5080000D02*
X36385000Y5047000D01*
X36449000Y4983000D02*
X37465000Y4983000D01*
X85217000Y3033000D02*
X85165000Y3085000D01*
X85070000Y3320000D02*
X85090000Y3300000D01*
D55*
%TO.N,Net-(U4-MOSI)*%
X34735000Y2570000D02*
X31750000Y2570000D01*
D57*
%TO.N,MOSI*%
X78740000Y1651000D02*
X78740000Y3300000D01*
X78740000Y3300000D02*
X78720000Y3320000D01*
X36385000Y2570000D02*
X36449000Y2570000D01*
X36576000Y2443000D02*
X37465000Y2443000D01*
X36449000Y2570000D02*
X36576000Y2443000D01*
D55*
%TO.N,Net-(U4-RSSI)*%
X34735000Y15240000D02*
X31750000Y15240000D01*
X31810000Y15180000D02*
X31750000Y15240000D01*
X34735000Y17145000D02*
X34735000Y15240000D01*
D57*
%TO.N,Net-(D8-A)*%
X39370000Y2692500D02*
X39370000Y4255000D01*
D55*
%TO.N,Net-(U5-PROG)*%
X69660000Y34227000D02*
X69082500Y33649500D01*
X69660000Y34290000D02*
X69660000Y34227000D01*
X69082500Y33649500D02*
X69082500Y32700000D01*
D57*
%TO.N,RSSI*%
X77450000Y21356000D02*
X77450000Y20820000D01*
X77450000Y21991000D02*
X77450000Y20820000D01*
X77470000Y20660000D02*
X77545000Y20585000D01*
X76708000Y22733000D02*
X77450000Y21991000D01*
D55*
X37465000Y15240000D02*
X36385000Y15240000D01*
D57*
%TO.N,BATT_ADC*%
X79990000Y21864000D02*
X79990000Y20820000D01*
X69864075Y28525000D02*
X69814075Y28575000D01*
X69864075Y26670000D02*
X69850000Y26655925D01*
X69850000Y26655925D02*
X69850000Y25527000D01*
X69864075Y26670000D02*
X69864075Y28525000D01*
D55*
X80137000Y20637000D02*
X80085000Y20585000D01*
D57*
X69814075Y28575000D02*
X68289075Y28575000D01*
X79184500Y22669500D02*
X79990000Y21864000D01*
%TO.N,Net-(Q3-D)*%
X20662500Y34592500D02*
X19685000Y33615000D01*
X26670000Y34592500D02*
X26670000Y35052000D01*
X26670000Y34592500D02*
X20662500Y34592500D01*
D55*
%TO.N,Net-(Q3-G)*%
X25720000Y32717500D02*
X25720000Y30605000D01*
X25720000Y30605000D02*
X25845000Y30480000D01*
X25845000Y28575000D02*
X25845000Y30480000D01*
D57*
X24765000Y28575000D02*
X25845000Y28575000D01*
%TO.N,BUZZ_CTRL*%
X73640000Y22733000D02*
X73640000Y20820000D01*
X73735000Y20585000D02*
X73735000Y20649000D01*
X73735000Y20649000D02*
X73787000Y20701000D01*
X27495000Y28575000D02*
X28575000Y28575000D01*
%TO.N,LED_CTRL*%
X1360000Y29210000D02*
X1650000Y29210000D01*
X1650000Y29210000D02*
X3429000Y27431000D01*
X77470000Y3300000D02*
X77450000Y3320000D01*
X77470000Y1651000D02*
X77470000Y3300000D01*
X77560000Y3085000D02*
X77597000Y3048000D01*
X77545000Y3085000D02*
X77560000Y3085000D01*
%TO.N,SCL*%
X38100000Y29845000D02*
X37465000Y30480000D01*
X38989000Y26670000D02*
X38164000Y27495000D01*
X74676000Y22733000D02*
X74676000Y21054000D01*
X38164000Y27495000D02*
X38100000Y27495000D01*
X74676000Y21054000D02*
X74910000Y20820000D01*
X37465000Y30480000D02*
X37505000Y30520000D01*
X38989000Y20701000D02*
X38989000Y26670000D01*
X37505000Y30520000D02*
X37505000Y32893000D01*
X38100000Y27495000D02*
X38100000Y29845000D01*
%TO.N,SDA*%
X40005000Y27495000D02*
X40005000Y32893000D01*
X40005000Y27495000D02*
X40893999Y26606001D01*
X40893999Y26606001D02*
X40894000Y19939000D01*
X76180000Y21737000D02*
X76180000Y20820000D01*
X75565000Y22733000D02*
X75565000Y22352000D01*
X75565000Y22352000D02*
X76180000Y21737000D01*
%TO.N,Net-(U1-IO12)*%
X66992000Y18923000D02*
X66992000Y18986000D01*
X71100000Y20820000D02*
X71100000Y20975000D01*
X66992000Y18986000D02*
X68826000Y20820000D01*
X68826000Y20820000D02*
X71100000Y20820000D01*
%TO.N,unconnected-(U1-NC-Pad32)*%
X80100000Y3085000D02*
X80085000Y3085000D01*
X80137000Y3048000D02*
X80100000Y3085000D01*
%TO.N,unconnected-(U1-SENSOR_VP-Pad4)*%
X83820000Y20660000D02*
X83895000Y20585000D01*
%TO.N,unconnected-(U1-IO17-Pad28)*%
X75005000Y3085000D02*
X75005000Y2846000D01*
X75005000Y2846000D02*
X75057000Y2794000D01*
%TO.N,Net-(U1-IO16)*%
X63373000Y8890000D02*
X62420000Y8890000D01*
X73660000Y3048000D02*
X73660000Y2032000D01*
X73640000Y3068000D02*
X73660000Y3048000D01*
X73640000Y3320000D02*
X73640000Y3068000D01*
D55*
%TO.N,Net-(U6-SENSE)*%
X46355000Y24320000D02*
X44450000Y24320000D01*
X44450000Y24320000D02*
X44450000Y25895000D01*
X46990000Y26167500D02*
X46990000Y24955000D01*
X46990000Y24955000D02*
X46355000Y24320000D01*
D57*
%TO.N,Net-(U6-CT)*%
X46040000Y26477000D02*
X45339000Y27178000D01*
X45339000Y27178000D02*
X45339000Y28181000D01*
X45339000Y28181000D02*
X44450000Y29070000D01*
X46040000Y26167500D02*
X46040000Y26477000D01*
%TO.N,{slash}EN_3V3*%
X53975000Y24638000D02*
X55692000Y26355000D01*
X50165000Y26480000D02*
X50165000Y25400000D01*
X47940000Y29652000D02*
X48006000Y29718000D01*
X47940000Y28442500D02*
X49902500Y26480000D01*
X47940000Y28442500D02*
X47940000Y29652000D01*
X55692000Y26355000D02*
X56012500Y26355000D01*
X49902500Y26480000D02*
X50165000Y26480000D01*
X50165000Y25400000D02*
X50927000Y24638000D01*
X50927000Y24638000D02*
X53975000Y24638000D01*
%TD*%
%TA.AperFunction,Conductor*%
%TO.N,VDD*%
G36*
X52469306Y29572694D02*
G01*
X52686694Y29355306D01*
X52705000Y29311112D01*
X52705000Y28981888D01*
X52686694Y28937694D01*
X52451000Y28702000D01*
X52451000Y27875500D01*
X52432694Y27831306D01*
X52388500Y27813000D01*
X51751500Y27813000D01*
X51707306Y27831306D01*
X51689000Y27875500D01*
X51689000Y28702000D01*
X51453306Y28937694D01*
X51435000Y28981888D01*
X51435000Y29311112D01*
X51453306Y29355306D01*
X51670694Y29572694D01*
X51714888Y29591000D01*
X52425112Y29591000D01*
X52469306Y29572694D01*
G37*
%TD.AperFunction*%
%TD*%
%TA.AperFunction,Conductor*%
%TO.N,Net-(Q4-D)*%
G36*
X57981121Y33888998D02*
G01*
X58027614Y33835342D01*
X58039000Y33783000D01*
X58039000Y32766000D01*
X58256096Y32548904D01*
X58290120Y32486593D01*
X58293000Y32459810D01*
X58293000Y31675190D01*
X58272998Y31607069D01*
X58256095Y31586095D01*
X57948905Y31278905D01*
X57886593Y31244879D01*
X57859810Y31242000D01*
X56948190Y31242000D01*
X56880069Y31262002D01*
X56859095Y31278905D01*
X56551905Y31586095D01*
X56517879Y31648407D01*
X56515000Y31675190D01*
X56515000Y32459810D01*
X56535002Y32527931D01*
X56551900Y32548901D01*
X56896000Y32893000D01*
X56896000Y33783000D01*
X56916002Y33851121D01*
X56969658Y33897614D01*
X57022000Y33909000D01*
X57913000Y33909000D01*
X57981121Y33888998D01*
G37*
%TD.AperFunction*%
%TD*%
%TA.AperFunction,Conductor*%
%TO.N,Net-(D4-K)*%
G36*
X53575694Y32874694D02*
G01*
X53594000Y32830500D01*
X53594000Y32156888D01*
X53575694Y32112694D01*
X52832000Y31369000D01*
X52832000Y30161500D01*
X52813694Y30117306D01*
X52769500Y30099000D01*
X51816000Y30099000D01*
X51453306Y29736306D01*
X51409112Y29718000D01*
X50317888Y29718000D01*
X50273694Y29736306D01*
X49675306Y30334694D01*
X49657000Y30378888D01*
X49657000Y31560500D01*
X49675306Y31604694D01*
X49719500Y31623000D01*
X51816001Y31623000D01*
X51816001Y31623001D01*
X52451000Y32131000D01*
X52451000Y32830500D01*
X52469306Y32874694D01*
X52513500Y32893000D01*
X53531500Y32893000D01*
X53575694Y32874694D01*
G37*
%TD.AperFunction*%
%TD*%
%TA.AperFunction,Conductor*%
%TO.N,+BATT*%
G36*
X55441121Y33888998D02*
G01*
X55487614Y33835342D01*
X55499000Y33783000D01*
X55499000Y31877000D01*
X55880000Y31496000D01*
X56642000Y30734000D01*
X58800999Y30734000D01*
X58801000Y30734000D01*
X59272096Y31205097D01*
X59334407Y31239120D01*
X59361190Y31242000D01*
X64898000Y31242000D01*
X64966121Y31221998D01*
X65012614Y31168342D01*
X65024000Y31116000D01*
X65024000Y30733000D01*
X65003998Y30664879D01*
X64950342Y30618386D01*
X64898000Y30607000D01*
X64389000Y30607000D01*
X63663903Y29881904D01*
X63601593Y29847880D01*
X63574810Y29845000D01*
X56313190Y29845000D01*
X56245069Y29865002D01*
X56224095Y29881905D01*
X54392905Y31713095D01*
X54358879Y31775407D01*
X54356000Y31802190D01*
X54356000Y33783000D01*
X54376002Y33851121D01*
X54429658Y33897614D01*
X54482000Y33909000D01*
X55373000Y33909000D01*
X55441121Y33888998D01*
G37*
%TD.AperFunction*%
%TD*%
%TA.AperFunction,Conductor*%
%TO.N,+BATT*%
G36*
X86937121Y49509998D02*
G01*
X86983614Y49456342D01*
X86995000Y49404000D01*
X86995000Y44576000D01*
X86974998Y44507879D01*
X86921342Y44461386D01*
X86869000Y44450000D01*
X78157190Y44450000D01*
X78089069Y44470002D01*
X78068095Y44486905D01*
X76871905Y45683095D01*
X76837879Y45745407D01*
X76835000Y45772190D01*
X76835000Y48207810D01*
X76855002Y48275931D01*
X76871905Y48296905D01*
X78068095Y49493095D01*
X78130407Y49527121D01*
X78157190Y49530000D01*
X86869000Y49530000D01*
X86937121Y49509998D01*
G37*
%TD.AperFunction*%
%TD*%
%TA.AperFunction,Conductor*%
%TO.N,+3V3*%
G36*
X63397306Y28667694D02*
G01*
X63614694Y28450306D01*
X63633000Y28406112D01*
X63633000Y27695888D01*
X63614694Y27651694D01*
X63397306Y27434306D01*
X63353112Y27416000D01*
X63023888Y27416000D01*
X62979694Y27434306D01*
X62744000Y27670000D01*
X61917500Y27670000D01*
X61873306Y27688306D01*
X61855000Y27732500D01*
X61855000Y28369500D01*
X61873306Y28413694D01*
X61917500Y28432000D01*
X62744000Y28432000D01*
X62979694Y28667694D01*
X63023888Y28686000D01*
X63353112Y28686000D01*
X63397306Y28667694D01*
G37*
%TD.AperFunction*%
%TD*%
%TA.AperFunction,Conductor*%
%TO.N,GND*%
G36*
X61737931Y34777998D02*
G01*
X61758905Y34761095D01*
X61939095Y34580905D01*
X61973121Y34518593D01*
X61976000Y34491810D01*
X61976000Y33707190D01*
X61955998Y33639069D01*
X61939095Y33618095D01*
X61758905Y33437905D01*
X61696593Y33403879D01*
X61669810Y33401000D01*
X59107190Y33401000D01*
X59039069Y33421002D01*
X59018095Y33437905D01*
X58837905Y33618095D01*
X58803879Y33680407D01*
X58801000Y33707190D01*
X58801000Y34672000D01*
X58821002Y34740121D01*
X58874658Y34786614D01*
X58927000Y34798000D01*
X61669810Y34798000D01*
X61737931Y34777998D01*
G37*
%TD.AperFunction*%
%TD*%
%TA.AperFunction,Conductor*%
%TO.N,Net-(Q4-D)*%
G36*
X10810931Y49509998D02*
G01*
X10831905Y49493095D01*
X12028095Y48296905D01*
X12062121Y48234593D01*
X12065000Y48207810D01*
X12065000Y45772190D01*
X12044998Y45704069D01*
X12028095Y45683095D01*
X10831905Y44486905D01*
X10769593Y44452879D01*
X10742810Y44450000D01*
X2031000Y44450000D01*
X1962879Y44470002D01*
X1916386Y44523658D01*
X1905000Y44576000D01*
X1905000Y49404000D01*
X1925002Y49472121D01*
X1978658Y49518614D01*
X2031000Y49530000D01*
X10742810Y49530000D01*
X10810931Y49509998D01*
G37*
%TD.AperFunction*%
%TD*%
%TA.AperFunction,Conductor*%
%TO.N,+3V3*%
G36*
X37226931Y13568998D02*
G01*
X37247905Y13552095D01*
X37428095Y13371905D01*
X37462121Y13309593D01*
X37465000Y13282810D01*
X37465000Y13133191D01*
X37444998Y13065070D01*
X37428095Y13044096D01*
X37211000Y12827002D01*
X37211000Y11937000D01*
X37190998Y11868879D01*
X37137342Y11822386D01*
X37085000Y11811000D01*
X36575000Y11811000D01*
X36506879Y11831002D01*
X36460386Y11884658D01*
X36449000Y11937000D01*
X36449000Y12827000D01*
X36448999Y12827002D01*
X36231905Y13044096D01*
X36197879Y13106408D01*
X36195000Y13133191D01*
X36195000Y13282810D01*
X36215002Y13350931D01*
X36231905Y13371905D01*
X36412095Y13552095D01*
X36474407Y13586121D01*
X36501190Y13589000D01*
X37158810Y13589000D01*
X37226931Y13568998D01*
G37*
%TD.AperFunction*%
%TD*%
%TA.AperFunction,Conductor*%
%TO.N,GND*%
G36*
X7265932Y26015742D02*
G01*
X7348011Y25960898D01*
X7384446Y25914819D01*
X7426109Y25847273D01*
X7426112Y25847269D01*
X7547268Y25726113D01*
X7547275Y25726107D01*
X7693109Y25636156D01*
X7693115Y25636153D01*
X7855764Y25582257D01*
X7855762Y25582257D01*
X7956149Y25572001D01*
X7956158Y25572000D01*
X8001000Y25572000D01*
X8001000Y26035000D01*
X8509000Y26035000D01*
X8509000Y25572000D01*
X8553842Y25572000D01*
X8553850Y25572001D01*
X8654236Y25582257D01*
X8816884Y25636153D01*
X8816890Y25636156D01*
X8962724Y25726107D01*
X8962731Y25726113D01*
X9028602Y25791983D01*
X9110681Y25846827D01*
X9207500Y25866085D01*
X9304319Y25846827D01*
X9386398Y25791983D01*
X9452268Y25726113D01*
X9452275Y25726107D01*
X9598109Y25636156D01*
X9598115Y25636153D01*
X9760764Y25582257D01*
X9760762Y25582257D01*
X9861149Y25572001D01*
X9861158Y25572000D01*
X9906000Y25572000D01*
X9906000Y26035000D01*
X10414000Y26035000D01*
X10414000Y25572000D01*
X10458842Y25572000D01*
X10458850Y25572001D01*
X10559236Y25582257D01*
X10721884Y25636153D01*
X10721890Y25636156D01*
X10867724Y25726107D01*
X10867731Y25726113D01*
X10988887Y25847269D01*
X10988890Y25847273D01*
X11030554Y25914819D01*
X11097773Y25987113D01*
X11187541Y26028180D01*
X11245887Y26035000D01*
X31645204Y26035000D01*
X31742023Y26015742D01*
X31824102Y25960898D01*
X33368709Y24416291D01*
X33423553Y24334212D01*
X33442811Y24237393D01*
X33423553Y24140574D01*
X33368709Y24058495D01*
X33286630Y24003651D01*
X33189811Y23984393D01*
X33092992Y24003651D01*
X33082889Y24008097D01*
X32899068Y24093814D01*
X32899070Y24093814D01*
X32677996Y24153050D01*
X32677992Y24153051D01*
X32507113Y24168000D01*
X32004000Y24168000D01*
X32004000Y23137504D01*
X31930948Y23194363D01*
X31812576Y23235000D01*
X31718927Y23235000D01*
X31626554Y23219586D01*
X31516486Y23160019D01*
X31496000Y23137766D01*
X31496000Y24168000D01*
X30992886Y24168000D01*
X30822007Y24153051D01*
X30822003Y24153050D01*
X30600932Y24093814D01*
X30393500Y23997087D01*
X30206025Y23865816D01*
X30206019Y23865811D01*
X30044189Y23703981D01*
X30044184Y23703975D01*
X29912913Y23516500D01*
X29816186Y23309068D01*
X29763917Y23114001D01*
X29763918Y23114000D01*
X31474122Y23114000D01*
X31431722Y23067941D01*
X31381449Y22953330D01*
X31371114Y22828605D01*
X31401837Y22707281D01*
X31468008Y22606000D01*
X29763918Y22606000D01*
X29816186Y22410933D01*
X29912913Y22203501D01*
X30044184Y22016026D01*
X30044189Y22016020D01*
X30206019Y21854190D01*
X30206025Y21854185D01*
X30395862Y21721260D01*
X30464126Y21649951D01*
X30499904Y21557947D01*
X30497751Y21459255D01*
X30457994Y21368900D01*
X30403215Y21312116D01*
X30250617Y21196880D01*
X30103107Y21035070D01*
X29987832Y20848895D01*
X29987829Y20848888D01*
X29908735Y20644723D01*
X29908733Y20644717D01*
X29868500Y20429486D01*
X29868500Y20210515D01*
X29908733Y19995284D01*
X29908735Y19995278D01*
X29987829Y19791113D01*
X29987832Y19791106D01*
X30103107Y19604931D01*
X30235721Y19459461D01*
X30250618Y19443120D01*
X30425356Y19311165D01*
X30495021Y19276476D01*
X30573105Y19216080D01*
X30622133Y19130400D01*
X30634641Y19032480D01*
X30608724Y18937227D01*
X30548328Y18859143D01*
X30495022Y18823526D01*
X30425356Y18788835D01*
X30425352Y18788833D01*
X30250616Y18656879D01*
X30103107Y18495070D01*
X29987832Y18308895D01*
X29987829Y18308888D01*
X29908735Y18104723D01*
X29908733Y18104717D01*
X29868500Y17889486D01*
X29868500Y17670515D01*
X29908733Y17455284D01*
X29908735Y17455278D01*
X29987829Y17251113D01*
X29987832Y17251106D01*
X30103107Y17064931D01*
X30235721Y16919461D01*
X30250618Y16903120D01*
X30425356Y16771165D01*
X30495021Y16736476D01*
X30573105Y16676080D01*
X30622133Y16590400D01*
X30634641Y16492480D01*
X30608724Y16397227D01*
X30548328Y16319143D01*
X30495022Y16283526D01*
X30425356Y16248835D01*
X30425352Y16248833D01*
X30250616Y16116879D01*
X30103107Y15955070D01*
X29987832Y15768895D01*
X29987829Y15768888D01*
X29908735Y15564723D01*
X29908733Y15564717D01*
X29868500Y15349486D01*
X29868500Y15130515D01*
X29908733Y14915284D01*
X29908735Y14915278D01*
X29987829Y14711113D01*
X29987832Y14711106D01*
X30103107Y14524931D01*
X30235721Y14379461D01*
X30250618Y14363120D01*
X30425356Y14231165D01*
X30495021Y14196476D01*
X30573105Y14136080D01*
X30622133Y14050400D01*
X30634641Y13952480D01*
X30608724Y13857227D01*
X30548328Y13779143D01*
X30495022Y13743526D01*
X30425356Y13708835D01*
X30425352Y13708833D01*
X30250616Y13576879D01*
X30103107Y13415070D01*
X29987832Y13228895D01*
X29987829Y13228888D01*
X29908735Y13024723D01*
X29908733Y13024717D01*
X29868500Y12809486D01*
X29868500Y12590515D01*
X29908733Y12375284D01*
X29908735Y12375278D01*
X29987829Y12171113D01*
X29987832Y12171106D01*
X30103107Y11984931D01*
X30250616Y11823122D01*
X30250618Y11823120D01*
X30403214Y11707886D01*
X30468871Y11634171D01*
X30501322Y11540941D01*
X30495624Y11442390D01*
X30452647Y11353521D01*
X30395863Y11298742D01*
X30206028Y11165818D01*
X30206019Y11165811D01*
X30044189Y11003981D01*
X30044184Y11003975D01*
X29912913Y10816500D01*
X29816186Y10609068D01*
X29763917Y10414001D01*
X29763918Y10414000D01*
X31474122Y10414000D01*
X31431722Y10367941D01*
X31381449Y10253330D01*
X31371114Y10128605D01*
X31401837Y10007281D01*
X31468008Y9906000D01*
X29763918Y9906000D01*
X29816186Y9710933D01*
X29912913Y9503501D01*
X30044184Y9316026D01*
X30044189Y9316020D01*
X30206019Y9154190D01*
X30206025Y9154185D01*
X30395862Y9021260D01*
X30464126Y8949951D01*
X30499904Y8857947D01*
X30497751Y8759255D01*
X30457994Y8668900D01*
X30403215Y8612116D01*
X30250617Y8496880D01*
X30103107Y8335070D01*
X29987832Y8148895D01*
X29987829Y8148888D01*
X29908735Y7944723D01*
X29908733Y7944717D01*
X29868500Y7729486D01*
X29868500Y7510515D01*
X29908733Y7295284D01*
X29908735Y7295278D01*
X29987829Y7091113D01*
X29987832Y7091106D01*
X30103107Y6904931D01*
X30250513Y6743235D01*
X30250618Y6743120D01*
X30425356Y6611165D01*
X30495021Y6576476D01*
X30573105Y6516080D01*
X30622133Y6430400D01*
X30634641Y6332480D01*
X30608724Y6237227D01*
X30548328Y6159143D01*
X30495022Y6123526D01*
X30425356Y6088835D01*
X30425352Y6088833D01*
X30250616Y5956879D01*
X30103107Y5795070D01*
X29987832Y5608895D01*
X29987829Y5608888D01*
X29908735Y5404723D01*
X29908733Y5404717D01*
X29868500Y5189486D01*
X29868500Y4970515D01*
X29908733Y4755284D01*
X29908735Y4755278D01*
X29987829Y4551113D01*
X29987832Y4551106D01*
X30103107Y4364931D01*
X30224520Y4231748D01*
X30250618Y4203120D01*
X30425356Y4071165D01*
X30495021Y4036476D01*
X30573105Y3976080D01*
X30622133Y3890400D01*
X30634641Y3792480D01*
X30608724Y3697227D01*
X30548328Y3619143D01*
X30495022Y3583526D01*
X30425356Y3548835D01*
X30425352Y3548833D01*
X30250616Y3416879D01*
X30103107Y3255070D01*
X29987832Y3068895D01*
X29987829Y3068888D01*
X29908735Y2864723D01*
X29908733Y2864717D01*
X29868500Y2649486D01*
X29868500Y2430515D01*
X29908733Y2215284D01*
X29908735Y2215278D01*
X29987829Y2011113D01*
X29987832Y2011106D01*
X29987833Y2011104D01*
X30035264Y1934500D01*
X30103107Y1824931D01*
X30250616Y1663122D01*
X30250618Y1663120D01*
X30425356Y1531165D01*
X30621364Y1433564D01*
X30831970Y1373641D01*
X30995371Y1358500D01*
X30995374Y1358500D01*
X31862704Y1358500D01*
X31959523Y1339242D01*
X32041602Y1284398D01*
X32096446Y1202319D01*
X32115704Y1105500D01*
X32096446Y1008681D01*
X32041602Y926602D01*
X31824102Y709102D01*
X31742023Y654258D01*
X31645204Y635000D01*
X2644796Y635000D01*
X2547977Y654258D01*
X2465898Y709102D01*
X2374898Y800102D01*
X2320054Y882181D01*
X2300796Y979000D01*
X2320054Y1075819D01*
X2374898Y1157898D01*
X2456977Y1212742D01*
X2481649Y1217650D01*
X2496000Y1232000D01*
X2496000Y2262497D01*
X2569052Y2205637D01*
X2687424Y2165000D01*
X2781073Y2165000D01*
X2873446Y2180414D01*
X2983514Y2239981D01*
X3004000Y2262235D01*
X3004000Y1232000D01*
X3507097Y1232000D01*
X3507113Y1232001D01*
X3677992Y1246950D01*
X3677996Y1246951D01*
X3899067Y1306187D01*
X4106499Y1402914D01*
X4293974Y1534185D01*
X4293980Y1534190D01*
X4455810Y1696020D01*
X4455815Y1696026D01*
X4587086Y1883501D01*
X4683813Y2090933D01*
X4736082Y2286000D01*
X3025878Y2286000D01*
X3068278Y2332059D01*
X3118551Y2446670D01*
X3128886Y2571395D01*
X3098163Y2692719D01*
X3031992Y2794000D01*
X4736082Y2794000D01*
X4736082Y2794001D01*
X4683813Y2989068D01*
X4587086Y3196500D01*
X4455815Y3383975D01*
X4455810Y3383981D01*
X4293979Y3545812D01*
X4104136Y3678741D01*
X4035873Y3750050D01*
X4000095Y3842054D01*
X4002248Y3940746D01*
X4042005Y4031102D01*
X4096786Y4087886D01*
X4249382Y4203120D01*
X4396897Y4364937D01*
X4512167Y4551104D01*
X4591266Y4755282D01*
X4607359Y4841377D01*
X4631500Y4970515D01*
X4631500Y5189486D01*
X4591266Y5404717D01*
X4591264Y5404723D01*
X4512170Y5608888D01*
X4512167Y5608895D01*
X4512167Y5608896D01*
X4396897Y5795063D01*
X4396894Y5795066D01*
X4396892Y5795070D01*
X4249383Y5956879D01*
X4096785Y6072115D01*
X4031127Y6145830D01*
X3998677Y6239060D01*
X4004375Y6337611D01*
X4047352Y6426480D01*
X4104137Y6481260D01*
X4293974Y6614185D01*
X4293980Y6614190D01*
X4455810Y6776020D01*
X4455815Y6776026D01*
X4587086Y6963501D01*
X4683813Y7170933D01*
X4736082Y7366000D01*
X3025878Y7366000D01*
X3068278Y7412059D01*
X3118551Y7526670D01*
X3128886Y7651395D01*
X3098163Y7772719D01*
X3031992Y7874000D01*
X4736082Y7874000D01*
X4736082Y7874001D01*
X4683813Y8069068D01*
X4587086Y8276500D01*
X4455815Y8463975D01*
X4455810Y8463981D01*
X4293980Y8625811D01*
X4293974Y8625816D01*
X4106499Y8757087D01*
X3899067Y8853814D01*
X3677996Y8913050D01*
X3677992Y8913051D01*
X3507113Y8928000D01*
X3004000Y8928000D01*
X3004000Y7897504D01*
X2930948Y7954363D01*
X2812576Y7995000D01*
X2718927Y7995000D01*
X2626554Y7979586D01*
X2516486Y7920019D01*
X2496000Y7897766D01*
X2496000Y8928000D01*
X1992886Y8928000D01*
X1822007Y8913051D01*
X1822003Y8913050D01*
X1600932Y8853814D01*
X1393500Y8757087D01*
X1206025Y8625816D01*
X1206019Y8625811D01*
X1066898Y8486689D01*
X984819Y8431845D01*
X888000Y8412587D01*
X791181Y8431845D01*
X709102Y8486689D01*
X654258Y8568768D01*
X635000Y8665587D01*
X635000Y24025204D01*
X654258Y24122023D01*
X709102Y24204102D01*
X2465898Y25960898D01*
X2547977Y26015742D01*
X2644796Y26035000D01*
X7169113Y26035000D01*
X7265932Y26015742D01*
G37*
%TD.AperFunction*%
%TD*%
M02*
